<svg width="16" height="16" viewBox="0 0 16 16" xmlns="http://www.w3.org/2000/svg">
  <path d="M283.3 216.6h-2.8l-1.7.4-3.8-.7 1.2-.1 3.3-1.4 1.2-.3 4.8-2.4 3.8-1.3 2-.5 9.7-3.1 23.5-6.8 7.3-3 12-6 1.5-.4 1.4-.6 16.9-10.3 11.9-6.1 4-2.3 1.9-1.4 2.7-1.5.5-.7v-.3l-.8-.4-2.2.4-1.1.6h-.6l-8.4 3.5-3.6 2-8.7 3.8-15.3 8.1-11.4 6.5-5.2 2.5-19.2 9.9-12.3 6-7.4 4.1-2.8 2-1.3 1.9-.1.7.2.3.4-.1.5.2" style="fill:none;stroke:#000;stroke-width:3.41314;stroke-linecap:round;stroke-linejoin:round;stroke-miterlimit:10;stroke-dasharray:none;stroke-opacity:1" transform="matrix(.04413 0 0 -.04413 -2.2 22.3)"/>
  <path d="m287.8 212.6-1-.8-.7-1 1.3-.3.9-.5 1-.5.4-.5 1-.4h.6l2.9-1.7 2.2-.8 16.6-4.5 4.7-1h1l.8-.2 6.2-2.8 5.4-1.7 4.6-2 3.3-1.9 2.5-1.6 4.7-4 2.2-2.3h.3l.3-.5-.4.1-.8 1-5.4 2.1-6.2 2.8-9 5.3-7.2 4.1-2 1.5-2.4 1.1-3.4 1.6-2.3.8-3.6 1.7-7.9 3.2-2.8 1.3-3.2 2-1.6.6-2.2 1.6-2.3 2-2.6 2-1.4 1.5-.4.7-.6.2.5-.6.3-1.2.4-.9 1.2-1.5 1.7-1.3 2.2-1.2 1.4-.4 2.1-1 2.5-.7 10.6-5 5.1-2.6 6.4-4.2 2.2-1.7 4.5-3 14-8.2 6.8-3.4 8.6-2.9 2.7-1.1 8.2-3 9-4 7.5-4 1.6-.8 6-4.2 1-.6h.8l.7-.6 1.2-.7-1.2.6-1.7 1.8-8 4.6-7.3 3-9.4 4.2-6.2 3.3-8.5 3.8-6.9 3.8-2.5 1.8-2.7 1.4-5 3.1-5.7 4.1-5.7 3.5-8.3 4.5-11 5-1.4.5-2.3 1.2-1 1-.3.5v.2l.6.2.8-.2" style="fill:none;stroke:#000;stroke-width:3.41314;stroke-linecap:round;stroke-linejoin:round;stroke-miterlimit:10;stroke-dasharray:none;stroke-opacity:1" transform="matrix(.04413 0 0 -.04413 -2.2 22.3)"/>
  <path d="m187.2 190.2 1 1v1.8c-.3 2.5-.8 5-1 7.6v2.9c.1.7.6 1.4.6 2.2.2 2.5.1 5 0 7.6 0 2-.3 3.9-.5 5.8l-1.8 14c-.6 6.5-.9 12.9-1.5 19.3 0 .8-.3 1.6-.5 2.4l-.4.3c-.3.2-.7.3-1 .6-.3.4-.5.9-.6 1.4 0 .3.5.6.6 1v.6s-.3.2-.2.3c0 .1.3.2.4 0 .7-.5 1.3-1.2 2-1.9l.8-.5c.9-.7 1.7-1.5 2.4-2.4l2.8-3.7 1.4-1.5.5-.7 1.8-1.9.2-.3c.6-.6 1.4-1.1 2-1.8 1.6-2 2.8-4.2 4.3-6.3l1.9-1.8.8-.5 1.4-1.4c.9-.6 2-.7 2.8-1.4.2-.2-.4-.3-.5-.6v-1c.1-.4.3-.8.6-1.1.2-.3.5-.4.8-.5h.3c.8.2 1.5.9 2.3.8 1.7 0 3.3-1 5-1.1 1.6-.2 3.2-.2 4.8 0 2 0 4 1 6 .8.9-.1 1-1.3 1.7-2l.8-.4h.4c.7 0 1.5-.2 2.2 0 .7.1 1.3.7 2 .9l4.5.6c.4.1.8.4.9.8.2.5.1 1 0 1.6 0 .3-.3.4-.5.6-.3.2-1.1.3-1 .6.4.5 1.2.5 1.8.7l5.9 1.8 2.3.5c.6.2 1.2.6 1.8 1 .2 0 .4.3.5.5v.3c0 .6.1 1.1 0 1.6 0 .3-.4.4-.5.6v.1l.7-.2a30.9 30.9 0 0 1 8.1 5c2.4 2 4.5 4.5 6.8 6.7l.9.6c.6.6 1 1.9 1.9 1.9.6 0 .5-1.3.6-1.9l1-7.8 1.4-13 2.4-21.3c.4-2.9.5-5.8.8-8.7l.4-2v-3.8c0-.3-.3-.6-.3-1-.1-.9-.2-1.9 0-2.8 0-.3.4-.6.7-.7.4-.2.9-.1 1.3 0h.5l.6 1.2c.4 1.7.6 3.4.8 5.1a244 244 0 0 1 .8 19.2c-.8 9-2 17.8-3 26.8l-.8 9.8c0 .3-.2.5-.3.8l-.3.2c-.3.2-.7.6-1.1.5-.5 0-.8-.6-1.3-.8 0 0-.2 0-.2.2a22 22 0 0 0-.6 2.4v.7c4.8 5 9.8 9.7 14.6 14.6l.5.8 1.8 1.8.5.8 3 3c.3.3.7.4 1 .6l1 1.2c.8.6 1.7 1 2.4 1.7l.8.8 3.3 2 .7.7.8 1.8v1.4c-.3.5-.9.7-1.2 1.2l.1.5.5.5v1l-.1.4-1.3 1h-.3l-.5-.2-1-.7-.5-.8-1.4-1.4-.6-.9-.7-.7-4.6-6.2-2-2c-.3-.3-.4-.7-.6-1-.3-.2-.8-.4-1-.7-.3-.2-.4-.6-.6-.8l-1.1-1.1-.9-.6-1.4-1.4-.8-.5-4.3-4-.8-.4-1.8-1.8-.7-.4c-.6-.6-1.1-1.3-1.8-1.8-1-.9-2.2-1.5-3.3-2.4-1-.8-1.7-1.8-2.6-2.6l-.9-.5c-.6-.6-1.1-1.3-1.8-1.8L261 256c-.9-.6-1.8-1-2.7-1.7-.6-.6-1.1-1.3-1.8-1.8l-.8-.6-.7-.7c-.6-.4-1.3-.7-1.8-1.2a17 17 0 0 1-2.2-2.1 25.7 25.7 0 0 1-2.7-4.3v-2.1c.3-.3 1-.7.8-1-.3-.6-1.1-.4-1.6-.6-.2 0-.3-.4-.5-.4a94.3 94.3 0 0 0-11.6-2.5c-.2 0-.4 0-.5.2l-2.5 2.5-.6.3-1.7.6-2.4.5-2.8 1h-.6c-.2-.2-.2-.5-.2-.8 0-.3.3-.6.3-1l-.2-.2a124.8 124.8 0 0 0-7-2.7l-.4.3-.6.7-.8.5a1 1 0 0 1-.7 0l-.8-.5-1-1-.5-.8v-.7l.2-.3v-.3c0-.2-.1-.2-.2-.3l-.3-.3-2.4-.8-.4.1.2.7v1.2l-.1.5c-1.6 1.7-3.4 3.2-5 5l-.5.8c-.9 1-2 1.6-2.7 2.7-.6 1-.6 2.3-1.1 3.3a4 4 0 0 1-1.3 1.3l-1.7 1c-.6.5-1.2.8-1.6 1.4-1 1.1-1.6 2.4-2.4 3.6l-.5.5c-1 1.3-1.7 2.6-2.7 4l-3.8 5-.8.8-1.7 2.4-2 2.4c-.3.2-.4.5-.5.8l-1.5 1.4-.4.8c-.6.6-1.3 1.1-1.8 1.8l-.5.7-1.4 1.5c-.2.2-.3.6-.6.8l-1 1c-.8 1-1.6 1.9-2.2 3-.4.6-.4 1.6-.8 2.3-1.2 2-2.7 3.9-4 5.9-1 1.6-1.9 3.3-3 4.9a226.2 226.2 0 0 1-9.2 11.8l-1.2.4h-.4c-.3-.1-.5-.5-.8-.5-.4 0-.5.5-.8.7l-.8.5h-1.3a1 1 0 0 1-.5-.1l-.4-.4c-.2-.4-.5-.8-.5-1.2 0-.8.3-1.6.6-2.3l.8-2a112 112 0 0 1 3.6-6.4c2.6-4.4 5.4-8.7 8.2-13l2.2-3.2 2-2.5 1-1.2.5-.7 4.9-4.9.5-.8c1.6-1.7 3.3-3.2 4.9-5l.5-.8c.7-.8 1.8-1.3 2.3-2.3.1-.4-.7-.4-1-.7-.3-.3-.7-.5-.8-.9-.2-.7-.2-1.4 0-2.2.2-2.3 1-4.6 1.2-7 .2-2.5 0-5 0-7.6 0-.3-.3-.6-.3-1l.8-10.8 1.5-12.8a922.2 922.2 0 0 0 1.4-18.2l-.2-.7v-1.5c0-.5.2-.9.5-1.2.3-.3.9-.2 1-.6.6-1.7.6-3.6 1-5.4l.2-.3c.2-.2.3-.5.6-.6h1m34.5 42.8c-1.7 0-3.5-.3-5.1 0-.6.2 1 .7 1.6 1h6.4c.2 0 .9-.3.7-.4-.7-.4-1.5-.4-2.3-.6m6.7 4.2H227c0 .2.3.2.5.2h1.5l.5-.1m25.2 9.4v.3l.4.3 1.2.9c.1 0 .5 0 .4-.1 0-.3-.3-.4-.5-.6l-1.1-.8M174 273c-1.4 1.4-3 2.8-4.3 4.3-.3.2-.4.6-.6.8-.7 1-1.6 1.7-2.3 2.7l-3.5 5-.5.9c0 .1 0 .5.1.4 1.2-1.4 2.1-3 3.3-4.4.3-.5.8-.8 1.1-1.2l.5-.7c.4-.6 1-1 1.4-1.5l.6-.9 1-1 .5-.8 1-1.1c.3-.2.4-.5.5-.8.4-.4.9-.7 1.2-1.2l.1-.5m-11.8 14.5-.1.5h.1c.2 0 .4-.2.4-.4v-.4m-1 1.3-.1.4v.1l.2-.4m-.8.9v.4s0 .1 0 0l.1-.4M312.7 313l.6.5.2 1.1.8 12c0 1.1.2 2.3.4 3.4l2 12.3v.7a2 2 0 0 1-.6.8c-.4.4-1 .4-1.3.9-.2.3 0 .7 0 1.1l1.9 24.8c0 1-.5 2.3 0 3.3.3.6 1.4.4 2 .6l.3.3c.6 3.8 1 7.8 1.7 11.6.2 1 .8 2 1.2 3a77.4 77.4 0 0 1 4 16.4c.4 2 .8 4.2 1 6.3v8.3c-.2 2.5-.6 5-1 7.5l-1.1 6.6-.7 3.3-2.2 7.2c-.6 1.8-1.2 3.7-2 5.4-.9 2.2-2 4.3-3 6.3l-5.5 9.3-.5.5c-.6.8-1.1 1.8-1.8 2.6 0 .2-.3.4-.5.6l-1.7 2.6-1 1.3-1 1.1-.6.9c-1.5 1.6-3 3.2-4.7 4.7l-.8.5-2.7 2.3a81.4 81.4 0 0 1-11.5 7.4 74.4 74.4 0 0 1-23.1 7 112.8 112.8 0 0 1-20.5.8l-7-.6-4.2-.6c-1.7-.3-3.5-.5-5.2-1a148.2 148.2 0 0 1-15.6-5c-1.9-.8-3.8-1.6-5.7-2.6-3.1-1.7-6.2-3.4-9.2-5.4-1.7-1.1-3.4-2.5-5-3.8-.5-.3-.8-.8-1.2-1.1l-.7-.5c-.6-.4-1-1-1.5-1.4l-.8-.5-1.4-1.4-.8-.5-2.4-2.4c-.4-.3-1-.6-1.3-1-1.6-1.4-3-3-4.5-4.4l-.5-.9-2.3-2.3-.6-.9-1.7-1.7c-.5-.6-.7-1.2-1.1-1.8-1.4-1.8-3-3.6-4.3-5.5a79.6 79.6 0 0 1-8.3-15.6c-1.4-3.2-2.6-6.5-3.8-9.8a40.7 40.7 0 0 1-1.1-4c0-.3.1-.4.3-.6l.7-.5h1.3c.2 0 .5 0 .6.2 1.8 4.4 3.3 9 5.2 13.5 1 2.6 2.4 5.2 3.7 7.8a56.8 56.8 0 0 0 4.2 7l2.4 3.1 3 4.3 1.8 1.7.5.9 2.6 2.6.5.8 2.8 2.8.8.5 3.1 3c.2.3.6.4.8.6l1.4 1.4.8.4 1.4 1.5.8.4 1.5 1.5 2 1.4 2 1.7a52 52 0 0 0 3.6 2.3 77 77 0 0 0 16.9 8c3 1 6 2 9 2.7a104.9 104.9 0 0 0 14.6 2.2 189.8 189.8 0 0 0 21.5-.6c2.9-.4 5.8-.8 8.6-1.6 2.6-.6 5-1.5 7.5-2.4l3.2-1.3a82 82 0 0 0 10.1-5.4c.8-.5 1.5-1.3 2.2-1.8l2-1.4.8-.8.8-.5 1.1-1.1.8-.5a80 80 0 0 0 3.8-3.8l.6-.9 1-1 1-1.3 4.4-6.3a140 140 0 0 0 8.3-15c.8-1.7 1.3-3.6 2-5.4a92.7 92.7 0 0 0 4.5-22.4c.2-2.4.5-9.7 0-7.3-.9 3.7-.5 7.5-.9 11.3a53.1 53.1 0 0 1-6.2 20l-3 5.1c-.5 1-1.2 1.7-1.8 2.6l-.8.8-.5.7c-.4.6-1 1-1.5 1.5l-.5.9c-1.9 2-3.8 4-5.9 5.8-1.2 1.1-2.7 1.9-4 2.8l-.5.5-3.6 2.4c-.2 0-.3.3-.5.5-1 .6-2 1-3 1.8-.5.4-.9 1-1.3 1.5l-1.4 2c-.4.6-1 1-1.5 1.5l-.5.8-.6.6-.8.5-2.6 2.6-.8.5c-.9.8-1.5 1.7-2.4 2.4a62.5 62.5 0 0 1-5.8 4l-3.8 1.8-2.5 1a59.3 59.3 0 0 1-16.7 2c-1 0-2.1-.4-3.2-.6-.6 0-1.3-.4-1.7 0-.6.5-.4 1.4-.7 2 0 .2-.2.4-.4.5h-1.3a.9.9 0 0 1-.5-.3 5 5 0 0 1-.9-1.4c-.1-.4.2-1 0-1.1-1-.6-2-.6-3-.9-3.3-.7-6.7-1.3-9.9-2.2a152.8 152.8 0 0 1-19.5-7.8c-4.7-2.4-9.2-5-13.7-7.4l-1.8-1.2c-2-1.1-4.1-2.1-6.1-3.3a57.4 57.4 0 0 1-5-3.4c-.2-.3.1-.8-.1-1.2-.4-.5-1-.9-1.5-1.3l-.8-.5-6.6-6.6-.6-.9-2.3-2.6a191 191 0 0 1-5-7c-.4-.4-.6-1-.8-1.4l-2.1-3a119.8 119.8 0 0 1-5.8-12l-2.5-7.8-1-3.2c-.4-1.5 0-5.8-1.1-4.6-1.6 1.7-.6 4.6-1 6.8 0 .3 0 .6-.2.8-.2.2-.4.5-.7.6l-.8.5h-.3a2 2 0 0 1-1.2-.5 2 2 0 0 1-1-1 133.1 133.1 0 0 1-2.5-23c0-2.9.4-5.7.7-8.6 0-1.2.2-2.5.5-3.7l.6-.5h1.3l.5.1c.2.2.5.3.6.6v2.3c-.2 2.6-.5 5.2-.6 7.9-.1 1.7-1.6 5.5 0 5.1 1.8-.4.4-3.6.8-5.3.1-.3.7-.2.8-.5.5-1 .4-2.3.8-3.3.1-.3.3-.5.6-.6h1l.4.1c.3.2.7.4.7.7.5 3.9.5 7.8.8 11.6a44 44 0 0 0 1 6.7c.4 2.2.9 4.5 1.5 6.7a217.9 217.9 0 0 0 5.1 14.6l3.4 6.9a100.5 100.5 0 0 0 8.4 12c.7 1 1.6 1.9 2.4 2.8l.4.8c1.9 2 3.8 3.9 5.8 5.7l.8.6 1 1 2.4 1.7.8.8 1.7 1.1.6.5a71 71 0 0 0 9 5.5c2.7 1.4 5.5 2.5 8.4 3.7a120.8 120.8 0 0 0 17.4 5.7c2.5.6 5 1 7.6 1.3l5.7.8h2.6c.2-.4 0-.7 0-1l-.5-3.5v-2l.1-.4 1-1h1c.3.3.7.5.8 1 .6 2 .7 4.2 1.1 6.3l.5 1h2l5.8-.6c1.8-.2 3.6-.4 5.4-.8 2.8-.7 5.6-1.4 8.3-2.3a177.3 177.3 0 0 0 18.1-7.3c1.4-.8 2.8-1.6 4.1-2.6.4-.2.8-.6 1-1a262.9 262.9 0 0 0 15.2-29.5c1-2 1.9-4.3 2.6-6.5a31 31 0 0 0 1.1-13.7 56.3 56.3 0 0 0-2.4-11.6c-1.2-3.6-3.4-7-3.8-10.7-.1-1 1.7-1 2.6-1.3.2 0 .5 0 .6.3l1.3 3.1a76.7 76.7 0 0 1 5.2 20.5 41.1 41.1 0 0 1-4 21.2c-1.7 4.2-3.6 8.3-5.6 12.3-2 4-4.2 7.7-6.1 11.6-.1.1.3.2.4.1a37.2 37.2 0 0 0 9.4-8.1l.6-.9c.5-.6 1.1-1 1.6-1.7 1.2-1.3 2.3-2.6 3.2-4 1.1-1.7 2-3.5 3-5.2l1.2-2.5c.8-1.9 1.6-3.8 2.2-5.8l1.3-4.7.8-3.7v-.6c-.3-.2-.5.1-.8.1-.4 0-.9.2-1.3 0-.3-.2-.7-.5-.7-.9-.4-2.3-.4-4.7-.6-7-.8-15-1.3-29.8-2.2-44.7l-1-14.2v-1l.2-.5c.1-1.7.2-3.4 0-5.1 0-.9-.5-1.7-.6-2.5l-.4-4.4a838.9 838.9 0 0 1-.8-14.7l.3-.6v-4.1c-.2-1.5-.6-3-.7-4.5v-8s0-.3.2-.4a2 2 0 0 1 1-.6m-158.3 0 .8.6.5.5v1.9c-.1 1.3-.5 2.6-.7 4-.5 3.7-1 7.5-1.2 11.3a330 330 0 0 0-.6 14.2v5c0 .3.2.5.3.7v1.3c0 .4-.3.8-.5 1.1l-.4.5-1.2.1-.4-.1-.7-.9c-.2-.6-.2-1.2-.2-1.9-.4-4.8-1-9.6-1-14.4 0-2.5.5-5 1-7.4 0-.3.2-.6.3-.8l.3-1.4 1-8.7a51.7 51.7 0 0 1 1.2-4.8l.2-.3.9-.5M318 400.5l-.1.4.1.4.1-.4m.1 1.6v5c.2 4.6-1.3 9.7 1.2 13.5 2 3.2.3-7.7 0-11.5M280 476.6l-.4.5h.6c.1-.1.3-.2.2-.3m-1 .5h-.5l-2.8 2c-2 1-3.9 2.3-5.9 3.3h-1l-.8-.5c-.3-.3-.3-.7-.6-1h-.2l-6.7 2c-1.7.4-3.5.9-5.3 1.2l-4.4.6c-2.4.2-5-.2-7.2.6-.6.2-.2 1.6.3 1.9 1.6.8 3.5.8 5.3 1h7l6.2-1.2a25.9 25.9 0 0 0 5-1.6 34.8 34.8 0 0 0 9-5.4c1-.8 1.7-1.7 2.6-2.7m-51.7 6.1-.4.1c0 .2.2.2.4.1m1.9.1c-.5 0-1.6-.3-1.4.1.4.5 1.2.5 1.9.7a255.6 255.6 0 0 0 10.4 2.2v-1c0-.1 0-.5-.2-.5" style="fill:#000;fill-opacity:1;fill-rule:nonzero;stroke:none" transform="matrix(.04413 0 0 -.04413 -2.2 22.3)"/>
  <path d="m165.5 195.5 7.7 4.2 6.5 4.2 2.4 1.1-1.5-1.2-2.7-.9-2.6-1.1-1.5-1-20-8.7-6.6-2.5-17.7-7.8-5.2-1.8-6.9-3-1.7-1-1.7-1-1.7-.3-3.2-1.2-10-4.4-3.8-2.1-3.8-2.5-2.2-2-4.4-4.6v-.3l.2-.1H87l5.4 1.2 7.3 2.6 7 3 4 1.4 12.5 6.1 22.2 9.9L169 193l8.6 4 9.9 4.8m-39.4 200.4-.1.2-.3-1.8-.3-6.3.2-7 .9-13 .3-9v-16.9l.3-10.7-.6-2.6-.4-.5-.5.5-.8 5-.4 8-.2 6 .2 7.4 1.4 30 1 8.9 2.3 12.4-.3-3-.7-8.8-.1-7 .2-26.5.4-12.4 1.2-23.7v-4l-.4-6.1-.6-7.3-.7-4.3v.5l.7.9.2 2" style="fill:none;stroke:#000;stroke-width:3.41314;stroke-linecap:round;stroke-linejoin:round;stroke-miterlimit:10;stroke-dasharray:none;stroke-opacity:1" transform="matrix(.04413 0 0 -.04413 -2.2 22.3)"/>
  <path d="M218.1 231.6h2l.8.6.3.4 4.5.6h.7l.6-.3c1.1 0 2.2-.1 3.2 0 3.1.5 6.2 1.1 9.2 1.8l3.2 1h1l.6-.2h.6c.4.1 1 .2 1.2.5.5.6.5 1.4.8 2 0 .2.2.3.3.4l5.6 2a53.9 53.9 0 0 1 10.8 6c.2.3.4.6.4 1 0 0-.2.1-.2.3 0 .1 0 .3.2.4.7.5 1.6.8 2.4 1.2l1.3 1c.8.7 1.6 1.4 2.2 2.2 1 1.4 1.9 3 3 4.3.7.9 1.7 1.6 2.5 2.4l.1.4 1.2 1c.5.3 1 .4 1.5.8.7.8 1 1.8 1.7 2.7l2.7 3c.7.9 1.1 1.9 1.8 2.7l2 1.4 1.4 1.5.9.5 1.3 1.6a72 72 0 0 0 3.5 3.5l.8.5c.7.6 1.4 1.2 2 2 .5.7.9 1.6 1.2 2.5l1 3c.8 1.6 1.9 3.1 2.4 4.8 0 .4-.4.7-.6 1l-1.1.7h-.5c-.3-.2-.8-.4-1-.7-.9-1.5-1.6-3-2.3-4.5l-1-3-.8-1.6c-.2-.3-.5-.4-.8-.6-2.9-2.8-5.6-5.8-8.6-8.6-.5-.5-1.2-.7-1.8-1.1l-.5-.6-1.2-1.8c-.3-.4-.8-.7-1.1-1.2l-.5-.7-1.4-1.5c-.6-.7-1-1.6-1.5-2.3a3 3 0 0 0-.6-.7l-2-1.4-1-1c-.2-.2-.3-.6-.6-.8l-2-2c-1-1.4-1.9-3-3-4.3-.3-.5-.8-.9-1.3-1.3-.5-.5-1.2-1-1.9-1.3l-2-.7-1.4-.8a43.3 43.3 0 0 0-4.2-1.4l-.8.5h-.4l-.9-.6c-.5-.5-.8-1.3-1.4-1.7-2.7-1.8-5.8-3.2-8.6-4.9-.8-.4-1.4-1-2.1-1.4-1-.5-2-1-3.1-1.2l-.7.2a3 3 0 0 1-1 0l-2.1-.6-5.5-.7c-.8-.2-1.6-.5-2.5-.6a165.2 165.2 0 0 0-7.9-1.2 1 1 0 0 0-.5.2l-.5.5c-.5.3-1 .5-1.5.5s-.9-.4-1.3-.5h-.3c-.6.2-1 .5-1.5.8l-.8.8c-.6.4-1.3.4-1.8.8-.4.4-.5 1-.8 1.4l-.3.4c-1.4.5-3 .5-4.3 1.4-1.2 1-1.7 2.7-2.6 4l-1.5 1.4-1 1.3-1 2-.9.8-.4.8-2.7 2.7-.6.9c-2.8 2.9-5.8 5.6-8.5 8.5-.6.7-1 1.5-1.5 2.2l-1.2 1.1a50.8 50.8 0 0 0-3.3 5.3c-.1.2.2.4.2.6v1c0 .2-.3.4-.5.6-.6.3-1.4.3-1.8.8-1 1.1-1.5 2.6-2.3 3.9-.8 1.2-1.9 2.2-2.7 3.3l-.8 1.4c-.3.5-.6 1-1 1.3l-3 3-4.3 6.2-2.7 3-.4.8-3.4 3.4c-.3.3-.3.8-.5 1.2l-1.1 1.7-.8 1.7.1.5.2.3c.3.7.6 1.4.6 2 0 1.4-.3 2.8-.6 4.1-.3 2-.6 3.9-1.2 5.8-.5 1.9-1.6 3.7-2 5.7-.8 4.1-1 8.4-1.6 12.6 0 .4-.3.8-.5 1.2 0 .3-.4.4-.4.7-.4 1.4-.6 2.8-.7 4.1-.4 3.5-.8 6.9-1 10.3-.1 6.6-.5 13.2 0 19.7.2.7 1.4.4 2 .7.2 0 .3.2.4.4a28.3 28.3 0 0 1 2 5.5v.7c0 1.1-.2 2.2-.5 3.3-.4 1.2-1 2.2-1.6 3.3v2.9a632 632 0 0 0 2.8 22.9 344.1 344.1 0 0 0 5.7 19.3c.2.5.5 1 1 1.5.6.8 1.4 1.3 2 2.1.8 1 1.3 2 2 3l1.5 1.8 2 2.8c.5 1 1 2.2 1.7 3.2.6.9 1.4 1.5 2 2.3.2 0 .2.2.3.3l1.5 1.4.7.4a23 23 0 0 1 2.3 2.3c1 1.1 1.7 2.4 2.7 3.6l.8.8 2.3 3.6 1.2 1.2 1 1.7 2.5 3 1 1.7c.5.6 1 1.2 1.6 1.6 3 1.8 6.1 3.2 9 5 .8.4 1.4 1.2 2.2 1.7 2.1 1.6 4.4 3 6.6 4.5l1.4.7.5.5c1 .5 2.3.7 3.3 1.1l1 .7c1.2.2 2.4.1 3.6 0 2.3-.2 4.6-.7 7-1h1.5c.4.1.6.4 1 .4l.6-.3h4.5c.3 0 .6.3 1 .3a7 7 0 0 0 1.8 0c1-.2 2-.6 2.9-.9l4.3-1.6c1-.3 1.7-1 2.6-1.3 1.2-.4 2.5-.5 3.7-.8l2.5-1 3.1-.6 7.2-1c.6 0 1.1-.2 1.6-.4.5-.1.8-.5 1.3-.7.8-.3 1.7-.4 2.4-.8.6-.4 1-1 1.5-1.5l3.8-2.5 3.6-2 .5-.5a14.2 14.2 0 0 1 3.2-1.6c1.7-.7 3.6-1.1 5.3-1.8a8 8 0 0 0 1.8-.9c.5-.3.8-.8 1.2-1.2.1 0 .3 0 .4-.2.8-1 1.5-2.2 2.4-3.2.7-.7 1.6-1 2.4-1.7l.5-.8.5-.6 2.3-2.3.9-.6c1.4-1.3 2.9-2.5 4-4 .8-1 1.2-2.2 1.8-3.3l2.8-4.8.5-.5c.7-1.7 1-3.5 1.7-5.2.3-.8.9-1.4 1.2-2.2l1-2.2c.6-1.2 1.4-2.2 1.8-3.4 1-2.6 1.5-5.4 2.4-8a157.2 157.2 0 0 1 3.2-8.6c0-.2.2-.4.4-.4.3-.2.7-.1 1-.2l.2-.3a271 271 0 0 0 .7-12.5c-.2-2.4-.6-4.8-1-7.2l-.8-4.2c-.2-1.7-.5-3.5-.6-5.3-.3-5-.4-10-.8-15a111.7 111.7 0 0 0-1.2-10.3c-.8-4.8-1.9-9.6-2.6-14.5-.2-1.2 0-2.4 0-3.5 0-.4.3-.6.3-1 0-1.4.2-2.8 0-4.1-.5-3.2-1.4-6.3-2.1-9.4l-1.3-4.5c-.2-.6-.6-1.2-1-1.9a23 23 0 0 0-1.2-1.9l-.5-.5-1.6-2.5-.6-1.8c-.2-.8-.6-1.7-.6-2.6 0-.7.7-1.4.6-2.2-.1-1-1-1.6-1.2-2.5 0-.3.3-.6.5-.9.2-.2.6-.4.7-.7v-.7l-.9-1.2-.6-.6c-.2-.2-.6-.2-.8-.5l-.8-1.4v-.5l.5-.7c.2-.2.3-.5.6-.6h1.3l1.1.9c.3.2.5.6.9.8.3.2.8.2 1 .4.5.4.5 1 1 1.4.5.4 1.3.3 1.9.7.4.2.5.7.7 1.1l.9 2.5 1.1 4.1 1.4 4c.5 2 1 3.9 1.2 5.8 0 .5-.4.8-.6 1.3v1l1 2.5v1c-.3.4-.8.7-1 1.2v1l1.4 6c.8 4.7 1.4 9.3 2.3 13.9.5 2.7 1.3 5.3 1.7 8 .4 2.5.6 5 .8 7.5.4 4.8.4 9.5 1 14.2.5 2.6 1.5 5 2 7.6a25.5 25.5 0 0 1 .6 7.8c0 .5-.2 1-.3 1.4l-.4 3-.5 4.2v1.6l.8 5.6c.2 1 .6 2.1.7 3.2v2.3c0 .2-.3.4-.5.5l-.9.5c-.1.1-.4 0-.4 0-.4 1.8-.5 3.5-.9 5.2-.3 1.4-.8 2.8-1 4.3-.4 1.4-.3 2.9-.6 4.3 0 .2-.4.3-.5.5-.4 2.3-.4 4.7-.8 7-.2 1-.6 1.7-.8 2.6l-.7 1.5c-.6 1.2-1.5 2.3-2.1 3.5-.6 1-1.2 2-1.6 3-.3 1-.4 2.1-.8 3.2-.4 1.4-1 2.7-1.6 4-.8 2-1.5 3.9-2.5 5.7-.5 1.1-1.2 2.2-2 3.3-.3.5-1 .9-1.4 1.4l-.5.9-4.6 4.5c-.5.6-.8 1.3-1.2 2l-1.4 2.6c-.5.8-1 1.5-1.7 2.2-.2.3-.5.4-.8.6l-1 1-3.2 2-2 .9c-.6.3-1.3.4-2 .8s-1 1.2-1.7 1.7c-1.2.8-2.5 1.3-3.6 2l-.6.6a27.2 27.2 0 0 1-5.2 2.8l-1.4.3-7.2 1.2h-1l-.3-.3h-.3l-8.6 1.5-2.4.6-6.7 2-1.5.3a237 237 0 0 1-12.9.7l-1.5-.3-13.6-1c-3.6-.3-7.3-.3-11-.6-1.6-.2-3.1-.6-4.6-.9l-2.6-.7-1.3-.8c-2.5-1-5-1.5-7.5-2.6-1-.5-2-1.5-3-2.1l-1.7-.8c-.5-.2-.9-.6-1.3-1-1.3-1.1-2.4-2.4-3.7-3.6l-.8-.5a48.5 48.5 0 0 1-3.4-3.5c-.6-.6-1-1.2-1.3-1.9l-2-3.6c-.9-1.3-1.6-2.6-2.6-3.8-.3-.4-.8-.5-1.2-.9a64 64 0 0 1-4-4l-.8-1.4-.8-.9-.7-1-.7-1.6a52 52 0 0 0-2.6-4.5l-1.1-1.1c-.5-.7-.7-1.4-1.1-2-.7-1.1-1.5-2-2.2-3.2l-1.2-2.4-2.3-6.5-1-2-.3-.3c-.4-.2-1-.2-1.4-.5-.3-.2-.5-.6-.7-.9l-1-2.4-.8-4.6c-.3-4.2-.2-8.4-.7-12.5 0-1.1-.8-2.1-1.2-3.2v-.7l.7-1.4c.1-.3.5-.4.7-.6l.2-.5-.7-1.7a28.4 28.4 0 0 1-.6-6.6l.3-.6v-1c-.2-3.4-.8-7-.9-10.4-.2-10.6-.1-21.2 0-31.8 0-.6.3-1.2.3-1.9.4-3.8.5-7.6 1-11.4 0-1.3.4-2.5.6-3.8v-.6c-.2-.3-.5-.3-.7-.5l-.5-.8a2 2 0 0 1 0-1c.1-1 .4-2.2.8-3.3l.7-2-.1-.5c-.3 0-.5.3-.7.3h-1.3c-.3-.2-.6-.4-.7-.8-.2-1-.1-1.9 0-2.8 0-.4.3-.7.3-1-.3-1.2-1-2.3-1.3-3.5v-2.2c.1-.3.4-.4.6-.6l.8-.5h.4c.4.2.8.3 1 .6.5.6.6 1.5 1 2.1v-.1c.6-1.2 1-2.4 1.4-3.6l.7-1.3c.3-.3.7-.5.8-.8.5-1.3.5-2.7.8-4l.4-1v-.5c-.4-.3-1-.3-1.4-.6-.3-.3-.6-.7-.7-1.1-.2-.4-.1-.9 0-1.3.1-.8.4-1.5.8-2.1l1.3-2 2.8-2.8.9-.6.5-.5c.4-.9.5-1.8.8-2.7l.7-1.6c.2-.4.6-.7 1-1l1-.7.5-.8.6-.6c.4-.3.9-.5 1.2-.9l4.9-7.4 1.4-1.8c.4-.6.6-1.4 1.1-2 .5-.7 1.3-1.1 1.8-1.8l2.3-3.6 1.5-1.8 3-5.2c.8-1.4 1.8-2.6 2.7-4l1-2c1-1.2 2.1-2.1 3.2-3.1.2-.3.6-.3.8-.6l3.2-3c.6-.8 1.1-1.7 1.8-2.5l1.4-1.5.5-.8 1.1-1 .5-.8 3-3.2c.4-.3 1-.5 1.3-1 .3-.2.4-.7.8-1l1.6-1c1.2-.6 2.5-1 3.6-1.6.7-.5 1.2-1.2 1.8-1.9l.3-.3-.3-.3v-1l.5-.8.7-.7 1.2-.5.7-.7 1.4-.8c.2-.2.2-.6.5-.7 1-.2 2-.1 3.1 0 .3 0 .4.4.6.6h.4m81 59.7 2.7.9c.8.3 1.5.7 2.1 1.2.4.2.7.5.9.9v1c-.1.3-.2.6-.5.8-.5.3-1 .5-1.5.5s-.8-.3-1.2-.5l-1-.7h-.4l-.1.5c0 .2.3.4.2.6-.1.5-.5 1-.9 1.3-.3.2-.7.1-1 .1l-.9-.1a9.3 9.3 0 0 1-1.5-2.9 4 4 0 0 1 0-2c0-.2.3-.5.5-.8.2-.3.5-.7.9-.8M152 427c0 .5-.1 1 0 1.6 0 1 .2 2 .5 3 .2.5.8.8 1 1.2.6.9 1 1.8 1.4 2.7 1 2.3 1.6 4.7 2.6 7a8 8 0 0 0 1.3 2.4v-.7c-.8-2.6-1.7-5-2.7-7.6l-1.1-2.3c-.4-1.2-.6-2.5-1.1-3.7m161 2.7c-.1 0-.3 0-.3.2l-2 4.5-1.3 2.3-.7 1-2.4 2.7-.3.6-.6 1.5c-.5 1.5-.8 3.1-1.4 4.6-.3 1-.8 1.8-1.3 2.6l-2.4 3.3c-.6 1-.8 2-1.4 3-.4.7-1 1.2-1.5 1.8-.7 1-1.2 2.3-2 3.3-.6.8-1.4 1.4-2 2.1-.3.2-.4.6-.6.8l-.6.6-2.3 1.4c-.4.2-.6.6-.9.8l-5.5 4-2.3 2.3-.9.5c-.6.6-1 1.3-1.7 1.8a9 9 0 0 1-2.6 1.3c-1.5.6-3 1-4.6 1.7-1.3.6-2.5 1.4-3.7 2.2-.6.4-1 .9-1.4 1.4 0 0-.1.2 0 .2l.8-.2c1.5-.2 3.2-.3 4.7-.7.7-.1 1.3-.4 2-.7l2.5-1.7.6-.5c1.1-.7 2.4-1.2 3.6-2 .6-.5 1-1.4 1.8-1.8 1-.6 2.2-.9 3.3-1.4 1.3-.7 2.6-1.4 3.7-2.2.8-.6 1.5-1.2 2-2 .8-1 1.3-2.4 2-3.6l1.3-1.9 4.6-4.6.6-.9c.4-.5 1-.8 1.3-1.3l1.6-2.6.7-1.2.7-2c.3-.9.8-1.7 1.2-2.5l1.2-3c.4-1.4.6-2.8 1.1-4.2a19 19 0 0 1 2-3.7c.3-.7 1-1.4 1.4-2.1l.6-1.3a50 50 0 0 0 1.4-4m-152.4 10.7v.5l.1-.4m.2.5-.1.4v.7l.5 1.5 3.1 6.2 2.6 4 .5.4 2.3 3.2 2 3.6.7.7 1.7 1 2.4 2.5 1.1.5 2.2 1.5.8.8c.5.4 1 .6 1.5.8h.3c.1 0 .2-.3.1-.4-.7-1.1-1.7-2.1-2.6-3.3l-2-3-1.1-1c-.9-1.2-1.6-2.5-2.4-3.7l-.8-.8c-1-1.2-1.7-2.5-2.7-3.6-.4-.5-.8-1-1.3-1.3l-2.4-1.8-.6-.6-.4-.8c-.7-.7-1.6-1.3-2.1-2-.7-1-1.1-2.3-1.7-3.4m132 12.2-1.4 1.4-.5.8c-.4.5-.8.9-1.3 1.2-.2.3-.5.4-.8.6l-1.3 1.3-1.1 1.5c-.1 0 0 .3 0 .4l.5-.1 1.4-.8 1.9-2.3.7-.5 2-3m-7.7 7.8h-.5c0 .1-.3.2-.2.4 0 .1.3.1.4 0 .2 0 .3-.2.4-.3m-2.6 1.8h-.4c0 .2.2.2.4.2m-.7 0-.4.1a221 221 0 0 0-8 3.1c-.2.2-.3.6-.6.7-.5.4-1.1.5-1.7.8l-1 .8-1.8.8c-.2 0-.3.3-.5.5-.9.6-1.8 1-2.7 1.7l-1.1 1.1-1 .7-1.1.5c-.6.3-1.3.3-1.9.6-.4.1-.8.6-1.2.7-3.7.7-7.4 1-11 1.7-.9.2-1.6.6-2.5.9l-4.4 1.1-1.5.6-1.4.8c-2.1.8-4.8.7-6.6 2.2-.8.7 2.1.5 3.2.6.8 0 1.7.2 2.5 0 1.7-.4 3.2-1.2 4.8-1.7l2.4-.6 3.5-.6c3-.2 6.2-.1 9.2-.5 1-.1 1.8-.6 2.6-1l.6-.3.9-1.2c.2-.3.7-.4 1-.7l1-1 .2-.4.6-.4c1.3-.8 2.5-1.6 3.8-2.2 1.7-.8 3.5-1.3 5.2-2 .6-.3 1.3-.5 1.9-1 1.4-1.2 2.5-2.7 4-4l3-2 .1-.2m-106 4-.5.1.3.3 2.5 2.5.8.5c1.4 1.3 2.5 2.8 4 4 .6.5 1.5.6 2.3 1l.8.8 1.4.8.5.5c2.5 1 5 1.7 7.4 2.7.6.2 1 .6 1.5.8.7.3 1.5.4 2.3.6l4.6.8c.4.1 1.7.2 1.3 0-1.8-1-3.9-1.8-5.9-2.6l-2.4-.7-2-1.1-2.9-1a64 64 0 0 1-4.8-2.7l-2.8-1.7-3.6-2c-.4-.4-.7-1-1.1-1.2-.9-.6-1.9-.9-2.7-1.4" style="fill:#000;fill-opacity:1;fill-rule:nonzero;stroke:none" transform="matrix(.04413 0 0 -.04413 -2.2 22.3)"/>
  <path d="M178.9 253.4v-.2l-.2.1-.6 2.5-.1 5.3-.4 1.5 1-8.2 1.1-4.6v-.1l.2.2-.2 7.2-1 6.4-1 5.9h-.3l-.2-.8.7-6.3.8-5.3.7-3.1v-1.7l.1-.3-.2 1.3-.1 6.5-.3 3.4-.6 3v-.9l.4-1.4 1-7.5 2.1-18.5.4-13.8v-6.3l.3-15.4.2-1.3v.2l-.1 1.5-.6 2-1 5.2-.9 7.5.7 4.5.1.2v-.2.3l.1-2.1.7-5.7.5-6.4-.1-3.6-.5-2.7v.9l.4.6-.5 1.4.3 2.4" style="fill:none;stroke:#000;stroke-width:3.41314;stroke-linecap:round;stroke-linejoin:round;stroke-miterlimit:10;stroke-dasharray:none;stroke-opacity:1" transform="matrix(.04413 0 0 -.04413 -2.2 22.3)"/>
  <path d="M276.7 180.7c.1 0 .3 0 .4.2.1.2.3.3.3.6l.7 3c.3 1.5.7 3.1.8 4.8v4.4l-.6 4.5v1.2c0 .3.3.4.3.7v1l-.6 3.6-.8 3.3-.6 4.5-1.4 26.3-.7 9.5v1.3l.6 7v2.5c0 .2-.1.4-.3.5-.2.3-.5.4-.8.5h-.6c-.3 0-.7 0-.9-.3-.3-.2-.5-.6-.6-1l-1.2-4.8c0-.2.2-.6 0-.8-.6-.4-1.4-.4-2-.6-.2 0-.3-.3-.4-.2-.3.4-.4 1-.7 1.5-.2.3-.6.4-.9.5a1 1 0 0 1-.7 0c-.3 0-.6-.3-.8-.5-.3-.2-.4-.5-.5-.8v-.4c0-1.4.4-2.9 0-4.2-.3-.6-1.3-.3-1.8-.7-.4-.2-.5-.7-.8-1v-.4a44.8 44.8 0 0 1 2.4-6.3l.4-.3c.6-.3 1.3-.3 1.7-.8.7-.9.8-2 1.4-3 .3-.4.8-.6 1.2-.8h.4c.4.2 1 .4 1.1.8.5 1.6 0 6.6.7 5 1.1-2.3.5-5.2.7-7.8a500.9 500.9 0 0 0 .8-17c0-.3-.3-.6-.3-1v-1.5l1-9.3c.4-2 1-3.8 1.2-5.7.3-1.3.7-2.6.6-4 0-.4-.8-.3-1-.5-.4-.2-.6-.5-.8-.8v-1.6c.2-2 .7-3.8.9-5.7v-2.5c0-.3-.2-.4-.3-.7v-.6c0-.4.3-.8.5-1.2.1-.2.3-.4.6-.5h1" style="fill:#000;fill-opacity:1;fill-rule:nonzero;stroke:none" transform="matrix(.04413 0 0 -.04413 -2.2 22.3)"/>
  <path d="M181.5 208.6v-1l.2-2.1.7-3.2 1-3 .6-2.6.8-4.3v-.7l-.3.6-.7 3.7-1 8-.2.4v-.8l.3-1 .4.2m-11.3-.6-.3.4-.3-.1-4.3-2.3-7.7-3.2-7.4-4.3-4.4-2.4-7.9-4.6-8.5-4.5-7.4-3.4-3.4-1.8-7.3-4.2-2.5-1.2-2.5-1.7-5.3-2.8-2.6-1.6-3.9-2-9-3.3-1.7-.9-2.2-.1-.9.1-.2.4 1.2.7 7 1.4.8-.1h.7l1.7.8 6 2 5.6 2.3 4.9 2.5 2.7 1.2 13.2 7.8 15.2 8.1 6.6 3 2.4.9 6.5 3.2 12.5 4.4 1 .6v.2l-5.4-3.2-5.3-2-1.8-1-5.5-1.2-10.4-3.9-4.4-1.9-9-4.6-1.5-.5-1.6-.7-1.5-1.1-6.2-3.9-3-2-5-2.9-2.3-1-5.7-3.4-3-1.5 1 .8.7.1" style="fill:none;stroke:#000;stroke-width:3.41314;stroke-linecap:round;stroke-linejoin:round;stroke-miterlimit:10;stroke-dasharray:none;stroke-opacity:1" transform="matrix(.04413 0 0 -.04413 -2.2 22.3)"/>
  <path d="m368.6 327.2 8.4 1 3.2.7 1 .4c1 .4 2.1.7 3.1 1.2 1.3.7 2.6 1.4 3.8 2.3.4.2.7.6 1 1a10.8 10.8 0 0 1 1.6 3l.5 2v1.2l-.5 2.7-1 3a168 168 0 0 1-4.3 9.7c-.5 1-1 2.2-1.7 3.2a30.4 30.4 0 0 1-4.4 5c-.2.3-.6.4-.8.6-.7.6-1.3 1.5-2.1 2-3.4 2.6-7 5-10.3 7.5l-2.4 2c-.8.7-1.8 1.2-2.7 1.8-1.3 1-2.5 2.4-4 3.4-4 2.8-8.2 5.5-12.3 8.2l-5.1 3.2c-1.4.8-2.8 1.8-4.3 2.4-.5.2-1.1 0-1.7 0a1 1 0 0 1-.5-.3l-.5-.8c-.1-.4-.2-.9 0-1.3.1-.4.4-.9.8-1.1.7-.4 1.6-.4 2.3-.7l3.6-2a186.8 186.8 0 0 0 7.9-5.1l.5-.5 7.4-4.9c1.4-1 2.6-2.3 4-3.3l2.7-1.8.8-.8a59 59 0 0 1 2.9-2.2l1.7-1.1 3-2.4c1.4-1 3-1.9 4.3-3l2.3-2.3.9-.5 1.3-1.3c.8-1 1.6-2.2 2.2-3.3l1.6-3c1.3-2.9 2.6-5.7 3.7-8.6.6-1.3 1-2.7 1.2-4 .2-.7.1-1.4 0-2 0-.4-.3-.8-.5-1.2-.3-.5-.5-1-1-1.5-.2-.3-.6-.5-1-.7-.7-.5-1.4-1-2.1-1.3a26.4 26.4 0 0 0-6.2-2c-2.7-.4-5.3-.8-8-1-.7-.1-1.4.2-2.1.2l-10.8.7c-1.1 0-2.2.3-3.2.5a221.2 221.2 0 0 0-15.3 3.5l-3.6 1.2-9 2.3c-2.8.7-5.4 1.7-8.1 2.4l-4.3 1c-1.8.6-3.5 1-5.2 1.7l-3 1.4c-1.2.6-2.4 1.2-3.7 1.6l-12 4.3a223.1 223.1 0 0 0-14.8 6.3c-1.7.8-3.3 1.7-5 2.4-4.2 2-8.6 3.6-12.8 5.6-5.9 2.7-11.6 5.6-17.4 8.5l-5.7 3.1-10.8 5.4c-.8.5-3.3 1-2.5 1.5 1.8 1.3 4.3 1 6.5 1.5 2.5.6 4.9 1.5 7.4 2 3 .8 6.2 1.3 9.3 2 1.2.3 2.2 1 3.3 1.2 7.8 2.2 15.6 4 23.4 6.2 1.4.3 2.8 1 4.2 1.4 1.1.4 2.3.5 3.5.8 3.2 1 6.5 2 9.7 3.2 3 1.1 5.6 2.7 8.4 4 5 2.2 10.1 4.2 15.1 6.5 1.5.7 2.9 1.7 4.4 2.4 2 1 4 1.8 6 2.9 1.4.7 2.7 1.7 4 2.4l6.8 3.7c3.9 2.3 7.5 4.8 11.4 7.1l6.7 4 .5.5c2.3 1.5 4.7 2.9 6.8 4.6 1 .7 1.8 1.8 2.8 2.7l.8.5 5 5 .3.1 1.4 2 .8.4 1 1 .6.9c.4.5 1 .8 1.3 1.3.5.6 1 1.3 1.3 2l.3.7.9 8.7v1.9a4 4 0 0 1-.9 1.5L371 471l-2 1-2.9 2-1.3 1.9c-.5.9-.8 1.8-1.4 2.7l-.7.4a27.4 27.4 0 0 1-3.4 1.2l-4 .7-4.5 1.2a105 105 0 0 1-9.5 1.2c-2.2-.3-4.4-.6-6.6-1.2-2.1-.5-4.2-1.5-6.3-2.2-2.1-.7-4.3-1.2-6.4-2a7 7 0 0 1-1.9-.9c-.7-.5-1.4-1-1.8-1.8-.3-.6 0-1.3 0-2l.1-.4a2 2 0 0 1 1-.6h1.3c.8.2 1.6.4 2.4.8.3.2.4.6.5.9v.6c0 .1-.3.2-.2.3l5.3 1.6 6.4 2.3 2.7.7.3-.2h.6c.9.1 1.7.5 2.6.6h2.8c2.3-.3 4.5-.8 6.7-1.2l4.4-1.1 4.2-.9c.5 0 1-.2 1.4-.5.6-.6.8-1.4 1.2-2.1a24 24 0 0 1 1.8-2.5 54 54 0 0 1 3.3-2.3l2-1 .7-.8.2-.5v-1.6a153.7 153.7 0 0 0-1-7.6l-.8-1.2-1.6-1.5-.1-.3-2-1.8-.5-.9-5-5-3-2.5-.9-1a72.5 72.5 0 0 0-7.3-5c-2.5-1.7-5.2-3-7.7-4.6-3.5-2.2-6.8-4.5-10.4-6.6-2.2-1.3-4.5-2.3-6.7-3.6l-4.1-2.5-2.9-1.2c-3-1.6-6-3.3-9-4.7-4.3-2-8.7-3.7-13-5.6-2.8-1.2-5.5-2.8-8.4-4a90 90 0 0 0-8.8-2.8c-1.2-.4-2.4-.5-3.5-.8-1.7-.5-3.4-1.3-5-1.8l-20-5.1-3.4-1c-1.1-.3-2.2-.9-3.3-1.1-3-.8-6.2-1.3-9.3-2-2.7-.7-5.3-1.6-8-2.2-2.6-.6-5.3-.9-8-1.3l-1.6-.4h-.5l-1.3.8-9.2 5.3-5.7 2.9-5.5 2.9-2.4 1.5c-4 2-8 4-11.8 6.1-3 1.6-5.6 3.6-8.5 5.3l-7.7 4.2c-2.4 1.4-4.8 3-7.2 4.3l-8.4 4.6-1.1.8-3.3 1.7c-.6.4-1.2 1-1.9 1.2a80 80 0 0 1-7.2 3.5l-14.7 6.4a47.3 47.3 0 0 0-7.6 4.5l-1.2 1.1-.7.5-1.5 1.4c-1 .9-2.2 1.6-3.3 2.4l-2 1.7-5.6 3.7-2.5 1.9-.9.8-2 1.4c-.5.4-1 .8-1.3 1.3-.6.8-1.2 1.6-1.6 2.5l-2.2 5.4-.6 1.7-.5 3c-.1.6-.2 1.3 0 2 .1.4.7.8 1 1.3l.7 1.4.6.2h2.6c.6 0 1.3-.3 2-.4l16.6-2a80 80 0 0 0 7-1.3c2.5-.8 5-2 7.5-2.8 1.8-.6 3.7-1 5.5-1.7 1.2-.4 2.2-1 3.3-1.4l3.3-1a132 132 0 0 0 12.8-6.2l.1-.5-.2-.3c0-.4-.2-.9 0-1.3.1-.3.4-.6.7-.7.7-.2 1.3-.2 2 0 .3.1.6.5.8.8.2.3.5.6.5.9v1.3c-.1.6-.5 1.2-.8 1.8l-.3.3c-1.4.8-2.9 1.5-4.3 2.4l-1.1.8c-1.4.6-2.9 1-4.3 1.7-1.5.7-3 1.5-4.6 2.1l-3.3 1-3.3 1.5c-1.8.6-3.7 1-5.5 1.7l-6.7 2.5c-1.3.5-2.7 1-4 1.2-4.7.8-9.3 1.3-14 1.8-2.5.4-5 .5-7.5.8l-2.9.5h-1.6l-2.2-.6a1 1 0 0 1-.8-.4c-.9-1-1.6-2.2-2.3-3.4-.4-.6-.6-1.4-.8-2v-1c.2-1.7.4-3.4.8-5.1l.6-1.9a175 175 0 0 1 2.9-6.6l1.3-1.9c.3-.4.5-1 1-1.3 1.4-1.2 3-2.2 4.5-3.3l.8-.8 6.8-4.6 2.6-2 .8-.7 2-1.4 1.5-1.5.8-.5 1-1 2.7-1.8c.2-.1.3-.4.6-.5l4.5-2.3 14.6-6.4 8-3.8 1.7-1.1c1.1-.6 2.3-1.1 3.3-1.8.5-.3 1-.8 1.5-1 .5-.4 1-.5 1.6-.8l4.2-2.3 6.6-4c3.2-1.9 6.6-3.6 10-5.5 2.8-1.7 5.5-3.6 8.4-5.3l4.8-2.6c2.3-1.2 4.7-2.2 7-3.5 2.6-1.4 5.2-3 8-4.4l9-4.8c1.3-.6 2.9-1 3.7-2.2.3-.5-1.1-.4-1.7-.6l-8.7-2.3-15.6-4.7c-2.5-.7-5-1.2-7.6-2-.6-.2-1.2-.6-1.8-.7a200.7 200.7 0 0 0-9.9-1l-13.4-.8c-.9 0-1.8-.2-2.6-.3l-5.3-1c-5-1-9.8-2.3-14.7-3.4a406.6 406.6 0 0 0-16-2.7c-.4 0-.8.2-1.1.3-3.7.4-7.4.8-11 1H94c-.4 0-.6-.3-1-.3-2-.1-4-.2-6 0a28 28 0 0 0-6.6 1.8c-.4.2-1 .4-1.1.8-.3 1-.3 2 0 3 .4 1.8 1.3 3.5 2 5.2l.8 1c.8.6 1.8 1 2.6 1.7l2.7 2.4c.3.3.6.5 1 .6l1.4.5 1 .6 1 1.2 1.3 1a21.2 21.2 0 0 0 6.9 2.9l6.3 1.3c1.1.2 2.3.5 3.4.9 1.5.5 2.9 1.2 4.4 1.8l2.4.8c1.9.8 4 1.3 5.6 2.5.6.4.5 1.4.8 2 .2.5.6.7.7 1.1v.7a3 3 0 0 1-.5.8c-.2.2-.3.5-.6.5-.4.2-.9.2-1.2 0-.7-.3-1-1-1.5-1.4l-.6-.9-.6-.6-3.4-1.5-2.4-.8c-1.5-.6-2.8-1.3-4.3-1.8-2-.7-4-1-6-1.5-1.2-.3-2.3-.3-3.4-.6a25.5 25.5 0 0 1-6.5-2.7c-.8-.4-1.6-.8-2.3-1.4-.6-.4-1-1-1.5-1.4-.7-.5-1.6-.6-2.3-1l-2.1-1.9-.8-.4-.8-.8c-1-.8-2.1-1.3-3-2a8.5 8.5 0 0 1-1.6-2.3c-.6-1-1-2.2-1.4-3.3-.4-1.2-.9-2.4-1-3.6-.2-1.2-.2-2.4 0-3.5 0-.5.5-.8.8-1.2l1-1a11 11 0 0 1 3.2-1.6c1-.3 1.8-.7 2.8-.8 6.2-.4 12.4-.3 18.6-.7l10.2-.9h1l1 .4c5 1 9.9 1.7 14.7 2.7 4.4.9 8.7 2 13 3a72.4 72.4 0 0 0 11.1 1.6c5.2.3 10.5.5 15.7.9 1.5 0 3 .3 4.6.6.6 0 1.3.3 2 .5l1 .5c2.5.8 5 1.4 7.5 2l13.5 4.1c5 1.4 9.9 2.8 14.8 4h1.3c.2 0 .3-.3.4-.4a129 129 0 0 1 4.9-2.6l12-6c2-1 3.8-2.2 5.7-3.2 6-3 12-6 18-8.8 4.2-2 8.6-3.6 12.9-5.5l9-4.4 10.8-4.4 11.9-4.2 3.2-1.3 3.6-1.8 5-1.6c2.3-.6 4.5-1 6.6-1.7 2.7-.7 5.4-1.7 8-2.4l7.9-2c2-.6 4-1.3 6.1-1.8l5.4-1.3 6-1.3 3.4-.5 12.6-1 1.1-.2" style="fill:#000;fill-opacity:1;fill-rule:nonzero;stroke:none" transform="matrix(.04413 0 0 -.04413 -2.2 22.3)"/>
  <path d="m388.8 472.2 1.3 1.5 1 .4-.7-.5-1.4-2.1-1.9-3.6-.7-1-.3-1 4.3 5.4.8.2.5-.2h.8l.9-.4.9.2.2.3-1.5 1.4-4.4 2.2-2.2 1.5h-.6l-.2.6 1.2-.8 1.5-1.6 1-1.5 1.6-2 3.2-3.6.2-.6h-.2l-.4.4-1.5 3-1 3 .2 1.2 1.9 2.8v.3l-1.5-1.6-.5-1m-33.6-69.3v.4l-.1-.5-1.3-2-.5-.7-1.7-1.4-.6-1h.2-.1.1v.2h1.2l4.4 1h1.4l3.8.2.7-.3H364l-1.3-.4-2.2.5-4.5 1.9-1.3 1.3-1 1.6v.6l.6.2h-.2l.7-.8.6-.4 1.2-1.7 4-4.4 1.7-2.3v-.6l-.6 1-.4.9-1.3 4.6v1.6l.3 1.2.5 1.7.6 1h-.4l-.1-.3-.2.1-2-.6M94.8 421.9l-.8-.6-2.5-6-1.3-1.2H90l.3.1.3 1 1.6 2.3 1.6 1.3 1.2.5 2 .5 1.5.3.4-.2 1.6.9h-.3l-.2-.2-2.4-.1h-3.1l-2.4.2-2.8 1.3-1.6 2 .5-1.6 1-1.8 3.1-3.2 1.2-.7 4-1.9h-.4l-.2.4-.2-.3-.5 1.8-1.1 2-2.7 7.2v.7l.5.2.3.4-.2-.2h0v-.4m-5.8-22.2L86 404l-1-1-.9-2.2v-1.4l.2-.1.2.1v.4l1.2 1.6 1 1.7.3-.3 1-.1 1 .1.4.3h.4l.1.1-1 .6-1 .1h-4.7l-.4-.1v-.2.2l.5-.2h1.8l.6-.1.2-.4.2-2 .2-.5.5-.3 1.4.4.8.4.9 1 .2.7-.2 1-.4.7-.5.3-1.3.3h-3v.2l.5-.2 1.4.2m282.9-18.6-.4-.3v-.4l1-.1.9.1 2 1 .3.4v.3l-1 .4-.8-.2-1.1-.1-.4.1-1.3-.5-.7-.8.4.1 1.5.2 1.6-.1.5-.3.2-.3v-.7l-.9-.5-.5.7-.2 1.6v-.3h-.4l-.5-.9-.2-.7v-.8l.4-.7 1.5-1.1 1-.2.6.1-.2.8-1.4 2.3-1.8 2-.8.5h-.1v-.1l1.2.2.3-.2.7.2.2.3.3-.3.2-.8v-.6l-.8-1-.2-.2-.1.3h.2-.5l-.3.3-1.4-.7-2.4-.6v-.3l.1-.4 3.4 2.6.9 1.5v.3l-.1-.1-.2.4.2.2.1-.1.7 1 2 1.4.5.5h-.3l-.2-.3-1.4-.6-.4-.4v-.4" style="fill:none;stroke:#000;stroke-width:3.41314;stroke-linecap:round;stroke-linejoin:round;stroke-miterlimit:10;stroke-dasharray:none;stroke-opacity:1" transform="matrix(.04413 0 0 -.04413 -2.2 22.3)"/>
  <path d="m373.4 320.6 6.6 1 2.8.7 2.4 1.2a20.2 20.2 0 0 1 5.2 4.2l1.9 2.6c.4.6 1 1.3 1.1 2 .2 1.1.2 2.2 0 3.3 0 .6-.5 1.2-.5 1.8 0 .2.2.3.3.5.2.3.5.7.5 1.1.2 1.2.2 2.4 0 3.6 0 .6-.5 1.2-.8 1.8l-.6.9-.8.8-.8 1.4c-.4.6-1.2.9-1.5 1.5-.5 1.2-.6 2.7-1 4-.3.6-.6 1.3-1 1.8-.5.7-1.2 1.1-1.8 1.8l-1.9 2.9-4.9 9-.5.5-2.1 1.2c-.3.1-.4.4-.6.5l-2 1a104.8 104.8 0 0 0-5.7 5.3l-.5 1c-.5.5-1 1.2-1.6 1.6l-2.5 1.3-5.2 2-2 1-3.7 2.2c-.4.2-.6.6-.9.8l-4.5 2.7a8 8 0 0 0-1 .6l-.8.8-2.2 1.3c-1.3.6-2.7 1-4 1.5-.7.2-1.3.6-2 .6-.4 0-.8-.3-1.2-.5a.8.8 0 0 1-.3-.4c-.2-.3-.5-.7-.5-1.1 0-.5.2-.9.5-1.2.3-.4.8-.7 1.2-.9h.6c.2 0 .2.2.3.3h.4l.3-.3h.5c.4-.3.5-.8.9-1 .5-.5 1.1-.7 1.7-1.1l1.1-1.2 1.3-1 4.4-2.8c1.2-.6 2.5-1 3.6-1.7.4-.3.5-.8.8-1.1a21.4 21.4 0 0 1 4.5-3.8c1-.7 2.2-1.2 3.3-1.8l2.5-1.6c.6-.4 1-1 1.5-1.4l.8-.5 2-2 .8-.5 2.3-2.2.5-.9 4.5-4.5c1-1 1.6-2.3 2.4-3.3.3-.5.8-.8 1.1-1.2.4-.5.8-1 1-1.6.7-1.2 1-2.4 1.7-3.6l2.5-4c.4-.8.9-1.5 1-2.3.5-1.5.8-3 1-4.6 0-.5.3-1.1 0-1.6-.7-1.1-2-1.8-2.9-3-.6-.6-1-1.5-1.5-2.3v-.6c-2.2-.6-4.4-.9-6.5-1.5-.3 0-.4-.4-.7-.4-4.8-.4-9.7-.6-14.5-.9h-3c-.9.2-1.8.8-2.7 1-.4 0-.7-.3-1-.3-.8-.1-1.7-.2-2.6 0-4.2 1-8.4 2.4-12.6 3.7l-1.7.8-1.8.6c-1.7.5-3.3.9-5 1.2-1.6.4-3.3.6-5 .9-.7.1-1.4.4-2 .6-3.2 1.1-6.4 2.2-9.5 3.5-.9.3-1.7.8-2.5 1.3-.2 0-.4.3-.5.5l-.8.3c-2.8 1.4-5.7 2.7-8.5 4.2l-3 1.8c-3.2 1.2-6.6 1.9-9.8 3-2 .7-3.7 1.7-5.5 2.4l-3.9 1.3a63 63 0 0 0-6.4 3.3c-2.6 1.5-5 3.3-7.5 5l-2.9 1.5a149.5 149.5 0 0 1-13.2 5.7c-.5.2-1 .2-1.6.5-1 .5-1.7 1.3-2.7 1.8-1.6.9-3.3 1.7-5 2.4-.4.3-1 .3-1.4.5-1.2.7-2.2 1.6-3.4 2.1-1.7.8-3.7 1.3-5.5 2-.2.1-.6.2-.5.4.1.3.6.4 1 .6l5.4 2.4 6.5 2c2.5.6 5.2 1.1 7.7 2a217 217 0 0 1 13 4.7c.4.2.5.7.8.8 1.1.4 2.3.5 3.4.8l3.1 1.2 2.1 1.2 3.3 1 4.2 1.7 1.6.7c1 .4 2 .5 3.1.8l1.8.9 4.1 1.6c1.6.6 3.3 1 5 1.7 1.3.5 2.6 1.3 4 1.8l2.7 1 5.3 1.3c2.2.7 4.5 1.2 6.6 2.2 2.8 1.3 5.1 3.3 7.8 4.7 3.3 1.5 6.7 2.8 10 4 1 .4 2 .5 3 .8l2 .7a64.8 64.8 0 0 1 6.4 3.2c1 .7 1.8 1.6 2.8 2.4l3.1 2.2c1.6.8 3.3 1.4 4.8 2.3l1.9 1.1c.4.3 1 .4 1.5.6.3.2.6.3.8.6 1.2 1 2.5 2 3.6 3.2l1 1.7 1.2 1.2.2.3.8.6 2.6 2.7.9.5.9.9 1 1.6c.3 1 .4 2 .8 3.1 0 .4.3.7.5 1l.4.8.8.8 1.9 2.5.8 2.1v2c-.2.6-.7 1.1-1 1.8l-.5 2.9.2.3c0 .5.1 1 0 1.6 0 .6-.3 1.3-.5 1.8 0 .2-.2.3-.3.4-.7.3-1.4.4-2 .8-.4.1-.8.3-1 .6-.6.6-1.1 1.2-1.6 2-.2.1-.3.4-.5.7-.2.2-.4.5-.7.6-.3.3-.7.5-1.1.6-2.9 1-5.8 1.6-8.7 2.5-.2 0-.3.2-.5.3l-.8.8-.5.2-5.4 1.5-2.4 1c-1 .3-1.8.8-2.6 1.2-.1 0-.3.1-.4 0-1.7-.6-3.3-1.6-5-2.2-1.3-.4-2.6-.5-3.9-.8-.7-.2-1.5-.6-2.3-.7-1.7-.4-3.5-.5-5.3-.8-1.3-.2-2.6-.4-3.8-.8a10 10 0 0 1-2.4-1.2c-.3-.2-.4-.5-.6-.8l-.7-.5-.5-.8v-1c0-.3.2-.6.5-.8.3-.3.7-.5 1.2-.6h.6l1 .7 2 .6c2 .4 4 .6 6 1.2 1 .3 1.7 1 2.7 1.2 1.3.3 2.6.2 3.9 0l1-.2h3c.6 0 1.1.3 1.7.3 3.6-.1 7.2-.3 10.8-.7.4 0 .8-.2 1.1-.5.6-.4 1-1 1.5-1.4a2 2 0 0 1 1-.6c.8-.4 1.7-.5 2.5-.8.6-.2 1.3-.2 1.7-.7.8-1.1 1-2.7 1.7-4 .2-.2.6-.2.9-.5l.5-.8 1-1c.2-.2.2-.4.2-.5l.7-8v-2c-.3-.7-.7-1.4-1.2-2-.3-.5-.8-.7-1-1.2-.5-.6-.7-1.4-1-2.1v-.5c-.4-.4-.9-.6-1.3-.9l-.5-.5-2.3-1c-.3-.2-.3-.4-.6-.5-1.2-.6-2.5-1-3.7-1.5l-1-.8-2.4-1-3.8-2.6c-1.3-1-2.4-2.3-3.7-3.3-.4-.4-1-.5-1.3-.8l-.6-.5-6.1-3c-.6-.3-1-.8-1.5-1.1-.6-.5-1.3-.7-2-1.1-1-.6-1.7-1.4-2.7-1.8-4.6-1.8-9.5-3.1-14.1-4.9-2-.7-3.9-1.8-5.8-2.7-.8-.3-1.7-.4-2.5-.8-.2 0-.3-.4-.5-.5l-5.2-2c-1.5-.6-2.8-1.6-4.3-2-1.6-.6-3.3-.8-4.9-1.2a122.7 122.7 0 0 1-12.8-3.8c-.7-.3-1.3-.7-2-.9l-4.7-1c-1-.3-1.8-.8-2.7-1-1-.4-2-.5-3-.8-4.2-1.3-8.2-2.9-12.4-4-3.6-1.1-7.4-1.8-11-2.8l-1.7-.8-2-.7-5.5-1.8c-1.1-.3-2.3-.4-3.5-.8l-3.3-1.5-4-1-1.7-.9-6.3-2.2c-1.5-.4-3-1.3-4.4-1.1-2.2.2-4.2 1.5-6.3 2.4l-3.4 1.5c-1.3.6-2.6 1.2-3.8 2-.8.5-1.4 1.2-2.1 1.8l-2.3 1.5c-1.2.8-2.6 1.3-3.9 2-1.3.8-2.4 1.8-3.7 2.5l-9 4.3-3.2 1.8c-2 1.3-3.8 2.8-5.9 4l-3 1.6-1.6.5-1 .8c-3 1.6-6.1 3-9 4.6a55 55 0 0 0-4.8 2.8c-.8.5-1.4 1.3-2.1 1.8-.9.5-1.8.7-2.7 1l-.5.6c-1 .6-2.3 1-3.3 1.7-2.1 1.4-4 3-6.2 4.3-1.8 1-3.8 1.7-5.5 2.7-2.8 1.5-5.5 3.3-8.2 5l-2 1c-.8.5-1.3 1.3-2.1 1.8-.5.3-1.2.4-1.7.8-.6.4-1 1-1.5 1.4-1.5 1.1-3.3 1.9-4.9 3-1 .7-1.7 1.7-2.7 2.4-.7.6-1.6.9-2.3 1.5-.4.4-.5 1-.8 1.3a6 6 0 0 1-1 1l-2 1.4-.9.8-1.7 1.1c-.2.2-.5.4-.6.7-.5.7-.6 1.6-1.1 2.3-1.4 1.7-3.1 3-4.6 4.6l-.5.8c-.3.4-1 .6-1.1 1.1-.5 1.2-.5 2.5-.8 3.7 0 .3-.3.6-.4 1v1c.4.7 1.2 1.2 1.7 2 .5 1 .7 2.2 1.4 3.3.2.3.6.5 1 .6.4.3 1 .5 1.5.7l3.7 1.2c.7.2 1.3.5 2 .5l.2-.2h.4l1 .6h2.2c1.4-.3 2.7-1 4.1-1.3 2-.3 4 0 6-.6 2.7-.9 5-2.4 7.5-3.7 2.4-1.3 4.6-2.8 6.9-4 .6-.4 1.4-.5 2-.8l2.3-1c.5-.3 1.1-.4 1.6-.6l7.8-4c1-.6 2-1.4 3.2-2 1.1-.5 2.4-.7 3.5-1.3l4.3-2c.7-.4 1.4-.8 2.2-.9.4 0 .8.3 1.1.5.3.2.4.6.6.9v1.3l-.4.4c-.3.6-.3 1.4-.8 2-.3.5-1 .5-1.4.8l-1.1 1.2c-.9.6-1.9 1-2.7 1.7l-.8.8-1.7 1-1.2 1.2-.8.5-1.4 1.4-1.7 1.1-1.8 1.5-3 1.6-3.2 1.4-2.1 1.2c-2.5 1.1-5 2.4-7.6 3.4a51 51 0 0 1-6.6 2.2c-2.8.8-5.7 1.3-8.5 1.8h-1l-.6-.3H104c-1.5.1-3 .5-4.4.6h-5.1c-.7 0-1.3-.3-2-.6a37 37 0 0 1-2.6-1.1c-.4-.2-1-.4-1.3-.7-.3-.2-.3-.6-.6-.7-1.1-.6-2.5-.6-3.5-1.2a51.4 51.4 0 0 1-2.9-5c-.4-.8-.8-1.5-.9-2.3-.2-.9-.1-1.9 0-2.8l.8-2.3.7-4.2c.2-.7.6-1.3 1-2 1.3-2.2 2.3-4.7 4.2-6.6 1.4-1.5 3.7-1.9 5.4-3 .3-.3.3-.8.5-1.2.4-.5.7-1.1 1.2-1.5 1-.7 2.1-1.1 3-1.8.6-.4 1-1 1.5-1.5l.8-.4 2.2-2.3c.3-.2.4-.6.6-.8a46.8 46.8 0 0 1 4-3.8l4.3-2.3.8-.8 1-.7c1.2-.7 2.5-1.2 3.6-2l.5-.8.9-.9c.6-.5 1.4-.9 2-1.5l1-1.1.8-.5.7-.8c1.6-1 3.1-2 4.8-2.8 1.7-1 3.5-1.6 5.2-2.7 1.6-1 3-2.5 4.6-3.7l1.7-1 1.5-1.5 1-.7 4.7-2.2 3.2-2c2-1 4.1-1.8 6.1-2.9.9-.4 1.7-1 2.5-1.6l2.8-2c1.2-.8 2.6-1.3 4-2 .9-.6 1.7-1.4 2.7-2l9.4-4.6c1.6-.8 3.4-1.3 5-2l2-1.5 3.6-2c1.4-.7 2.8-1.2 4.2-2 .2 0 .3-.3.5-.4.5-.4 1-.8 1.7-1l3-1.3 2-1 1.5-1-.1-.2-2-.7-4.8-1.3-4.2-1.7c-.3 0-.5.3-.7.3-.7-.2-1.3-.8-2-1-1.7-.5-3.6-.7-5.3-1.2-.3 0-.5-.3-.7-.4l-3.7-1.1-4.5-1.7c-1.2-.5-2.4-.8-3.7-1-1.4-.5-3-.7-4.4-1l-1-.5h-1c-.3 0-.4.3-.7.3h-1.6c-1.4-.2-2.9-.3-4.3-.6-1.7-.4-3.4-1-5.2-1.3h-1c-.2 0-.3.3-.6.3h-.6l-3.4-1a194.5 194.5 0 0 0-8-1.5c-.2 0-.4.3-.7.3h-2.8c-2.2-.3-4.3-1-6.5-1.3l-8.1-.9a7 7 0 0 1-2.4-.6c-.4 0-.6-.3-1-.4l-3-.6h-1.5c-.4 0-.7.3-1 .3h-2.8c-1.4-.2-2.8-.7-4.2-1l-.6.1-.6.3a9 9 0 0 1-2 0l-.9-.3-.6.2h-1c-1.3 0-2.5-.4-3.8-.6h-1.6l-1 .4-3.6.6c-.8.1-1.6.2-2.3.6-.8.3-1.5 1-2.2 1.5-.2.2-.4.3-.5.6-.1.5-.2 1 0 1.6.5 1.4 1.3 2.7 2 4l.9.8.4.8 1.5.8 1.2 1 .9.8.7.4c.8.7 1.4 1.5 2.1 2 .8.8 1.8 1.2 2.7 1.8l.8.8a86 86 0 0 0 11 6 47 47 0 0 0 6.3 2.2c1.2.4 2.4.5 3.5.9.8.2 1.4.8 2 1.1l2.7 1c1 .5 1.7 1.1 2.6 1.7l1.4 1.1c.7.4 1.4.5 2 .9.3.1.5.4.6.7.1.5 0 1.1 0 1.6 0 .4-.3.7-.2 1 0 .4.5.6.5 1s-.2 1-.5 1.4c-.2.3-.5.5-.9.6-.8 0-1.7.2-2.5 0-1.3-.4-2.5-1.1-3.7-1.7-.6-.4-1.1-1-1.8-1.2-1-.4-2-.4-3-.7l-5.7-2.3c-2.6-1.2-5-2.5-7.5-3.8l-5.7-3c-.8-.5-1.8-.7-2.6-1.1l-1.2-.9c-1-.6-2-1.2-3-1.6-1.4-.8-3-1.3-4.4-2-.2 0-.2-.3-.3-.5l-.9-.6c-.9-.6-1.8-1.1-2.6-1.8-.6-.4-1.2-1-1.7-1.6l-.6-1c-.4-.7-1-1.5-1.2-2.4a24 24 0 0 1-1.5-5.4 6 6 0 0 1 0-2.2c.2-1.2.7-2.3 1.1-3.4.2-.4.3-.9.6-1.3l3-2.8c.3-.4.8-.6 1.1-.9l.7-1c.4-.5.8-1 1.3-1.3.5-.3 1.2-.3 1.8-.5.3-.2.4-.7.7-.8 2.7-.7 5.5-1 8.2-1.7l1.6-.8c.7-.2 1.4-.5 2.2-.6a23 23 0 0 1 4.1 0c.9.1 1.7.6 2.6.6 1.4 0 2.7-.4 4.1-.6h2.2c.2 0 .4.3.7.3 0 0 .1-.2.3-.2h1.2c.8 0 1.6.5 2.3.5 4.7.4 9.4.1 14 .8 3.6.4 7 1.7 10.4 2.5l4.5.7 4.1 1 5.6 1c1 .3 2.1.8 3.2 1 1 .2 2.2.1 3.2 0l.7-.2c.6 0 1.1.5 1.7.6 1.3.3 2.7.4 4 .8 2.1.4 4.1 1 6.1 1.5l4.6 1.6c2.1.6 4.3 1 6.3 1.7 1.5.4 2.8 1.2 4.2 1.6l.3-.2h.7a201.8 201.8 0 0 1 17.7 5c.3 0 .5.3.8.4l1.8.7 4.4 1.1h1.3l3.7-1.4c2.2-1 4.3-2 6.3-3.2 3-1.7 5.6-3.6 8.5-5.3 1.7-1 3.5-1.7 5.2-2.7 1.5-.8 2.8-1.8 4.3-2.7 1.7-1 3.5-1.7 5.2-2.6l1.2-.9 2.9-1.6 5.7-2.9c1.2-.6 2.4-1.2 3.5-2l8.6-5.3 3-1.5c1.8-.7 3.6-1 5.3-1.7.8-.3 1.4-.8 2-1.2l2.2-.9 10.6-3.6 2-.8 3.2-.8 2.1-.9 8.9-2.8c4.5-1.7 9-3.6 13.6-5 2-.7 4.1-.9 6.1-1.4l2.6-1c1-.4 1.8-1 2.9-1.4a50.8 50.8 0 0 1 12.5-2.5l13.5-.9c1.5-.1 3-.4 4.6-.7l1.5-.3m1.9 3.5h-1.6l-.6.3-3 .6c-4.2.7-8.5 1-12.7 1.8a33.5 33.5 0 0 0-6.8 2c-.7.2-1.5.4-2 .9h.7a123 123 0 0 0 6.2-1.7c.7-.2 1.3-.7 2-.7.5 0 1 .4 1.6.5h1c1-.1 1.8-.7 2.8-.8 1-.2 2.1-.1 3.2 0 1.2 0 2.3.2 3.5.3 4 .2 8.2.2 12.3.6.4 0 .7.5 1 .7l1 .3 6 .8v-.2l-.8-.8-.8-.5-.8-.7c-.4-.3-.8-.7-1.3-.9-1.6-.3-3.3-.3-4.9-.6-.2 0-.3-.3-.5-.3-1.2-.4-2.3-.5-3.4-.8m-34.2 3.6v-.3h-1c-1.2.5-2.4 1-3.5 1.8-.3.2.7.2 1 0m50.5-.2c0 .1-.1.2 0 .2 0 .5.4.8.5 1.2l.5 1.5a7 7 0 0 0 1 1.6c1 1.2 2 2.3 3.2 3.4h.2v-.5c0-.4-.4-.6-.6-1-.3-.7-.4-1.4-.8-2-.4-.8-1.2-1.4-1.7-2.1l-1-1.4c-.2-.4-.6-.6-1-.9m-69.2 5.8h-.4c0 .2.3.2.4.2m-.6 0h-.7l-1.7.8c-3 1-5.9 1.8-8.8 3h1a26.2 26.2 0 0 0 8.2-2.4m-9.4 2.5c-.3 0-.8-.2-.8 0 0 .3.5.2.8.2m1 3.3h-.7a64.7 64.7 0 0 0-9.5 3.3l-3.4 1.6c-.9.4-1.7 1-2.4 1.6h.7c2.4-.7 4.9-1.4 7.2-2.4 1.2-.4 2.3-1.2 3.4-1.8 1.4-.7 2.8-1.2 4.1-2m-10.9-.3h-.4c0 .2.3.2.4.2m-1.3 0-5 2c-.7.2-1.4.2-2 .5-1.3.6-2.5 1.5-3.8 2-.9.4-1.8.5-2.7.8L274 350c-1.2.5-2.4 1.2-3.5 1.9 0 0-.3.2-.2.3.2 0 .5.1.8 0 .4 0 .8-.4 1.2-.6l3.8-1.1 2.3-1.1c1.2-.5 2.5-.7 3.7-1.1l1.6-.6 2.8-1.3 2.5-1.5 2.3-1c.1-.2.5-.3.4-.4m-9.3 8.3.4.1s.1 0 0 0a.8.8 0 0 0-.3-.2m-.3.3h-1l-1.5.6c-.3.1-.8.2-.8.6 0 .2.5.1.7 0m-9.4-.7-.4-.1h-.1l.4.2m8.6.7c-.3 0-.8-.1-.8.1 0 .3.5.2.8.1m-2 .5h-.4c0 .2.3.2.5.2m-1.6 0-5.3 2.1-8.8 4.1c-1.2.6-2.2 1.3-3.3 2l-2.4 1.7-1.4.8-1.1 1.1-1.6 1-2 1-2 .7c-.6.3-1.3.4-1.7 1-.2.2.7.1 1 0 3.6-1.4 7.2-3 10.7-4.6 1.5-.7 3-1.3 4.4-2.2 3-1.8 6-4 9.1-6 1.6-.8 3.3-1.4 4.8-2.2.2-.1.7-.3.5-.4m-160 6.4c0 .3 0 .6-.2.8a2 2 0 0 1-.7.6h-2.5c-2-.1-3.8-.4-5.7-.6a2 2 0 0 0-.7 0l-.6.3H99l-.6-.3h-5c-.2.1-.5.3-.5.5s.3.4.5.4c.6.1 1.1.1 1.6 0l.7-.2c.4 0 .8.4 1.2.5h.7c1.2 0 2.5.2 3.8 0l.6-.2h.6c1.3.2 2.6.7 3.9 1h2.5c.3-.1.6-.4 1-.4h1.6l4.7.9c.3 0 .7.3 1 .4l1.2.3c2.7.4 5.5.5 8.2 1 2 .2 4 .9 6 1.2h3c.3 0 .6-.3 1-.3l8 1.5 3.3 1h.4c.3-.2.6-.6.9-.6 2 .4 4 1.2 6.1 1.6 1.3.3 2.7.4 4 .6h1.3l.6-.3h1.3l2.2.7 3.8.8 3.5 1c1.7.5 3.3 1.2 5 1.8l2.9.7c.9.3 1.7.8 2.5 1 1.3.5 2.6.5 3.9.9l1.9.8 2.7.7 3.5 1.3c2 .6 4 1.3 6.1 1.8 1.5.4 3 1 4.6.8 1.3-.1 3.5-.3 3.7-1.7 0-1.2-2.3-1-3.5-1.5a134 134 0 0 0-16.8-4.6l-.3.2c-1.5-.4-3-1.1-4.5-1.6l-3.2-1-4-1-4.5-1.5a103.9 103.9 0 0 0-9.8-2.2c-2.3-.3-4.7-.4-7-.8l-2.7-.8-7.5-1.4-1.4-.5-6.4-1c-2.7-.7-5.4-1.6-8-2.2l-3.8-.5-.3.2h-.7c-2.5 0-5 .2-7.6 0l-.6-.2m129.2 9.2h-.7a78.7 78.7 0 0 0-16.3 8.4c.2.1.5.2.8 0a23 23 0 0 0 3.7-1.4c1.2-.6 2.2-1.5 3.4-2.1.7-.4 1.4-.4 2-.7a64 64 0 0 0 4.4-2.2l.5-.5m-15.4 7.2.4.1.1-.1a.8.8 0 0 0-.4-.1m-143.1 2.2c0 .1-.2.2-.1.3.2.3.5.6.9.8h.5c0-.3-.3-.4-.5-.6m136.3 3.3c-1.4.5-5.2.3-4.3 1.4 2 2.2 5.4 2.2 8.2 3.1 1 .4 2 .5 3 .8 1.4.5 2.6 1.3 4 1.7 1 .4 2 .4 3.1.7l7.8 2.6 1.5.8 6.3 1.6c1.4.3 2.9.4 4.3.8l9 3c1.2.5 2.6 1 4 1.3l2.3.5c.8.3 1.6.8 2.4 1l3.5 1c.5 0 1.8.1 1.4-.1-1-.8-2.4-1.1-3.6-1.6-1.6-.6-3.3-1-5-1.7l-1.4-.8c-1.7-.8-3.5-1.5-5.3-2.1l-.3.2h-.3c-.7-.2-1.3-.5-1.8-.8-.7-.4-1.3-1.1-2-1.4-4.1-1.6-8.3-3-12.5-4.2-2.1-.7-4.3-1-6.5-1.7l-3.4-1.1c-.9-.2-1.8-.2-2.6-.5-1.5-.6-2.9-1.5-4.3-2.1a24 24 0 0 0-2.5-1m-48.8 14.8-.4.1.4.1m-.7.1-.4.1c0 .2.3.2.4.1m-.6.1h-.4l-8.4 4.3-2 1.5c-1.4.7-2.8 1.2-4 2-1 .6-1.8 1.4-2.8 2.1-.8.6-1.6 1.2-2.6 1.7-2.2 1.1-4.5 2-6.7 3.2-1.6.8-3 2-4.7 2.8l-2.6 1-1.2 1c-.4.3-.8.8-1.2 1-.5.5-1.2.8-1.7 1.2-.2.1-.5.3-.5.5s.3.2.4.2l4.5-3 3-1.3 4.1-2.5c1.2-.7 2.5-1.2 3.8-2 1.3-.6 2.5-1.4 3.8-2.1l6-3.2 1.7-.7c.9-.7 1.6-1.7 2.4-2.4l1-.7 1.5-1c.8-.3 1.6-.5 2.3-1a93 93 0 0 0 4.4-2.5m102 3.4-.3.1c0 .2.2.2.4.1m.6.1-.4.1c0 .2.3.2.4.1m2.3.2c-.6 0-2.1-.4-1.7 0 .7.7 1.9.8 2.9 1.1h.7m.9.1c-.3 0-.7-.1-.7.1 0 .3.4.2.7.1m.6.1-.4.1c0 .2.3.2.4.2m1 0c-.3.1-.8 0-.8.2s.5.1.8 0m.6.2h-.4c0 .2.3.2.4.2m1 .1-.5.1.5.1m21.6 7c-.2.1-.5 0-.5.2s.2.4.4.4c.4.1 1 .3 1 0m.6.1-.4.1c0 .2.3.2.4.1m.7.1-.5.1c0 .2.3.2.5.2m.6 0c-.1.1-.4 0-.4.2 0 .1.3.1.4 0m-174.5 7.2h-.4c0 .2.2.2.4.2m199.9 3.6h-.4c0 .2.2.2.4.2m.6 0c-.1.1-.4 0-.4.2s.2.3.4.4h.3c.1 0 0-.2 0-.2m.7.3-.5.1c0 .2.3.2.5.1m-208.8-.2h-.4l-.7.4c-1.5.9-3 1.6-4.4 2.6-.2.2.5.2.7.1.8-.3 1.4-.7 2.1-1.1a48.3 48.3 0 0 0 2.8-1.9m209.3.2-.4.1c0 .2.3.2.4.1m10.5 6.8-.4.1c0 .2.2.2.4.1m.6 0-.4.2v.2l2 1.4 2.8 1.4.5-.1a2 2 0 0 0-.9-.9l-2.3-1c-.5-.4-.9-.8-1.4-1m18.7 21.5-.1.4c0 1-.5 2.2 0 3 .4.5.6-1.1.9-1.7v-.7m-1.3 5.7-.8 1.6c-.4.4-1 .7-1.3 1.1v.3h.6l.5-.6c.4-.2.9-.2 1-.6m-235.2 5.7h-1l-4.6 2.1-2 1c-1.2.7-2.5 1.4-3.6 2.2-.2.2.5.2.7 0 1.3-.5 2.3-1.3 3.6-1.9 1.8-.8 3.7-1.2 5.5-2l1.7-1v-.3" style="fill:#000;fill-opacity:1;fill-rule:nonzero;stroke:none" transform="matrix(.04413 0 0 -.04413 -2.2 22.3)"/>
  <path d="m304.6 305 .8.9.8.5 1.4.3.2.4.2-.4v-.4l-1.3-.3-.8-1-.6-.9-1.1-4-.9-1.4-.7-.5-3.8-4.5-1.4-1.2-1.2-2.7-1.8-3.5-1.7-2.8-1.3-1.6v.2l.1-.2.5 1.3.7.7.7 1.3 3.2 3 1.2 2.2.3 1.5 1.7 2.5 1.9 1.5.8.9-.3.8.6 1.7 2.7 3 1 2.2.5.7-.1.4-.2-.7.1.5v-.2h.2l.5-1.3.2.6.3-.3.9-.2v-.6l-.2.2 1 .4v.4l.5-.3h-.3l-1.3-2-.6-2.8h-.2l-.8-1.7-3.2-4.6-1.7-3.5-.6-.7-.5-.3-1.2-2-1.6-1.5v-.1.3l-.4-.1-.2.4h.2l.3.9.9 1.4 2 4.5 1 1.4 2 3.2 1 4.2 1 2.2.7.8.4.3.5.8.2 1.3.2.4v-.6l-.2-.3-.8-2.8-.9-2.2-1.8-3-.8-2-.4-.8h-.2l-.5-1.5-1.5-2.1-1.5-1.7M148 339.1l-.9-1.4.5-.1.1.2.2-.1.4-1.1.2-1.6-.5-13.2.2-4.4.4-2 .3-.5v.2l-.4.7-.2 3.7-.1 9 .3 6.2-.2 1.5v-.3h0v.9-1.2l-.4-1.9-.2-1.9.1-3.1-.1-1.3.3-5.3V316l.4-2.4v-2l.8-3.3.5-1.3h.2l.4-2 .6-2 1.9-2.8 1.2-2.8.2-.3.2.1.4-1.2.6-1 .5-.5-.7 1.5-.3 1.7-.8 2-.4 2.1-1.6 4-.6 5.2-.1 2.4-.4 1.7v-.2l-.4.1-.5 1.5-.4 2 .1 1.4.3 1 .3.4v-.9l.3-.6.4-2.4 2.7-6.6 2.7-9.2.8-1.6.3-1.2 1-1.4 2.2-5.9 2-3.8 2.9-6.2.7-1.2 1-1.1 1.5-1.4 1.2-1.8 1.2-.8 2.9-4.2" style="fill:none;stroke:#000;stroke-width:3.43691;stroke-linecap:round;stroke-linejoin:round;stroke-miterlimit:10;stroke-dasharray:none;stroke-opacity:1" transform="matrix(.04413 0 0 -.04413 -2.2 22.3)"/>
  <path d="m155.6 300.8.5.1c.2.1.5.2.6.5.2.6.2 1.2 0 1.8-.6 3.6-1.6 7-2.3 10.7l-1 7.8-.8 9.7v12.4l.3.6c.1 3.4.2 6.8 0 10.2-.4 7-1.5 14-1.9 21a169.6 169.6 0 0 0 1 24.9 216 216 0 0 0 2.5 15.8c.2 1.3.7 2.6 1.2 3.9l.8 1.4c1 2.4 1.9 4.7 2.6 7.1.8 2.3 1.2 4.7 2 7a30.5 30.5 0 0 0 4.4 9.2l1.2 1.5c1 1.5 1.7 3 2.7 4.6l2.7 4c.5.7.8 1.6 1.4 2.3 1.2 1.4 2.7 2.6 4.1 3.8l.8.5c1 .9 1.7 1.9 2.7 2.7 1.5 1.2 3.1 2.1 4.6 3.3l2.2 2.3.5.8.9.5 2 2 .8.5 1.7 1.7a47.2 47.2 0 0 0 4.8 3.5l3.9 2c.6.4 1.1.9 1.8 1.2l4.1 1.6 4.7 1.6a566.3 566.3 0 0 0 21.5 5l4.5.5h.6c1.8-.2 3.5-.5 5.2-.9.5 0 1-.3 1.4-.5l1.9-1c.5-.3.8-.8 1.2-1.2.1 0 .3 0 .4-.2l.8-1.6c0-.2.2-.3.4-.4l.5-.1h.6l.7.7c.1.1 0 .3 0 .4 0 .4-.2.8-.4 1.1l-.8 1.3c-.5.6-1.2 1.1-1.8 1.6l-1 .7c-1.4.6-4.5.3-4.3 1.8.2 1.6 3.1.7 4.7 1.1l2.2.7c.2 0 .4.3.5.5v.9c0 .2-.3.2-.5.3l-3 .9h-4.2c-3.6-.3-7-.7-10.6-1.2A40.1 40.1 0 0 1 223 493c-3.7-1.5-7.5-2.9-11.1-4.5-2-.9-3.9-2.1-5.9-3-1.5-.7-3.1-1-4.6-1.7-.4-.3-.4-.9-.8-1.2-.8-.6-1.8-.8-2.7-1.4-1.4-.9-2.8-1.8-4-2.8-.7-.5-1.2-1.3-1.9-1.8-.7-.6-1.7-1.1-2.4-1.8-2-1.9-3.8-4-5.8-5.8-1-.8-2-1.3-3-2l-1.1-1.2-.8-.4-2.7-2.8-.9-.5-1.4-1.4-.8-.5-.8-.8-.5-.9-.9-.8-1-2-.5-.5-4.3-7.1-1.3-2-.5-.4a112 112 0 0 1-4-8.2c-1-2.8-1.5-5.6-2.4-8.4-.6-2-1.5-4-2.3-6.1l-1.1-2.4c-.5-1-.7-2.2-1.1-3.3l-.1-.3c-.4-.2-1-.3-1.4-.6a.5.5 0 0 1-.3-.2l-.9-3a274.2 274.2 0 0 1-2.6-15.9c-.5-4.7-1-9.4-1.1-14-.1-4.2.3-8.4.6-12.6l.7-9.5c.2-4 .2-8 .5-12 .4-5.2 1-10.4 1.3-15.6.4-5.1.4-10.2.7-15.3 0-.4.1-.9.3-1.3l.8-.5c.2 0 .7.5.8.2.8-2.9 1.1-6 1.8-8.9l1.3-5.8c.1-.4.4-.7.6-1m-5.5 48.5-.1.7a37 37 0 0 0 .1 3.6c.2-.1.2-.4.2-.7v-3.2m-1.4 40.9-.1.4s0 .1 0 0l.2-.3m.2 3-.2.5c0 .1 0 .4.2.4l.1-.4m74.8 96.3-.5.1c0 .2.3.2.5.1m1.6.1c-.4 0-1-.3-1 0-.2.3.5.3.8.4l2.4 1a38.8 38.8 0 0 0 9.5 1.7c.7.1 2.8.5 2.3 0-.8-.9-2.2-.8-3.2-1l-7.8-1.3m12.2 2.4-.4.1c0 .2.2.1.4.1" style="fill:#000;fill-opacity:1;fill-rule:nonzero;stroke:none" transform="matrix(.04413 0 0 -.04413 -2.2 22.3)"/>
  <path d="m151.4 308.1-.6.6v-.3h.1l.4-.2 1-1.7 3.5-4.6 4.2-4.3 1.7-2.1 3.4-4 5.4-8 3.6-5.2 2.2-2.5 9.2-8.7 6-6 4.2-5 2.7-3.2.9-.7 6-7.6.5-.6 2.3-3 .7-1.3.2-.6-1 .9-.5.8-2.2 1.8-3.4 3.2-6.4 6.4-2.4 2.8-2.7 3.6-3.8 6.5-4.2 6.5-4.3 6-1 1.6-2.6 3.2-5.3 7.3-3.9 6-2.3 3.9-2 3.9-1.1 2.7-.8 2.5-.2 1.1.2-.1h0l.3-.7 1-1.7 3-5.5 1.8-3.2 2.7-4.2 5.6-7.8 7.5-8.7 6.6-7.5 6.3-8.3 3-4.4 3.1-4 2.6-3.2 3.7-4 .4-.4 1.3-1.3 2-2.4.3-.7.2-1" style="fill:none;stroke:#000;stroke-width:2.18683;stroke-linecap:round;stroke-linejoin:round;stroke-miterlimit:10;stroke-dasharray:none;stroke-opacity:1" transform="matrix(.04413 0 0 -.04413 -2.2 22.3)"/>
  <path d="m165.6 288 .6.9v.3c-.3.4-.8.6-1 1-.6 1.3-1 2.7-1.4 4v.6l.8 1v.4a45.6 45.6 0 0 1-1.7 4.3l-.8 1.2c-.9 1.6-1.6 3.2-2.3 4.8a184.6 184.6 0 0 0-5 12.6l-1 3.6c-.2 1.1-.5 2.2-.5 3.3v4.2c0 .3.3.6.3 1a125 125 0 0 1-1.1 22.5l-1 4-.9 5c-.5 4-1.1 7.7-1.5 11.6 0 1.1-1 3.1.1 3.5 1 .4.5-2.2.8-3.2l.6-1.5c.2-.3.6-.6 1-.5.3 0 .7.3 1 .7v1l-.6.9v.3c0 1.3-.2 2.6 0 3.8.5 4.3 1.4 8.5 2 12.7.4 2.7.8 5.4 1 8 .5 8.6.7 17.3 1.1 25.9l.2.5 1.5 4.1 2 6.4 2.2 6.5 2.5 5.5c.7 1.7 1.2 3.6 2 5.2 1.7 3.7 3.5 7.3 5.4 10.8.4.8 1 1.5 1.6 2.2.3.5.8.8 1.1 1.2l.5.8 2.3 1.7c.5.3.8.8 1.2 1.1l1.7 1.1 2 1.8c.5.3 1 .4 1.5.8l2 1.7c.7.5 1.3 1 2 1.3a160.9 160.9 0 0 0 12.7 6c1.3.5 2.5 1 3.8 1.3l8 2.3 3 1c1 .4 2 1 3.1 1.3.3 0 .9.2.8 0-.2-.4-.7-.5-1.1-.7l-3.4-1.4-3-1.4c-1.7-.8-3.5-1.3-5.2-2l-2.2-1.3-3.4-1.5-3.5-2.2-2-1-2.2-1.7c-.3-.2-.5-.6-.9-.8l-2-1.4c-1.3-1-2.4-2.3-3.7-3.4-1.1-1-2.4-1.7-3.6-2.6l-2.9-3-.5-.8-1.4-1.3a40 40 0 0 1-2.7-4.4.7.7 0 0 1 0-.6l.8-.8h.6c.2 0 .4 0 .5.2l1 1.2c3 3.2 6.3 6.3 9.5 9.5l.5 1c.3.2.6.2.9.5.6.5 1 1.1 1.7 1.6.2.3.6.4.8.6.5.4.9 1 1.4 1.3.5.5 1.1.7 1.7 1.1 1 .7 1.7 1.5 2.7 2.1 2.4 1.5 4.8 3 7.3 4.2 3.2 1.4 6.5 2.7 9.8 3.8 3.4 1 6.8 1.7 10.2 2.5 1.6.4 3.2.8 4.8 1 4 .4 8.2 1 12.2.8a177 177 0 0 0 19.7-2.4c4.4-.7 8.7-1.9 13-2.9 1-.2 1.9-.6 2.8-1l4.2-1.7c1-.4 2.2-.5 3.2-.8a44.2 44.2 0 0 0 8.5-4.1l.8-.8 3.7-2.8c1.5-1.3 2.9-2.8 4.3-4.3l.5-.8 1.4-1.4s.2 0 .3-.2c.7-.7 1.4-1.3 2-2.1a25 25 0 0 0 2.5-4.1c.8-1.7 1.4-3.5 2-5.2a429.4 429.4 0 0 0 4.4-13.5l.7-3.7 1.3-10.6c.5-4 1.4-8 1.8-12.2.8-8.8 1.3-17.6 1.8-26.5 0-.1 0-.3-.2-.4l-.5-.6-.6-1.8c-.3-1.4-.6-2.8-.7-4.3l-1.3-18.1c-.6-6-1.6-11.9-2-17.8-.5-5.3-.4-10.6-1-15.8 0-1.6-.8-3.1-1.1-4.7l-1.4-6.5c-.2-1.3-.5-2.5-.9-3.7-.8-3.1-1.6-6.3-2.6-9.3-.6-2-1.4-3.9-2.2-5.7-.4-.9-1-1.6-1.5-2.5-.8-1.4-1.5-2.8-2-4.2-.2-.6-.1-1.1 0-1.7v-.4c.3-.3.7-.7 1-.6.5 0 1 .4 1.2.8.5 1.1.4 2.4.9 3.5.7 1.7 1.9 3.2 2.7 4.8l1.3 3.2 1.2 3.7c.9 3.2 1.4 6.5 2.6 9.5.4 1 .2-1.9.1-2.9 0-.3-.3-.6-.3-1v-6c0-.2.3-.3.5-.4h1l.2.2c.3 2 .4 3.9.9 5.8l.4-.3c.4.1.7.3 1 .6.4.8.6 1.7.8 2.6l.4 2.1 1.4 10c.5 3.8 1.3 7.4 1.8 11a487.3 487.3 0 0 1 3.7 51.9v9.8c0 1.2-.3 2.4-.4 3.5l-.9 25.4.3.6v1c0 .2 0 .3-.2.5 0 0-.1.2-.3.2H323c-.1 0-.2 0-.3-.2l-.6-2a67.7 67.7 0 0 1-.6-7l.6-9.9c.1-1 .4-2.1.4-3.2 0-2.8.3-11 0-8.3-1 6-.9 12-1.5 18-.3 3.1-1 6.2-1.5 9.3l-1.6 12.7a33 33 0 0 1-1.6 6.3 410.2 410.2 0 0 1-5.4 14.8 26.3 26.3 0 0 1-3.2 5.2c-1 1.2-2.3 2.2-3.4 3.4l-.5.8a76.6 76.6 0 0 1-3.8 3.7c-.2.3-.6.4-.8.6l-1.7 1.7-1.4.7-1.8 1.5a25.5 25.5 0 0 1-3.1 1.9l-6 2.5c-1 .3-2 .4-3 .8-1.9.6-3.6 1.6-5.4 2.2-2.4.7-4.9 1.2-7.3 1.7l-7.8 1.7c-2 .4-4.2.6-6.4.9l-10.8 1.1c-.8.1-1.6.4-2.5.4a189.6 189.6 0 0 1-15.7-1.4c-.5-.1-.9-.4-1.4-.4-.3 0-.7-.2-1 0a26.7 26.7 0 0 0 3 1.3l6.6 2 .9.5c1.7.4 3.4.6 5 1.1.3.1.4.4.5.6v.3l-.5 1-.5.1h-2c-2.9-.4-5.8-1-8.7-1.6-1.2-.2-2.3-.7-3.5-1l-4.8-1c-3-1-5.8-2.3-8.8-3.2-3.6-1.2-7.2-2-10.8-3.2a162 162 0 0 1-11.7-5.4l-3-1.6c-.8-.7-1.5-1.5-2.4-2.1-1-.8-2.2-1.3-3.2-2l-1.2-1.2-1.7-1-1.5-1.5-.7-.5-1.7-1.7-.6-.5-.4-.8-1.2-1.1-1-1.7-2.2-4.4-1-1.6c-.8-1.8-1.7-3.5-2.4-5.3-.8-1.8-1.3-3.5-2-5.3-.8-1.8-1.8-3.6-2.5-5.5-1.3-3.5-2-7.1-3.6-10.4-.2-.5-.5.8-.9 1-.1.2-.4.1-.6 0-.2 0-.5-.2-.6-.5-.8-4.3-1.2-8.8-2-13.2l-2.4-11.4-1-5.4-.8-11.5c-.3-3.6-.8-7.1-1-10.7v-7.4l.9-7a175.5 175.5 0 0 1 2-11.7c.1-.9.5-1.7.6-2.6a172.9 172.9 0 0 0 1-22.4c-.1-.2-.3-.5-.5-.4-.3.2-.4.8-.8 1.1H149a1 1 0 0 1-.5-.4v-1.9c.3-1.6.8-3.1 1-4.7l1-7a30.8 30.8 0 0 1 1.4-4.7c1.2-2.5 2.4-4.9 3.7-7.2l3.2-5.5a85 85 0 0 0 3.1-6.5l1.4-4.3.7-.7.8-.5m-10.1 23.9-.1.4s0 .1 0 0c.2 0 .2-.2.2-.4m-.4.6-.6 1-.5 1.6v1c.6-.8.9-1.9 1.2-2.9m-1.4 3.1-.1.4.1.4.1-.4m-.4.9-.1.4s0 .1 0 0c.2 0 .2-.2.2-.3m163.8 1.5c0 .3-.1.8.1.8.3 0 .2-.5.1-.8m5.7 56.1-.2.8v1.5c0 .2 0 .6.1.5.2-.2.2-.5.2-.8v-1.6m-171.3 15v1.8c.3 5.6.6 11.2 1.1 16.8a59 59 0 0 0 1 7.1 422.7 422.7 0 0 0-.8-16.6c-.2-2.5-.6-5-1-7.6m71.9 97.7c-.3 0-.8-.2-.8 0 0 .3.5.2.8.2m-3.9.7-.4.1c0 .2.3.2.4.1" style="fill:#000;fill-opacity:1;fill-rule:nonzero;stroke:none" transform="matrix(.04413 0 0 -.04413 -2.2 22.3)"/>
  <path d="m314.2 306.5-.3-.8h-.2l-.2-.7-1.3-2.4-2.4-3.2-3.6-3.7-1-1.1-2.8-2.6-3.3-3.5-4-4.1-4.4-4.9-6.8-7.3-1.5-1.7-3.5-3.8-1.6-1.1-4.9-5.5-7.6-8-3.8-3.2-4.4-4.1-.6-.3-7-5-1.6-1.1-1.8-.9h-.4l-.5-.2h-.1l.8.4h.2l1.5 1.7 1.2 1 .7.3 3.2 3 7.6 6.1 14.2 10.9 1.6 1.6 3.9 3.3 1.7 1.3 15.6 13.5 8.7 8 2.4 2.5 2.6 3 .2.6v.8l-.2-.3-.7-.8-1.4-2.2-2.9-3.7-5.8-6.5-2.2-2.3-.5-.5-.4-.1-.4-.3-.9-1.2-4.4-4.6-3.4-3-3.1-3-2.4-2.1-3.8-3.9-6.6-5.8-1-1-2.6-2-6.6-4.4-1.5-1.2-.6-.7-1.6-.8h-.5l-.1-.3-.9-.5-.1-.2v-.2l.4.5.6.5 2.6 3.3 2 2.4 2.7 2.8 1 1.3.5.3 2 2 1.2 1 2.3 2.3 3.7 3.9 1.2 1.5 3.1 3.3 1.4 1.2 4.4 5.2 2.4 2.5 1.2 1 2.9 3.4 1.1 1.5 3 3.5 1.9 1.7 2.7 2.4.4.4.4.4h.3l1.8 1.1h.1v-.1l-.6-.5-.5-1.3-.8-1.5-1.7-2.7-2.7-2.7-2-2.5-1.7-1.7-3.4-3.3-1.4-1.5-2-1.6-1-.7-.4-.6-2.7-2.3-3.3-3.3-3.8-3.3-4.9-4.9-3.2-2.8-3.8-3-3.5-2.4-1-.5-.6-.5-1.7-1-1-.9-2.4-1.3-1-.3-1.4-1-6.8-3.7-1-.8-5.6-3-1.7-.5h-.8l-2.3-.7-1.5-.4-1.7-.3-2-.2-1-.2-.5-.2h-1.3 0v-.1h.2v.3l.4-.4.7.3 2.3.1.5.3.1.4h.2l-.2.1h-.2l-.7.8-.9.5-.2-.1h-.3l-.2.3-1.5.6-1.9.2-.8-.1h-.8l-6.8-.3h-3.5l-1-.2-2.7.9-2.2 1.2-1.7.6-1.3 1.2-.1-.1h.4l.9-.2.9-.6.6-.6 2-1.3.9-.4 2.8-2 1.4-.7.9-.3 2.6-.6.8.2.5-.2 2.1-.2 3.1.2.8.3v.2h-.4l-.4.5h-.1l-.7.5h-.2l-1.7 1.9h-.3l-1 .6-.2.3-1.9.5-5.3 1.2h-.8l-1 .5-2.1 1.4-1.8 1.5-.5.2h-.1v.2h0l.3-.3h.1l2-1.2 2.3-2 1.3-1.3 2.2-1.7.2-.3 1.5-.9 2-.6.8-.4.4-.4.9-.3.2.3.3-.5h-.2 0-.3l-.2.2-.8.3-.3-.2h-.2l-.3.2-1.5.4-.8.5h-.3l-2 .3-2.7 1-1.6.7-.8 1h-.4l-1.1.6-1.6 1.3-3.5 4-2.6 2.8-3 2-.5.1-1.6 1.9-1.5 2.2-.3.3-.6 1.1-.2.6-.7 1.6h-.1l-.1-.2 1.5-2.9.2-.1 2.1-3.3 1-1 1.7-2.6 1.8-1.8.7-.5 1.2-1.2 3-2.1 1-.6.5-.7 2.3-1.2 1.3-1 .7-1h.3l1.3-.8.7-.4 1-.8 1.1-.6 1-.8 1.8-1 1.6-.6 4.4-1.1.7-.4 2.6-.2 2.6-.3 3.6-.8.7.1.7-.3 1.7-.3h1.6l2.6.4 3.5 1.3.7.1 1.4.9.6.5 1.3.4h.3l.7.3h0v.2l-.4-.6h-.6l-3-.2-2.3-.3h-1.6l-1 .2-.4-.2-2-.2-1-.4h-.6l-1.5-.1h-1l-3.3-.2-1.7.1-.8-.1-4 .8h-.7l-.7-.3h.3l.1-.3.7.2 1.1-.2 2.1.2 1.4-.2 4.8.2h.7l4 1.2h.7l1.5.6h.8l2 .7.7.4h.4l1 .4h.5l.6.3.8.3.5.5h.2l1.3.5-.1-.1h-.4l-.6-.3-1.3-.3-1.8-.7-1.8-1-1.6-.3h-.6l-.3-.1-1.5-.2-2-.6-1.6-1-.6-.6v-.2l.3.5h.5l.8.3 2.5 1.7 2.7 2.2 7.8 5.1 3.7 2.6 2.2 1.4 1 .4 5 3.6 1 .5 2 1.6 1 .6 2.3 1.7.9 1 2.7 1.6 2.2 1.6.8.9h.4l1.5.8.7.2 2.5 1.4.6.6.5.2h0l-.2-.2-.6-.2-1.3-.6-3.6-2.5-.9-.3-3.4-2.6-3.6-2.2-3.7-2.6-1.7-1.4-2.5-1.7-2.1-2-1-1.1-1.9-1.5-.8-.4-3-2.9-1.2-.8.4.4 1.7 1.4.4.3.4.7 1.8 1.5 1.2 1.2.7.5 1.6 1.5.8 1 2.3 2.1 1 .6.6.6 2.4 2 1.1 1.2 2.2 2 1 .7 1.2 1 1.6 1.4 3 2.8 1 1.3 5 4.7 1.5 2 .6.4 2.3 2.3 1.2 1 4.5 5 3.3 3.2 2.3 2.7 2.4 3.1 1.2 2 3.3 5.7 1.6 2.1 2.5 4.1 2.4 3 2.7 4.1 2 3.3 1 2.8.5.7.8 2 .1.6.4.8v.8l-.1-.7-2-3.7-1.2-2-.6-1.3-1.8-2.6-.8-1-6.1-9-8-9-3.7-4.9-3-5.2-1.4-3.2-1.7-3.5.3.5.2.1h.3l.4.6 2 2.7 1.8 3 1.5 2.3 2.3 4 1.7 2.7.7 1.5.4.4 2 3.2 2 4 3 4.4 2.2 4.4 1 2.4 3 6 2 3.8 2.2 4.6 1.5 4.6 1.7 7.3.6 4.3.9 11.3-.2 1.4h-.2 0l.3.1h.1l.3.3" style="fill:none;stroke:#000;stroke-width:2.18683;stroke-linecap:round;stroke-linejoin:round;stroke-miterlimit:10;stroke-dasharray:none;stroke-opacity:1" transform="matrix(.04413 0 0 -.04413 -2.2 22.3)"/>
  <path d="m159.3 298.7.3.4v2.2c0 .2-.3.2-.4.4l-.7 2c-.3 1-.7 2-.8 3.1-.5 4.2-.5 8.4-1.2 12.6-.7 4.8-2 9.6-3 14.5-.3 1.3-.5 2.7-.6 4l-1 8.2c0 .3 0 .6-.2.8-.3.3-1 0-1 .5-.7 3.2-.7 6.5-1 9.7v5.1c0 .3.4.6.3 1 0 .3-.4.6-.7.7h-1a1 1 0 0 1-.5-.5 4 4 0 0 1-.5-1.8 66 66 0 0 1 0-6.7l.2-1v-2.8c0-.8-.3-3.2-.5-2.4-.7 3.4-.9 7-1.2 10.4-.4 5.5-.9 11-1.1 16.4-.2 3.7-.1 7.4 0 11.1 0 2 .3 3.9.6 5.8l1.4 7c.7 3.4 1 6.9 1.8 10.2.4 2.3 1.1 4.6 1.8 6.8.6 2.1 1.2 4.3 2 6.4a40 40 0 0 0 2 5.2c.9 1.7 2 3.2 2.9 4.7.6 1.1 1 2.3 1.7 3.3l.5.6 1.9 2.8c.6 1 1 2 1.7 3 .6 1 1.4 1.8 2 2.7l3.7 5.5c.6 1 1.3 1.9 2 2.7 1.6 1.7 3.2 3.3 5 4.9.2.3.6.4.9.6l.8 1.1c1 1.2 2.2 2.4 3.4 3.5l.8.5 1 1.3.9.5 1.7 1.8.8.4 3 3 .9.6 2 2 .9.6.7.7 3.6 2.3c.3.2.3.7.5.9a96.4 96.4 0 0 0 9.2 6.3l3.2 1.6 1.6.6c3.3 1.2 6.5 2.5 9.9 3.6a99.5 99.5 0 0 0 11.5 2.6c2.2.2 4.3.2 6.4 0 2.3 0 4.6-.5 6.8-.8 1.8-.3 3.5-.5 5.2-1 1.3-.3 2.4-1 3.6-1.4l7.8-2.4 3-1.1 4-1a128.7 128.7 0 0 0 9.7-4.1l1.7-1 2.7-2.4 2-1.4 1.5-1.5.9-.5c.6-.6 1-1.2 1.7-1.7l.8-.6 1-1c.3-.2.6-.2.8-.5l.5-.7c1-1.2 2.3-2.3 3.4-3.4l1-1.3 1.8-2.8 1-2 2.3-6.7 1.3-3.2c1.4-3 3-5.8 4.3-8.7.8-1.8 1.4-3.7 2-5.5.3-1.1.7-2.2.9-3.4a540 540 0 0 0 2.9-21.8 236.2 236.2 0 0 0 1-23.2c-.1-5.2-.6-10.4-.9-15.6v-4.4l.6-6.8.6-5.3.7-4v-.3l.8-.5h.4l.5.3.4.6c.1.2.4.5.4.8.2.8.2 1.7 0 2.5-.2 2.2-.7 4.3-1 6.5-.3 2.5-.7 5-.8 7.5l.3 3.9 1.8 36.3c.3 6 .8 11.9 1 17.8.1 1.6.2 3.2 0 4.8 0 .9-.3 1.8-.6 2.6l-.6.9-.5.1-.5-.1-.4-.4a2 2 0 0 1-.2-.7c-.7-4.7 2.5-12.4-1.9-14-4-1.4-1.1 8.4-1.8 12.6a51.9 51.9 0 0 1-2.8 9l-4.4 8.8-1.3 3.2c-.8 2.2-1.4 4.5-2.3 6.8a48 48 0 0 1-3.5 6l-.8.8-.5.8c-1 1.2-2.3 2.3-3.4 3.4 0 .1 0 .3-.2.4l-1.8 1.6-.8.5-1.4 1.4-.8.5-1.4 1.4c-1.2 1-2.5 1.8-3.7 2.7l-1.4 1.4a47.7 47.7 0 0 1-5.4 2.9c-2.4 1-4.8 2-7.2 2.8-1 .4-2.2.5-3.2.8l-3.8 1.4-6.9 2.1-3.2 1.4c-1 .4-2.1.5-3.2.7-3.5.6-7 1.2-10.5 1.5a41 41 0 0 1-19.3-3l-4.5-1.8-3.3-1-2.6-1-4.5-2.3-6.6-4.5-1.3-1-1.8-1.7-1.7-1-.5-.6-1.4-.7-1.2-1.2-.4-.2-.5-.7c-.2-.2-.6-.3-.8-.6l-1.4-1.3-.8-.5c-1-.8-1.8-1.8-2.7-2.7l-.8-.4-4.3-4.4-.8-.5-3-3.3c-.5-.5-1-.7-1.5-1.1a77 77 0 0 1-3.6-3.7c-.3-.2-.3-.6-.6-.8-.4-.6-1-1-1.4-1.5l-1-1.3-3.1-4.7-.8-1.4c-.2-.3-.6-.5-.8-.9l-2-2.8c-.5-1-1-2-1.7-3 0-.2-.3-.3-.5-.5l-1.2-2-2.4-4.2-2-3.3c-.5-1-1-1.9-1.3-2.8l-1.4-4c-.6-2-1.3-3.9-1.8-5.9l-2-7.5-1.6-9.8-1.4-7.2a120.8 120.8 0 0 1-.6-16c.2-5.7.7-11.4 1.1-17.1.4-4.4 1.2-8.7 1.4-13 .2-3.6.1-7 0-10.5 0-.4-.3-.7-.3-1v-6.3a1603 1603 0 0 1 1.2-25.1l.4-1.2c.2-.2.5-.5.8-.5.3 0 .6.3 1 .6v3.6c0 2.1-.5 4.2-.5 6.4a296.3 296.3 0 0 0 1 31.2c.7-1.5.7-3 1-4.6l.5-5.4c.5-4.5.7-9 1.2-13.6a65 65 0 0 1 1.5-7.9l.9-1.7.7-2c.3-1 .4-2 .8-3 0-.3.1-.5.3-.6l.3-.2.5-1 1.3-4.1c.1-.3.3-.5.6-.6h.6m-4 16-.7 2a51 51 0 0 0-.8 5c0 .7-.6 2.7 0 2.3.8-.6.6-1.9.8-2.8.2-1.4.6-2.8.7-4.2" style="fill:#000;fill-opacity:1;fill-rule:nonzero;stroke:none" transform="matrix(.04413 0 0 -.04413 -2.2 22.3)"/>
  <path d="m144.8 310.6-1 2.2-.5 1.1v.9l.4.3 1-.3 1.8-2 6.5-9 7-7.8 1.3-1.7 4.6-5.5 2.9-4.2 7.6-12.8 3.8-5.1 5.8-8.3 8.8-11.5 3.3-4.9 1.3-1.7 3-4.3.6-.7h.2l-.7 1.3-2.7 2.5-2.6 3.1-3.5 3.5-6 7.3-2 2.3-8 10.4-8.9 9.9-3 3.5-2.1 2.3-2.7 3.3-2.2 3.1-1.7 3-1.4 2.6-2.1 3.8-.5 1.5-.2 1.5v.4l.4.2.7-.2 1.1-1 3.2-3 2.9-3.2 1.5-1.9 7-7.5 13.4-16.8 2-2.8 2.7-3.6 4.4-6.7 3.5-5 1.7-2.1 2.3-2.6 5.4-6.4.9-1 1.8-1.4.9-.3.8-.7 3.7-2.5M175.5 260l-.1 2.5-.2 1-.2.3-.4-1.1-.3-3.4v-6.6l.3-5.7 1.5-15.7.5-4.8.8-5.4 1.3-5.9.1-1.1v-.2l-.3.6-1.2 6.3-.3 2.7-.7 7.9-1.4 9.6-.6 10.8v5.5l.2 4.9v1.7l-.2 1.2.1 1 .1-.2.6-2.8 2.4-23.6.7-10v-12.6l.3-4.8.5-2.9.5-2.1.3-2.6-.2 6.2-.8 11-.3 9-.4 7.7-.8 10.8-.1 5.3v5.3l.5 3.5v-.4.1-.2l-.1.2-.2-1-.2-2.8.1-7.4 1.1-17.1.3-6.9.2-13.2.3-11.2.5-8.1.2-1.5v-1.4.6l-.7 2.7-.4 3.5-.5 6-.6 10.7-.4 22.4.3 6.5.7 6.4.3 10.7v-10.4l.6-10.2.5-16.6v-15.1l.7-5.4.9-3.2.4-3.6-.2.3v1.8l-.4 3.9-1.4 10.4-.5 4.5-.4 3.7-.4 8.1v5.4l.3 10.9.5 7.8.5 4.3.2.7h.1v-.5l.1-13.7.3-7.4.8-9.6 1.1-10.2.3-3.7.6-16.9.6-7.9.2-1-.1 2-.7 4.3m86.6 52.6-.4 1.3v.8l-.1 1.9v.8l.2-.3.7-8 .7-10.4.3-6.5-.1-6.7-.7-6.2v-2.8l.4-1.7.1.2-.2.5-.3 2-.4 3.3-.8 11.2-1.5 15.9v3l.1 2 1.1 8.7.4 4.5-.2-.9-.3-4.8-.2-5v-3l.4-11.5.8-12.8 1.3-14.2.4-9.7.2-2v1l-1.6 8.8-1.6 12.5-.7 4.6-1.2 11.3-.3 7v4.2l.3 1.9.5 3-.1-1.8v-4.8l.3-7.7.9-6.4 1.8-16.5 2-13.4.9-9.3.8-7.5.5-2.7.2-.5h.1l.1.5v1l-2.2 7.5-1 5.8-.5 4.2-.7 11.9-.6 17.1v4.8l.2 5.5.2 1.5.4 2 .7 2 .3.6h.1l1.2-18 2.2-21.9 1-16.2.3-3.8.3-1.5.4-1.5-3 24-.5 5.8-.5 7.4-.5 26 .1 3.9.2 2.4.4 1.6.3.9h.1l-.1-.7v-13.7l.2-4 1.7-26 .2-6.5.1-8 .5-5-1.6 7.2-.7 4.1-.7 5-.6 4.5-2.4 26.5-.1 7.3.2 4.3.3 2.7.1.2h.1v-1l.4-2.4.9-14.8 1.7-20.7.5-12.4v-9.3l.4-2h.2v.4l-.2.6-1.1 7.6" style="fill:none;stroke:#000;stroke-width:2.18683;stroke-linecap:round;stroke-linejoin:round;stroke-miterlimit:10;stroke-dasharray:none;stroke-opacity:1" transform="matrix(.04413 0 0 -.04413 -2.2 22.3)"/>
  <path d="m165.7 193.8-.7.2h-1l-1.5-1.4-.8-.5-2.8-1.5-4.7-2-9-4.4-6.6-3-16.3-8.2-7.6-3.6-3-1.3-1.8-1-1.7-.8-6.2-3-1.1-.4-2.7-1.4-1.3-.4-.6.1.2.3 1 .6 5 2.7 4.6 2 2 .8 3.3 1.8 2.3 1 2.4 1.3 4.9 2.2 10 4.7 6 3.4 2.6 1.7 6.2 2.8 6.7 3 2 .9 4.5 1.4 4 1 2.6.4h.7v-.2l-.2-.3-.9-.5-8.5-3-4.3-1.6-2.2-1-8.3-3-5.2-2.3-23-11-3-1.4-2.9-1.2-9.7-4.6-8.7-3.8-5.3-3-5.5-2.5-.7-.5h-.4l.2.2 1.4.2 3.9 1.5 4.8 2.2 5.7 3 3.2 1.9 4.4 2.3 4.6 2.3 2.2.8 3.4 2 4.6 2.4 16.2 7.2 12.6 6.4 8 3.9 1.1.4h.3l-.3-.3h-.2l-1.8-1.1-3.8-1.6-1.5-.7-15.9-6.4-8.6-4-10.2-4.3-5.8-2.8-4.8-2.4-1.9-1.2-2.7-1.3-7.6-4-3.2-2-1.4-1.2v-.2l.7.6h.5l1 .5.8.2 2.1 1 5.8 3.2 19.1 10.4 2.8 1.4 2.6 1.2 9.6 4.9 6.7 3.5 9.5 4.3 11.5 5 5.9 2.5 4 1.5 1.1.3-.6-.3H167l-2.8-1-1.5-.6-1-.2-5.9-1.8-13.4-4.3-6.7-2.5-5.4-2.1-4-1.8-1.3-.4-1.3-.5-5.3-2.9-10.2-5-4.6-2.4-4.8-2.3-2.3-1-7-3.5-2.5-1.5-4-1.9-1.1-.9h.2l1.4.3 2 .6 2 .6 3.8 2 11 5.6 5.4 2.5 6.7 3.4 18.5 8.2 9.8 3.8 16.4 5.7 4.2 1.7 1.4.5 2.5 1 1 .3 2 1 .5.1-.8-.4-2.6-.7-6.1-2.7-2.5-1.2-5-2-6-2.5-1.2-.3-8.1-3.5-9-3.4-7.7-4-11.1-5.3-6.7-3.5-9-4.3-8-4.7-4.5-2.9-2.9-1.5 5.5 1.2 6.9 3.4 4 2.3 5.7 2.9 2.5 1 7.8 4.3 30.4 13.8 2.6 1 10.8 4 10 3 6 2-.5-.3h-1l-1.2-.5-3.8-1.7-5.7-2.2-4.7-2-14-5.6-15.4-6.7-2.4-1.3-3.7-1.5-7.9-3.5-15-7.6-5.7-3.2-4.3-2.3-2.2-1-2-.9h-.6l-.9-.6 3.2 1 1.4.8 3.6 1.6 13.8 7.5 2.2 1 2.1 1.3 4.4 2.1 2.2 1.4 8.5 3.6 5 2.4 2.3 1.4 8.2 3.7 13.6 6.8 2 .9 2.7 1.3 1.8.7 8 3.9 1.2.4 8.7 4.3 3 1.3 3 1.7 1 .4.1-.1.2.2-.3-.1v-.1h-.2l-4.2-2-3.2-1.4-1.8-1-.9-.7-2.9-1.5-1.5-1-.8-.4-2-1.4-1-.5-1.1-.3v.2l.6 1 1.5 1.5 4.5 3 1 .8 3 1.7 2.1 1.6 1.4 1.4v-.1l-1.2-.5-1.6-.8-3-2-2.5-1.4-5-2.3-1-.6-3.8-1.5 1.3.7 2 1.4 3.7 2.3 4 2 .8.1 1.4 1 .4.4h.5l-.7-.3-1-.8-2.5-1.8-3.2-1.9-5-2.5-1.8-1-4.8-2.3-2-.9-4.1-2-2.2-1-1-.6-8.5-4-6-3.2-18.7-10.5-18.4-11-6.4-3.6v-.2l.1-.1.2.2.4.2.3.3h.4l1.7.7 4.8 2.4 6.3 3.7 4 2.2 9.2 5.3 10.2 5.2 11.2 6 1.8 1 2.7 1.5 1.3.5h.3l-1.7-1-.7-.6-.8-.3-5.2-3-4.6-2.2-3.9-1.9-3.2-1.7-9.9-4.3-1.8-1.1-3.7-1.8-11-5.6-8.5-4.7-2-1-.5-.1-.6-.6-.2-.3h.2l.6.3h.8l1.5.3 5.2 2.1 11.4 5.3 11.5 5.6 2 .8 3.3 1.7 8.2 3.9 2 1 10 4.8 1.8 1 .9.3 3.4 1.7 6.1 2.5 3 1 1.1.1 4.3 1.3 1.6.3 1 .3 5.7 2.4 1.3.8.7.3h.2l.4.5.4.2.9.4v-.2l-.2.2-.1-.2h-.7l-.2-.3-1.8-1.2-2.9-1-3.6-1.6-.9-.5-3.5-1.3-8.6-4.2-7-3.7-14.1-6.6-4-2.1-8.8-4.3-2.1-1.2-6.6-3.2-7.7-4.4-13.2-6.7-1.2-.5-3.3-2-1.2-.3-.3.1-.1-.1h.1l3.2 2.2 2.2 1 5.2 2.6 4.2 1.7 5.3 2.6 5.1 2.1 4.1 2.6 7.5 4 1.3.7 4.6 2.8 3.8 2 7.3 4.5 3.8 2.1 1.7.7 3.9 2 .5.1 1.3 1.2-.5-.6h-.8l-1.5-.8-.8-.6-2.2-1.3-2.5-1.4-3-1.4-5.3-2.3-7-3.8-1.9-.8-1.8-.6-3.7-2-10.8-5.3-4-2.1-4-1.8-1.8-.7-1.7-.9-10.2-4.2-2.2-.7-1-.1h-.1v.1l2.2.4 2.5.6.8.5 2.8 1.2L91 155l3 1.3 4.4 2.3 6.4 4.3 4.5 3 5.1 3 1.4.6h.4v-.2l-.7-.2-1.2-.6-2.5-2-5-3.3-3.5-2.1-3.3-2-1.3-1-1.4-.5-2-1.1-1.3-.5-7-3-4-2.3h.2l.5.4h.9l2.8 1.4.7.6 2.3 1.2 1.8 1.2M279 220.7l-.5 1 .8-.9 1.7-1.2 1.4-.7 5-4 .9-.5 7.2-3.8 5.8-2.9 17.3-8 10.2-4 8.4-3.6 2.4-.8 3.8-1.6 5.6-2 2.3-.8.6-.4h0l-2.3.8-1 .1-2.4.7-2.2.8-5 1.5-19 7-9.4 4.4-12.3 6-14.8 7.4-1 .5h-.4v.2l.4-.7h.1v.3l1.2-.8 7-4.1 5.1-2.8 3.3-1.6 7-4 8-4.3.9-.3.8-.4.7-.6 3.2-2 1.6-1 3-1.9 10.1-6.2 3.1-2 1.3-.5.4.1.5-.5v-.2h-.3l-1 .4-3.9 1.6-3.2 1.7-1.3.8-4.7 2.1-5 2.5-2.1 1.2-5.8 3.1-8 4.5-4.2 2.2-10.5 6.2-4 2.1-2.9 1.8-.8.7v-.3.2-.3h.2l.7-.4 6.7-4.2 4.2-2.4 5-3.4 4.6-2.5 1-.2 1-.4 1-.7 8.2-4.5 10-4.4 5.8-2.3 3.4-1.1 4-2 2-1.1.8-.3 3-1.5 1.3-.5 3.3-1.6 1.8-1 1.3-.7h.3L349 179l-9.6 3.7-3.1 1.7-2 1.6-.7.2-1.8 1.2-1.2.4-3.5 2.1-8.9 4-5.7 2.9-2 1.3-11.8 6.1-1.7 1-1.5.7-7.1 4-2.6 2.4-1.6 1.4-.9.5-3.5 3.2-.5.4-.3.5.1.1h.2l.4-.3v.2l.2-.2.6-.4 4-1.6 7.7-3.6 5.2-2.6 2-1.2 6-2.6 5-2.9.8-.3h.3l.2.2-2.6 1.6-4.8 2.6-1.2.5-.5.4-2.2 1.1-1.3 1.2-4.9 3-2.7 2-1.2 1.2-2.3 1.7-2.6 2.3-2.5 1.7-1.8.7-1.9 1.2.8-.5.7-.7.5-.1 4.3-2.4 3.2-2.3 1.8-1.4 4.2-2.6 12.9-6.6 2-1.3 3.8-2.2 4.1-3 2-1 .8-.8 2.5-1v-.1l-1.6 1-5 1.8-1.2.4-3.6 1.4-5.2 2.2-1.9.6-4.7 2.8-1.9 1.4-.9.4-2.6 1.6-6.6 4.4-1.7 1.5-.6.9v.1h.2l9.3-5 3-1.5 6.5-3.7 6.7-3.3 1.3-.5 1.4-.6 1.3-1 5-2.8 5.6-3.8 3.4-2.4 6.1-4.2 15-8.1 1.6-.7 8.7-4.5 4-2.5 1.2-.6 5.5-3 .7-.4-.3.2-.3.3-1 .3h-.5l-1.2.6-.7.4-2.3.6-1.4.6-4.4 2-5 3.4-6.8 4-9.7 6.2-5.5 3.6-1.8 1.4h-.4 0l.5-.3 1-1 2-1.2 4-2.2 1.7-.8 1.8-1.2 4.2-2.2 4.4-2.8 3.4-2.2 3.2-1.7 4.8-2.7 2.3-1.5 2.3-1.2 3.7-1.8 7.4-2.8 4.3-2 4-1.6 1-.3h.4l.2.1h-.1l-.2.2-1.3 1.2-1.8.7-1.7.5-3.5 1.3-4 1.5-11.3 4.5-2.8 1.2-2.5 1.4-2.8 1.8-4.5 3.3-2.4 1.6-1.4.6h-.7l-.4.2.2.3.8-.7 1.3-.7 1-.7.6-.2 7.5-3.5 5.3-2.9 1.7-1 6-3.3 2.8-1.6 1.2-.6 3.5-2.2 1.5-.8h.7l.3-.3 1-.5 5.3-2.9.2-.1-.1-.1-1 .5-1.4.2h-.9l-.4.3-2.1.6-1.1.5-2.5.7-1.3.6-4 1.1-3.5 1.7-1.5.8-1.5.6-4.1 2-5 2.9-5.5 4-2 1.3-.8.3-.8.8-.2.5 1.2-1h.4l.2-.4.7-.5 3.7-2.6 5.8-3.7 3-1.6 6.4-3 3.3-1.3 1.6-.4 2.2-1.1 1.6-.5 1.2-.7 3.8-1.4 1.6-.9 2.3-1 1.8-.7h.3l-.1.2-.3.1-.6.6-4.3 1.6-1.1.7-3.9 1.2-2.6 1.3-.5.4-3.2 1.6-6.5 4.5-2.7 1.7-7 5.1-4.8 3.2-4.5 2.7-.8.2-2.5 1.5v-.2.2h.3l.2.3.5-.4 3.6-1.4 5.7-2.7 2-.8 7-3.4 4.3-2.5 6.8-4.1 4.4-2.2 2.3-1.1 1.2-.4h.5l1.1-.4h.1l-.1.1-2.3 1.6-1.8.8-1.2.3-3 1.5-1.3.8-1.3.5-3.6 1.7-4.1 2.5-4.9 2.7-1 .6-2 1-3.9 2.3-2 1-1 .7-2.8 1.7-1.9 1.3-4.9 2.4-2 .8-1 .6-7.8 3.9-6 3.3-12.1 5.4-1.7 1-5 2.3-4.7 2.3-3.7 2.2-3.4 2.1h-.3l-.2.1-.4.8v.4l.6-.6v-.1.2-.1l3-1.7 6-3.4 12.5-6 8.7-4.6 2.8-1.2 5.4-3.1 3.7-2.5 11-5.5 1.9-.5.8-.3.2-.2h.3v.3l-.2-.3h-.2l-.4.4-1.3.4-1 .5h-.5l-2.6 1.1-1.5.4-5.2 2.5-7.9 3.2L310 205l-9.4 4.3-7.6 4-2.6 1.7-3.5 2-2.4 1.8-2 1.8-2.6 2-.6.1-1.4 1.4-1.2.6-.2.2.1-.2 1.7-1 4.3-3.1 9.2-5.4 2.1-.9 7.6-4.3 4.9-2.3 19-10 9.3-6.1 1.7-.9.8-.7 3.3-2.3 1.4-1.1 2.1-1.6 6.7-4.4 3.2-1.3 1.1-.1 1.8-.9.7-.5h.4l1.4-.5.8-.6.3-.6-.3-.2-.2.1-1.7.4-3.6 1-10.8 4.6-3.5 1.3-1.7.5-3 1.3-1.6 1-4.5 1.3-2 .5-9 3.6-13.3 6.2-2.8 1.6-5.4 2.9-2.3 1.4-3.6 2-1.6.7-.9.5v.1l-.3-.5-.4-.1v-.1h0l.1.1 2.5-2.1 3.9-2.5 1.8-1 3.1-2 3.5-1.7 2.5-1.6 3.6-2 8.9-4.7 3.7-1.6 12.5-5 2-1.1 2.2-.7 4-1.7 5-2.4 2-1 4.4-2.1 11.7-4.5.9-.6 1-.3 1.2-.5.9-.1 2.8-1.3 3-1 2-1.1-.8.1-1 .5-1.2.5-5.9 1.7-2.8.6-3.2 1-1 .8h-.5l-2.7 1-2 1.1-1 1h-.7l-1.3.7-1.5.9-1.6.7-4.5 2.3-7.5 4.5-2.3 1.2-3.6 2-2.3 1-6.2 3.2-5.4 2.5-8.3 4.4-3.4 2-2.8 2-5.1 2.8-2 1-6.1 3.7-3.8 2-2 .8h-.2l-.2-.2h0l.4-.2h.2l.5-.5v.3h-.4l4.4-3 2.5-1.4 6.6-4.2 1.3-.7 12.7-6.3 4.3-1.9 12-6 2.6-1.7 3.6-1.7 1.8-.8 3.7-1.5 1.2-.6 2.1-.8.7.1.3-.3 1-.5h.3l-.7.2-5.3 2-5.1 2.6-5.5 2.2-4 1.9-2.1 1.1-2.4 1-6 2.5-7.3 3.5-3.3 1.8-1.5 1-.8.3-2.2 1.1-2.2.9-7.7 4-1 .5-.7.4-.5.3-.6.1-2.2 1.3-1 .3-1.2.7v-.3.5l.1-.2v-.2.3l-1.8.8-1.9 1-2 2-.2.4h0l.4-.2h.2l.4-.5h.5l2.7-2.4 2-1 1-.4.6-.4 3.4-1.8 5.2-2.4 2.5-1.3 3.4-1.6 4.7-3.2.9-.6.8-.3 1.4-1 1.7-.9 2.2-.8.3-.3m-42.8 51.1-.7 1 .4-.7.4-1.3.5-5.7.7-12.2.3-15.2.7-8.7.3-3 1-5.3.8-3 2.3-6.4-1.7 6.6-1.1 6.4-.3 3v9.8l-1 7.3-1 7.5-.7 3.3-1.5 6.2-1.8 4.8-.8 1.4-.2 1 .1-.2.1-3.6v-7.3l.3-8.5.5-17 .8-10.4.1-5 .4-6.2v2.2l-.9 4.4-.2 2.6v2.4l.6 5.3v3.8l.1 6.1-.3 10.1-1.4 18-.5 5-.5 3.6.1-.7v-.2l.1.1h.1l.6-1.6.6-2.6.3-2.6.5-5.4 1-19.2.2-13.3.5-7.6.3-8.3.3-3 .4-1.8v.4l.2 1.5-.3 3.6-.6 10.2-.1 10.3-.5 9.6.1 5 1.2 10.8.3 4.2.3 1.8.5 1.2h.3l1-3.1v-4l-.8-11.7-.4-21.2v-7.7l.4-8.2v-3 .4l.4.6.3.2.2.6v1.2l-1.3 9.7-.2 3-.4 7.2.1 6.2.7 8.3 1.3 8.7.4 3.6.2 4.2.1 4.2.3 3 .3 1.1.2.4.2-1.7.4-1.8.1-1.5v-5.6l.4-18.3v-5.4l-.6-9.4-.6-7-1.5-11v-.1l-.2.2-1.1 4.7" style="fill:none;stroke:#000;stroke-width:2.18683;stroke-linecap:round;stroke-linejoin:round;stroke-miterlimit:10;stroke-dasharray:none;stroke-opacity:1" transform="matrix(.04413 0 0 -.04413 -2.2 22.3)"/>
  <path d="M179.7 259.4h-1.1 0l.2.2h0l.1-.1-.2-.3-.1-.3.2-5.7.4-4.1 1.1-7.2.8-7.6.6-7 .5-8.5-.2-7.4-.8-16.3-.4-5.3-.1-.8-.3-.6.3.3.1.7.1.8-.3 4-1.9 15.2-.4 5.2-.3 6.5-.5 4.8-.6 4.6-.4 5.6v2.5l.3-.4.4-4.2 1-11.8.7-5.8 1.2-6.5 2-9.3.2-2 .3-3.7v-10.2l.4-4.3v1.2l-.9 2.7-.4 2.1-1.5 8.9-.5 4.5-.3 5-.2 6.2.3 14.6v7.1l-.3 3.4m.1 31.5.9-2.2 1-2.2 2.2-3.6 1-1.2h.3l.1.6v.6m-21.1 35.1-1.2 2.6-.3.8h.1l1.2-1.6 1.1-1.2 3.2-4 4.3-6 4.2-5.6 7.6-9.2 4.7-6 6.4-8.4 2-2.2 2.7-2.3 3.3-3 3.1-3.4.6-1-.5.7-6.4 6.2-4.7 5.2-2.4 2.5-2.3 2.6-3.6 4.6-4 6-3 4.7-3.7 6.1-3.3 5-4 7-1.1 2.1-.7 1-.3.1v.1l.2-.6.1-.1 6.7-10.6 3-4.3 3.7-4.8 1-1.2 2-2 1-1.5 12.7-15.9 2.7-2.9 1.5-1.9 4-4 4.3-5.3 2.7-3-.3.2-1.1 1.4-4 3.3-7.9 7.4-1.8 1.9-4 3.7-2.8 3-8.2 10.7-2.1 2.6-1.4 2-4.3 5.5-3.3 5-3.5 6-3.1 5.5-2 2.9-.8 1.6h-.2l.1-.8.5-1 3.3-5.5 4.8-7 6.4-8.8 9.5-12.4 13-17.2 5-5.2 4.3-3.9 1.3-1.5.2-.4v-.2l-.5.3-1.8 1.8" style="fill:none;stroke:#000;stroke-width:2.18683;stroke-linecap:round;stroke-linejoin:round;stroke-miterlimit:10;stroke-dasharray:none;stroke-opacity:1" transform="matrix(.04413 0 0 -.04413 -2.2 22.3)"/>
  <path d="m299.6 303.3-.6 1.4-1 1.3.4-.7v-.3l-.2-1.2-.6-2.2-1-1.9-3-5.7-3.9-6.4-7.4-10.9-.9-1.5-3-4-3.5-5.7v-.2l.4.4 1 .7.5.8 1.7 2.7 2 3.7 6.9 11 1.8 2.6 3 3.8 3 3.3 8.1 8.2v.2h-.2l-3.7-5.2-1.3-1.6-3-4-7.5-8.5-6.6-8.1-8.2-9.6-4.8-6-4.3-4.7-3.6-3.3-3.8-2.6-1.4-.7-5-3-4.1-2-4-1.8-2.3-1.6-2.1-1.2.7.3h.7l.4.4h.5l1 .4h.3l.4.1.3.4 1.9 1.2 1 .9 1.9 1.2 2.8 1.6 3.7 1.8 3.7 2 6.2 3.8 1.3 1 1.1 1 .6 1v.4l-1-.5h-.4l-1.4-.4-1.4-.9-1-.7-.4-.2-2.2-1.4-1.2-.6-4.7-2.8-2.2-1.2-2.4-1-17.2-6-3-.8-5.2-1.1-2.6-.9-1-.5h-4.2l-.5.2v.2l.6.2.4.3 1.6.3 4 .5h7l2.2.3 1 .4 2.3.6h.9l3.7 1.7.6.5-.4-.2-.3-.1-.3.2h-1.8l-1.4.5-4.2.6-3.2.1-1.4-.2-.7.1h-3.7l-3.8-.5-5-1-1.7-.3h-1.4l-.9.2-1.4.6-2 1.6-.9 1.2-.3.7v.3l3.1.3 2.2-.4 1-.4 2-.6 3.2-1.4 8-4 2-.5h.9l.3-.1 1.8-.5 1-.2h.4l.4-.1h.2l-.2-.1h-.3l-1 1-1.1.7-4.3 1.9-1.5.7-1 .7-2.6 1-1.2.2-2.1.9-1 .5-2.8.6-1.1.4-1.5.6-.5.3-.6.2v.1l2.4-2.5 2.5-2.1 2.1-1.3 4.6-1.8 4-.8.5-.2h.8l.4.2.2-.2v-.2l-2.3 1.2-1.6 1-.8.6-1.7.7-2.8.8-5.8 1.3-3 .9-1.8.3h-.6l-.7.3-.4.4v.4l.7-.3 2.4-1.3 1.7-1.2 5-4.3 1.9-1 1.8-.7h1l.9-.2 1.5-.3.8-.2h2.3l5.4-.6 2.6-.4 2.4-.1.7-.2 3 .6.8.3.8.4 1 .2 1.3.4h.4l.4.1 2.5 1.9 2 1.2 3.6 2.7.6.6-.6-.2-.2-.2-.7-.2-.5-.5h-.3l-2.4-.7-2-.8-1-.8h-.7l-2.3-.8-7.7-2-6.3-2.3-.8-.4-.2-.2v.2l.2.3.4.1.6.5.4.1 1.7 1.6 1.8 1 4.3 2.2 3.3 1.9 2.3 1 4 1.5 2.1 1 1.2.9.6.1 2.3 1.2 1.2.4 1.8 1 1.6 1.1 2.3 1.2 1.2 1 3 1.7 1.3.4 6.4 5 1.2.8 2.3 2.3 7.2 6.7 3.5 3.5 2 2.8 2 3.3 2.4 4.8 1.3 2.2 1.5 2.2 1.6 2 .8 1 .9 1.9.8 2 1.5 6.4 1.4 3.7 1 2.2.8.9.3.2.9 1 .7.5.2.3-.3-.3.2-.5v-1.2l-.2-2.2-.5-2.5-1-2.8-2.5-5.4-1.7-3-2.6-3.8-.2-.2-.1-.2h0l.5.6.5.3.8 1.4 2.8 5.5 3.5 6.3 1.4 2.3 1.7 3.3 1.2 2.9.7 2.9.3 2 .2 6.5.7 5.8v.7l-.2.5.1-.2-.2-.8-4-11.2-1-3.7-.3-1.5-.2-3 .4-3.8" style="fill:none;stroke:#000;stroke-width:2.18683;stroke-linecap:round;stroke-linejoin:round;stroke-miterlimit:10;stroke-dasharray:none;stroke-opacity:1" transform="matrix(.04413 0 0 -.04413 -2.2 22.3)"/>
  <path d="M206.9 239.7c.2.2.5.4.6.7v1l-.7.6-.5.8-1.7 1.8-.6.8-.7.8c-.6.8-1 1.8-1.7 2.6-.4.6-1 1-1.5 1.5l-1 1.3-2.8 4c-1.6 2.5-3 5.1-4.6 7.5-1.4 2.2-3 4.3-4.7 6.4l-.8.8c-.2.2-.3.6-.6.8-1.3 1.5-2.8 2.8-4.2 4.3l-.5.8-1.9 1.9-.8.5-1.7 1.7-.9.5-1.8 1.9c-.2.1-.3.4-.3.6l-2 5.5c-1 2.2-2 4.3-2.8 6.5-1.7 4.3-3.8 8.5-5 13-1.4 5-1.9 10-2.6 15.2-.7 4.5-1 9-1.7 13.6l-2.2 14.9c-.2 1.2-.6 2.3-.7 3.5 0 .3.2.5.4.6l3.2 1 7.7 1.9 21 4.5c1.1.2 2.1.6 3.2 1l5.3 1.8 6.9 2 4 1.6h.4l3.6-2.2 5.8-3 3.2-1.9 3.4-1.5 1.7-1 4-1.9 2.9-1.5 6-2.9 3.3-1.4c1-.4 1.8-1 2.7-1.4 1-.5 1.9-1 2.9-1.3 1.4-.6 2.8-1 4.2-1.7l1.6-1 8.8-4.4 7.9-3.4 2.6-1c2.2-.7 4.3-1.5 6.5-2.1 2.5-.7 5-1 7.5-1.7l7.3-2.1c1-.2 1.9-.3 2.8-.6 2.6-.8 5.2-2 7.8-3 1.6-.4 3.4-.5 5-1 .2-.1.2-.4.2-.6 0-2.4.3-4.9 0-7.3-.3-1.9-1.4-3.6-1.9-5.4v-1l.4-.5.7-.5h.4l.8.5c.4.3.9.5 1 1 .5 1.9.4 4 .9 5.9.4 2 1.1 3.8 1.8 5.6 0 .3 0 1 .4.9 3-.6 6-1.8 9-2.6l3-.7 2.9-.5c4.3-.4 8.7-.5 13-1 .8 0 1.4-.5 2.1-.7l6.6-1.8c1.2-.4 2.4-.5 3.7-.7l3.6-.6h1.6l.6.3h1.7l.6-.3h1.2l.3.3 1-.2.3.2h1c1.6-.1 3.1-.4 4.7-.6h1.3a296.4 296.4 0 0 1 11.9 2.7l1.2.6 2 .7 3.7.7c1.2.4 2.3.7 3.3 1.3a5.6 5.6 0 0 1 2.5 3.7v2.9l-.3.6v.5c.3.4.8.5 1.2.8l2.3 1 1.4 1c.3.3.7.6.9 1 .5.8 1 1.7 1.1 2.7a14 14 0 0 1 0 4.1c-.2 1.2-.7 2.3-1.1 3.4l-.7 1a76 76 0 0 1-3.7 3.7c-.3.3-.7.4-1 .6-1.8 1.8-3.5 3.7-5.4 5.4-.2.3-.5.3-.8.6l-1 1-.2.4-1.5 1.3-3.6 2.3c-1 .6-1.8 1.3-2.6 2l-.8.8-.8.4-.8.8c-1.5 1-3.1 2-4.8 2.9l-1 .4-.9.9-.7.4c-.2.2-.5.3-.5.6l.2.6c0 .4.2 1 0 1.3-.4.6-1 1.1-1.5 1.5-1 .7-2.2 1-3.3 1.7l-1.5 1.2c-1.1.7-2.5 1.2-3.6 2l-3 2.7-1.7 1.1c-.6.4-1 1-1.5 1.4l-.8.5-2 2.4-2 1.4-1 .8-4.5 3-1.1 1.2-.9.5c-.1 0-.3 0-.4-.2-.3-.1-.6-.3-.6-.6-.2-.4-.3-.8 0-1.1.7-1 1.9-1.8 2.8-2.7l.5-.9.6-.5c.2-.2.6-.3.8-.6 1.6-1.4 3-3 4.6-4.5.3-.3.6-.4 1-.6v-.3a1 1 0 0 0-.7 0l-1.7.7-12 6.6c-1.3.6-2.5 1.2-3.8 1.6l-5.7 1.8-.3-.2-.5-.1c-.3-.2-.5-.5-.6-.8v-1l.2-.2 4-2 .5-.5c.8-.3 1.8-.4 2.6-.8 1-.4 2-1 3-1.6l.1-.2c0-.3-.4-.4-.5-.7v-1.1l.5-.4 1.7-.8c.2 0 .3-.3.5-.5l1.2-.6c1.2-.5 2.6-.7 3.7-1.4.6-.3 1-1 1.5-1.4 1.9-1.5 4-2.8 5.8-4.3.7-.5 1.1-1.3 1.8-1.8l2.3-1.4.7-.6.5-.9 2.9-2.9 1-.7c.4-.3.9-.7 1.2-1.2.2-.2.3-.6.6-.8l3.5-3.6c.3-.2.3-.6.6-.8.2-.3.5-.3.8-.5l1.5-1.6.5-.8.6-.6.9-.5c.8-.8 1.5-1.7 2.4-2.4.6-.6 1.4-.9 2-1.4 1.3-1.2 2.8-2.3 3.8-3.8.5-.7.5-1.6.6-2.5v-4.1c-.1-1.2-.5-2.3-.8-3.4l-.6-1.5c-.3-.6-.5-1.2-.9-1.7a1 1 0 0 0-.5-.4c-2-.5-4-.8-5.9-1.4-.4-.1-.7-.4-1-.7l-.1-.5v-.6c.3-.3.6-.7 1-.7 1.1 0 2.1.4 3.2.5.2 0 .5 0 .4-.1-.4-.7-1-1.1-1.6-1.7l-.4-.7c-.5-.5-1-1-1.5-1.2-.7-.2-1.5.2-2.1 0-.4-.2-.6-.8-.6-1.2 0-.2.7-.3.5-.5-.5-.6-1.3-.8-2-1.2h-.3a703.4 703.4 0 0 0-19.6 4.6c-1.2.4-2.4 1-3.7 1.2-1.3.4-2.7.5-4 .8-1.3.3-2.5.8-3.8 1-3.2 1-6.5 1.5-9.7 2.4-1.7.5-3.3 1.3-5 1.8-1.7.6-3.5 1-5.3 1.5-.2 0-.7 0-.7.3-.3 1-.1 2 0 3 .4 5.6 1 11.2 1.7 16.8.2 1.9-1.1 5.5.7 5.5 1.9 0 .5-3.6.7-5.4v-1.3l-.3-.6v-.7c.1-.3.3-.6.6-.7a1 1 0 0 1 1.1 0c.3.1.5.5.6.8.5 1.8 1 3.7 1.2 5.6a50 50 0 0 1 0 6.7c-.3 3.7-1 7.4-1.3 11.1-.5 7-.5 14-.9 21.1-.1 3-.5 5.8-.7 8.7 0 .8-.2 1.7 0 2.5.2.4.8.5 1.2.6l6.8 3 5.7 2.8c1.7 1 3.3 2 5 2.8 1.7.9 3.4 1.4 5.1 2.3 2.4 1.2 4.8 2.5 7 3.9.6.3 1 .8 1.5 1.1 1.4 1 3 1.7 4.3 2.7.8.6 1.5 1.4 2.4 2l1.3.7c1.4.6 2.8 1 4.2 1.7a53.7 53.7 0 0 1 7.3 4.1c1.4 1.2 2.6 2.5 3.8 3.8l1 1.4 1.9 2.8a35 35 0 0 1 3.7 9.4v3.5c0 1.2-.4 2.3-.6 3.5v1c.1 1.6.6 3.1.6 4.7 0 .7-.3 1.3-.5 2-.2.3-.3.7-.6 1-.7.9-1.5 1.7-2.3 2.3-.6.5-1.4.7-2 1.1l-2 1.3-1.7 1.8-.9.5-.7.7-1 .7c-1 .4-2.1.9-3.3 1.2a70.2 70.2 0 0 1-15.3 2.5c-2 0-4.1-.3-6.2-.6-1.7-.2-3.4-.4-5-.8-3.6-.9-7.1-1.8-10.6-3-3.5-1-6.8-2.4-10.2-3.5h-.7l-.6.3h-.7l-1-.7-1-.4c-1.2-.3-2.5-.2-3.6-.8-.4-.2-.2-.8-.2-1.1 0-.2.2-.4.4-.5 1-.3 2.2-.4 3.2-.6.2 0 .2-.3.4-.3h.3l3.3.5c1.6.4 3 1 4.6 1.3 1.5.3 3 .4 4.6.5 5.2.3 10.3.8 15.4.8a70 70 0 0 0 8-.6c.8-.1 1.5-.3 2.1-.6a5 5 0 0 0 1.9-1c.8-.5 1.6-1 2.2-1.9.8-1 1.3-2.2 2-3.4l.5-1.6c.4-1 .8-2 1-3.1l-.1-4.5a49.4 49.4 0 0 0-2.7-6.2l-1-1.6c-.7-.8-1.4-1.6-2.3-2.2l-4-2.9-3-1.7-3.7-2.4c-1.2-.7-2.5-1-3.7-1.7l-.8-.9-1.9-1.2-8-4.8-5.4-3c-2.2-1-5.3-5.2-6.7-3.2-3 4.2-1 10.2-1.7 15.3a132 132 0 0 1-3.2 14.2l-1.3 2.6c-.2.3-.5.6-.9.8l-.3-.2h-.5a2 2 0 0 1-.6-.8v-.4l2-7c.5-2 1-4 1.3-6l1.3-9.5c.4-3.2.8-6.5 1-9.8 0-.3.2-.8 0-.8-.4 0-.5.5-.6.8l-2.3 7.1a296.8 296.8 0 0 1-6.1 16c-.7 1.6-1.8 3-2.4 4.8-.6 1.8-.8 3.8-1.2 5.7 0 .1 0 .4.2.4s.3-.4.6-.5h.6c.3 0 .5.3.6.5.2.3.5.5.5.9 0 .5-.3 1-.5 1.5l-1 1.3-.8.5-1 1-1.3 1c-.6.4-1.3.6-1.8 1-1.5 1.5-3 2.9-4.3 4.5-1.1 1.2-1.8 2.7-2.8 4l-.8.8-.5.8c-1 1.1-2.2 2.1-3.2 3.3-.5.4-.7 1-1.1 1.4l-1.2.8c-.4.4-.7.9-1.2 1.2-.7.5-1.6.8-2.4 1.2-.5.2-1 .5-1.6.5-.7.1-1.5.2-2.2 0a.4.4 0 0 1-.4-.4v-1l.5-.4c.7-.4 1.5-.7 2.1-1.2.7-.6 1.3-1.4 2-2.2v-.3h-.4l-.4.4-6.7 3.8-2.8 1.3c-1.7.6-3.6 1-5.3 1.7-.6.3-1 .9-1.7 1.1-1.4.6-2.7 1-4.1 1.3-4.1.8-8.2 1.2-12.3 2-.9.2-1.7.6-2.5 1-.9.4-1.7 1-2.6 1.6h-.3l-1.1-.1a.5.5 0 0 1-.3-.3v-.7l.5-.8a6.3 6.3 0 0 1 3.1-2.2c2.7-.8 5.3-1.4 8-2l6.1-1.3c.8-.2 1.7-.3 2.4-.8.4-.2-.9 0-1.3 0l-6.5 1.4a96.8 96.8 0 0 1-15.7 1.4c-1.7.1-3.4.2-5 0-2.7-.2-5.4-.6-8-1l-4-1-2-.8h-1l-.6.3a73.4 73.4 0 0 1-8.2-1.5l-2-.7c-.1 0-.3 0-.4.2l.1.1 1.9 1.9.5.8 1 1v1l-.7.5a1 1 0 0 1-.5.2h-1l-4.8-2.4c-.9-.4-1.7-1-2.6-1.6-1.7-.9-3.4-1.6-5.1-2.6a264.8 264.8 0 0 1-15-9.8l-1.4-1.5-.7-.4-1.8-1.8-.8-.4-2.2-2.3c-.7-.7-1.1-1.6-1.7-2.3l-1.2-1.2-1.7-2.3-.8-.8-2-3c-2-2.8-4.2-5.4-6.3-8.1l-1-1.8-1.5-1.7-1.7-2.7-.5-.5-1.6-2.6a68.2 68.2 0 0 1-3.2-6.8c-.6-2-1.2-4-1.6-6-.6-2 .1-4.7-1.4-6.2-.8-.8-2 1.2-3 1.9-.2 0-.1.2 0 .3.1.4.6.6.7 1 0 .4-.3.8-.6 1-1 .5-2.2.6-3.3 1l-2.2 1.3-2 1.5a38.7 38.7 0 0 1-6.4 3.2c-1.2.4-2.5.5-3.7 1-1.1.5-2.1 1.2-3.1 2-.8.5-1.4 1.1-2.1 1.7-1 .8-2.3 1.5-3.3 2.4-.9.7-1.6 1.6-2.4 2.4l-.8.4-4.2 4.2c-.3.4-.8.5-1.1.8l-1.4 1.4c-.3.4-.6 1-1 1.3-.2.3-.6.3-.8.6-1.6 1.4-3 3-4.4 4.3l-.4.2-1.6 1.8c-.7.9-1.1 1.8-1.7 2.7L97 461l-.8 1.4-1 1.2-1 1.2-.7 1A52 52 0 0 0 92 470c-.5 1.5-1 3-1.2 4.4-.2 1 0 2 0 2.9l.1.5.7.4 2 .6c1 .2 2 .5 3 .5 1.5.2 3 .2 4.5 0 1-.1 1.9-.5 2.8-.8l4-1.6 3-1.5 3.8-1.5 2.8-.8c2.1-.8 4.1-1.9 6.2-2.7l3-1.1c2-.8 3.8-1.7 5.8-2.4 1.5-.6 3.2-.9 4.7-1.4l3.2-1.4a51.2 51.2 0 0 1 6.5-1.8c.3.1.5.6.8.5.6-.2 1-.7 1.5-1.1l1.6-1.6c.6-.8.9-1.6 1.4-2.4.2-.2.3-.4.6-.5h.6c.3.1.7.2.8.5v1.2a7 7 0 0 1-1.2 1.8c-.3.5-1 .8-1.3 1.4l.3.1c.2.4.6.7.6 1.1 0 .4-.3.7-.6 1-.4.3-1 .4-1.4.8-.3.2 0 .7-.2 1-.3.3-.7.4-1 .6l-2.5.7a40 40 0 0 0-4.2 2l-3 2.4c-1.2.8-2.5 1.3-3.6 2l-3.7 2.5a43.4 43.4 0 0 1-7.3 3.5c-1.6.6-3.3 1-5 1.7-.8.3-1.6.8-2.4 1.3-.2 0-.4.3-.6.5l-1.6 1c-1.9.9-3.7 1.7-5.6 2.4l-5 1.5-2 .7a16 16 0 0 1-3.7 1.2c-.8 0-1.5-.3-2.2-.5l-2.2-.7c-1-.3-2.3-.3-3.4-.7-.4-.1-.6-.5-1-.7-1-.6-2.2-1-3.2-1.7-.5-.3-.9-.8-1.3-1.3-.2-.2-.2-.6-.5-.8-.6-.4-1.4-.5-2-.7l-3-.7-1.8-.6-1-.7a22 22 0 0 1-2.2-2.2l-.7-1.4-.5-.5c-.4-.6-.8-1.1-1-1.7-.5-1-1-2-1.1-3-.2-1.3-.1-2.7 0-4.1l.2-1-.3-.9a37 37 0 0 1-.9-4.8V459c0-.5.3-.8.5-1.2 1-1.7 2-3.4 3.2-5 .2-.4.6-.6.8-.9l.5-.7c.4-.6 1-1 1.4-1.5.7-.9 1.3-2 2-2.7.6-.5 1.2-.7 1.8-1l.5-.6 1.2-.5c.9-.6 1.7-1.3 2.6-1.7 1.5-.6 3-.8 4.5-1.3a22.1 22.1 0 0 0 5.5-3l3.8-2.8 1.1-1.2.9-.5 1-1 .8-.5 1.1-1.1.8-.5 1.1-1.1 7.1-4.6c.2-.1.3-.4.6-.5l12.8-7.4 3.8-2.6c1-.6 1.8-1.4 2.7-2l2.3-1.5c1.1-.7 2-1.6 3.1-2.4l2.9-1.9 8.2-4.4 3-1.3.8-.7c.2-.3 0-.6 0-1-.2-1.5-.7-3-1-4.5l-.2-2.6c-.3-4.3-.4-8.6-.8-13-.3-4-.9-8-1.3-12.1l-.1-.3-.6-.4-2-.7c-3.4-1-6.9-2.1-10.4-3-1.5-.4-3-.5-4.4-.8-1.4-.2-2.8-.7-4.2-1l-9.3-1-11-1.2c-1.7-.2-3.5-.6-5.2-.7-2.8-.2-5.5-.1-8.3 0a145.5 145.5 0 0 0-12 1.2c-.4 0-.9.3-1.2.6-.7.5-1.4 1.2-2 2-.3.3-.4.9-.7 1.3l-.8.8a3 3 0 0 0-.6 1.1c-.3.9-.6 1.7-.6 2.6 0 .8.5 1.5.8 2.2l.5.5c.6.7 1 1.6 1.5 2.3.4.6 1 1 1.5 1.5 0 .1 0 .3.2.4l1.3.8 1.7 1.5 1.8 1 .8.9c.6.4 1.2.9 1.9 1.2 1.7 1 3.4 1.7 5.1 2.6l4.5 2.6 6.6 3.4 3 1.3 7.3 2.5 2.9.6.5-.2c.4-.2.6-.6 1-.7.3 0 .5.1.6.3.2.2.5.4.6.7 0 .4-.3 1 0 1.1 1.4 1.1 3 1.6 4.5 2.5l.5.5c.1.3.2.7 0 1-.1.3-.4.6-.7.7h-.7s-.1-.2-.3-.2c-.1 0-.2.3-.3.2-1-.2-2-.9-3-.8-.6 0-.6 1-1.1 1.2-.7.2-1.5.2-2.2 0-1.3-.3-2.4-1.5-3.8-1.5-.6 0-.7 1.1-1 1.6l-1 .5-.6-.2c-.2 0-.4.3-.6.2-.7 0-1.3-.3-1.9-.5-1-.5-2.1-1-3-1.6-1.5-.9-2.7-2-4.1-3l-2.7-1.7-.8-.9-1.9-1.2-2-1.1c-.7-.4-1.1-1-1.8-1.5l-2.1-.9-4.4-1.4-1.1-.8-6.7-3a80.4 80.4 0 0 1-12.5-7.3l-.8-.9-.8-.4a19.8 19.8 0 0 1-5-6.7c-.7-1.4-1.5-2.8-1.8-4.3a9.3 9.3 0 0 1 0-3.5c0-.4.4-.5.6-.8l.5-.7c.5-.6 1-1.2 1.6-1.6.8-.6 1.8-.9 2.7-1.4l2-1.8c1.6-.9 3.2-1.6 4.8-2.2l2.9-1 4-1 4.8-.8 7-.7c3.3-.2 6.7-.5 10.1-.6h13.3c.5 0 1 .3 1.4.4l3.2.4 10 1 4.3.7a266 266 0 0 1 19.5 4.4l2 .7h.6l.1-.4v-4.8c-.2-2.8-.5-5.5-.9-8.3v.3c-.3.2-.5.5-.8.5-.4 0-.7-.3-1-.5-.1-.2-.4-.5-.4-.9a10 10 0 0 1 0-2.5c.3-3 .6-5.8 1.1-8.7.5-2.6 1.3-5.1 1.7-7.7.4-2.9.5-5.7.8-8.6l.6-3c.4-1.8.8-3.5 1.4-5.2 0-.3.3-.4.5-.6h.4c.1 0 .3 0 .4.2.2 0 .4.2.4.3.3 1.2-.5 4 .6 3.6 1.5-.5 1.4-2.9 2-4.3a106 106 0 0 0 1.9-4.8c.4-1.1 1-2.2 1.1-3.4.6-3 .7-6.2 1-9.3l.2-.3.4-.9.6-.5a2 2 0 0 1 1.2-.5c.4-.1.9-.2 1.3 0s.5.6.7 1v.3c-1 3.5-2.3 7-3 10.5-.3 1-.5 4.2 0 3.2 2.4-4.6 4-9.7 5.9-14.6v-.5l-.7-.6c-.2-.2-.5-.5-.5-.8-.1-.9-.2-1.7 0-2.6.4-1.6 1.1-3.1 1.7-4.6a123.3 123.3 0 0 1 6.1-10.5l.5-.5 1-1.7c1.3-1.5 2.8-2.8 4-4.3l1.5-2c.4-.6 1-1 1.4-1.5.4-.5.7-1.1 1.2-1.5.3-.2.7-.2 1.1-.2.3 0 .7.5 1 .3 1.2-.9 2-2.1 3.1-3.1l.9-.6.6-.7 1.5-1.4 2-1.4 2.4-2 .8-.5 1.1-1.1 1.3-1c.4-.3 1-.4 1.4-.8.7-.5 1.2-1.2 2-1.6m-7.6 8.6-1 1c-.7.5-1.5.8-2.1 1.4l-5.3 5.2c-.2.3-.6.4-.8.6-1 .8-1.7 1.8-2.7 2.6l-2.6 2-.7.8c-.6 1-1 2-1.7 3l-.5.5c-.5.6-1 1.2-1.3 1.9-.7 1.4-1.2 2.8-2 4.2-.2.5-.7 1-.9 1.6a42 42 0 0 0-1.7 4.6c0 .2-.1.8.1.7.5 0 .7-.7 1-1l1-.5 4.2-4.3.5-.8c.8-.9 1.7-1.6 2.4-2.5.6-.6 1-1.3 1.5-2l.8-.8c1.4-1.9 2.8-3.8 4-5.7 2-2.8 3.5-5.6 5.3-8.4.6-.9 1.2-1.7 2-2.5.2-.4.7-.7.9-1l-.1-.5m-26 29.5-.1.4v.1c.2-.1.2-.3.2-.4m-.3 1c-.1 0-.2-.1-.2 0v.4m-.4.5.1.4c.2 0 .2-.3.1-.4m-.4.9v.4s0 .1 0 0l.1-.4m-10.2 23.8-.6 1a220.9 220.9 0 0 0-5.8 14.2c-.3 1-.6 2.1-.7 3.2-.1 1-.4 3.9 0 3 2.6-5.7 4.5-11.6 6.6-17.5.3-.8.5-1.7.6-2.6m-4.9 4 .2-.5c0-.1 0-.4-.2-.4l-.1.4m2.5 10.5h.3c0-.1 0-.4-.2-.4m-.4.7v.7c-.2.2-.4.4-.4.7l-1.7 4.9c-.9 2.2-2.3 4.3-2.6 6.7-.6 3.5-.2 7 0 10.5 0 2 .3 4.1.5 6.1 0 .3.2 1 .3.8.3-1 .4-2 .5-2.9l1.6-10.5 1.3-11c.2-1.5.6-3 .7-4.4V320m202.4 1.5-6.8.6a32 32 0 0 0-5.9 1.3c-2 .6-4 1.4-6 2.2-.7.2-1.4.5-2 1h.7l4.6-1.4 9.1-2.2c2.4-.5 4.9-.8 7.3-1.4m14 1.9h-3.4v.4c.1.2.2.4.4.4.5.2 1.1.2 1.6 0m-36.9.2c-3.3.2-6.6.3-9.9.7a279.3 279.3 0 0 0-13.3 3.8v1c.1 1 .3 2 .6 2.9l.5.4h.7l3.5-1.4 2.7-.7a279 279 0 0 0 13.9-5.3c.8-.4 1.8-.8 2.4-1.4m52.6.3v.2l.4-.1m-10.2-.1c-.2 0-.7-.2-.7 0 0 .3.4.4.7.5h.3v-.3m10.5 0c-.1.1-.5 0-.4.2.4.5 1.2.8 1.6 1.4.5.6.4 1.7 1 2.1.4.3.2-.9.1-1.3 0-.3-.3-.6-.5-.9l-1-1m-53.6 1.3h.5a.8.8 0 0 0-.4-.1m38.8.3h-1c-.1 0 0 .2 0 .2.8 1 1.7 1.8 2.4 2.8.6.8.8 1.7 1.4 2.4.6.6 1.5.9 2.1 1.5a7 7 0 0 1 1.3 1.8c.3.6.4 1.3.6 2 .2 1-.2 2.6.6 3.4.5.5 1-.9 1.3-1.4.4-.6.6-1.3.7-2 .5-2 1-4 1.1-6.2 0-.5-.3-1-.5-1.5l-.3-.3-1.3-.7-3.7-1.2m7.3-.2-.1.4v.2l1 .9h.4v-.3m-79.5 1.4c-.1-.2-.1-.5-.3-.6v4.1l.1.5c.3 0 .5-.4.8-.6v-.2m-3.6-3h-1.7l-1.9.6c-1.5.5-3.1 1-4.6 1.7-.3.1-.4.6-.6 1l-.5.3-4 1.6c-2.7 1.5-5.4 3.1-8.2 4.5-2.7 1.4-5.5 2.5-8.2 3.8-1 .5-2 1.3-3.1 1.8-1.7.9-3.4 1.6-5 2.3-2 .8-4 1.4-6 2.3-2.6 1.2-5 2.8-7.7 4-1.2.6-2.5.9-3.7 1.4l-.8.5-2.7 1-2.4 1.3-4.5 2.6-.5.5c-1.9 1.2-3.8 2.3-5.6 3.6-.8.7-1.5 1.5-2.4 2.1l-3.6 2.7c-.2.1-.5.3-.5.6 0 .1.3.1.4 0 .4-.1.7-.5 1.1-.7l4.8-2.2 4.4-2.9a151.2 151.2 0 0 1 12-5.6 231.5 231.5 0 0 1 14.4-5.1l3.5-1a173.4 173.4 0 0 0 13-5.1l9.2-4.4c.4-.2.9-.3 1.1-.7.2-.2-.4-.1-.7 0-1.6.4-3.2 1.1-4.9 1.6l-5.4 1.6c-2 .7-4 1.7-6.1 2.4h-1l-.8-.8a.7.7 0 0 1 0-.6c.2-.4.5-.7.9-1l3.5-1.5c2.4-1 5-1.8 7.5-2.7.6-.2 1-.6 1.7-.8 2.4-1 4.9-1.7 7.4-2.6l2.6-.8 3.6-.8a74 74 0 0 0 5.5-1.6l.8-.4.1-.5a44.8 44.8 0 0 0-.1-4m82.8 1.3c-.1 0-.4 0-.4.2 0 .4 0 1 .5 1.3.3.1 0-.7 0-1m3.4 1.4c-.4.4-1 .7-1.2 1.2-1 2-1.5 4.1-2.4 6.2l-.6.9-1 2.2c-.2.4-.6.7-.8 1.2l-1.4 3-.5.5-2 3c-.7.8-1.7 1.5-2.4 2.4-.6.6-1 1.3-1.4 2l-1.2 1.1c-.6.8-1 1.6-1.7 2.4l-1.1 1.1-1.7 2.4-1.8 1.7-1 1.4s-.1.2 0 .2c0 .1.3 0 .4 0l4-2.4 2-1.7.8-.5.8-.8c2-1.5 4.2-2.7 6.1-4.3 1.8-1.4 3.2-3.2 5-4.8.2-.3.7-.5 1-.8.7-.6 1.1-1.4 1.8-2 .2-.3.6-.4.8-.6l1.8-1.8.8-.5.6-.6 1-1.6.4-1c.3-1.3.7-2.6.7-4 0-.8-.4-1.7-.8-2.4-.3-.5-.7-1-1.2-1.2m-115.8 2h-.4c0 .2.2.2.4.2m-1.3 0c-.1 0-.5 0-.4.2h.7v-.1m-1 .3h-1a64 64 0 0 0-6 2.3v.3c.1.4.1 1.1.5 1 1-.1 1.6-1 2.5-1.5 1.2-.7 2.4-1.1 3.6-1.7m31.4.2c-.2 0-.6 0-.6.3a874 874 0 0 0-1.3 28v6.4l.3.6v.7c0 4.8.2 9.7 0 14.6-.1 2.9-.7 5.8-1 8.7l-1.5 7.8v1c0 .1 0 .4.2.5 1.8.9 4 3.5 5.6 2.4 1.8-1.4.4-4.6.7-6.8 0-.7.1-1.5.4-2.1 0-.3.3-.4.5-.5l.3.2c.2 0 .4.2.5 0a5 5 0 0 0 .6-2.4c0-.7-.7-1.3-1-2l-.5-3.3c-.2-2-.1-4 0-6 0-.4.3-.7.3-1 0-4.5.3-9 0-13.3-.8-10.7-2-21.2-3.2-31.8m-5.5-.1-4.9 1.7-2.7.7c-2.5 1.1-5 2.5-7.4 3.7l-3.4 1.4-1.4.8-6.3 2.9-8.6 3.2-4.5 1.3a305.5 305.5 0 0 0-18.2 6.7 127.4 127.4 0 0 0-10.1 5.4l-1.5 1.1-6 3c-2.4 1.2-4.9 2.3-7 4-.3.3.7.5 1.1.7l5.1 2.2 4.5 1.9 6.1 2.3c.8.3 1.4.9 2.1 1.2 1.5.6 3 1 4.6 1.7l2.4 1.1 13.5 4.6c2.3.8 4.5 2 6.9 2.8l6.3 1.9 4.2 1.6 10.4 3.5 7.8 2.4 2.6.7c1 .4 2.2 1.7 3 1.1 1.1-.8.8-2.6 1-4 .6-3.4 1.3-6.8 1.4-10.3.7-13 .8-26 1-39.1V340c0-.2-.3-.2-.5-.1m-14 2.5v.2h.5m-37.1 6.3-.4-.1h-.1c0 .2.2.2.4.2m-.6.2c-.1 0-.2-.2-.4-.1-.8.2-1.5.7-2.3 1l-3 1-7.4 3.4c-2 .9-4.2 1.5-6.2 2.4l-8.5 3.7-3.9 2.3-6.3 4.5a54 54 0 0 0-2.6 1.9l-.8.8-2 1.4c-.2 0-.4.3-.2.4.8.6 1.7.9 2.6 1.2h.3l3-2.3 6.1-3.9.6-.5a72 72 0 0 1 4-2.5l6.8-3.6 3.8-2.2 4.8-2.2 7.5-4.4 4-2m-150 1.8H101c-.3 0 .7.3 1 .4l2 .3 7.8 1.2a260.8 260.8 0 0 0 12.2.8c-1.6-.5-3.3-.7-5-1.1-.3 0-.6-.3-1-.4l-8-1.2m-31.1.3h-1.3c-.8.1-1.5.5-2.2.6-.2 0-.2-.2-.3-.3h-.7l-2 .6c-.8.3-1.7.6-2.5 1.2-.1.1.4.3.7.4h2.2c.8-.2 1.5-.7 2.3-1l4.5-1.4M69 353.9v.2l.4-.1m17.7.2h-.4c0 .2.3.2.4.2m-4.1-.2h-.4c0 .2.2.2.4.2m-14.6-.2s-.1.2 0 .2l.4-.1m22.1.2h-1.7c0 .2.3.2.4.2h1l.4-.1m-6.1-.2.7-.1c.1-.1-.3-.2-.4-.2h-1v.3m-.9 2.3h-2.5c-1.2 0-2.3.3-3.4.5a6 6 0 0 0-1 .4c-1 .4-1.8.7-2.5 1.2a5 5 0 0 0-1.3 1l-1.6 2.5-.6 1.5v1.6l.4.5a21 21 0 0 0 2.7 2.4c0 .1.1-.3 0-.4-.2-.8-.7-1.4-1.1-2.2v-.3c0-.7-.2-1.3 0-2 .1-.4.5-.7.8-1 .4-.6.8-1 1.3-1.4 1.6-1 3.4-1.7 5-2.5l4.2-1.8m-20 .3-2.2 1.1c-.6.5-1.1 1-1.6 1.7-.2.2-.5.5-.5.8a6 6 0 0 0 0 2.3 25.4 25.4 0 0 0 4 7.8 34.8 34.8 0 0 0 3.4 2.7c.1 0 .2-.3.1-.4-.2-.5-.7-.9-1-1.4-.3-.6-.7-1.2-.8-1.8-.4-1.6-.5-3.3-.9-5-.1-.4-.6-.8-.7-1.3v-2c0-.3.3-.5.3-.9 0-.3-.3-.6-.3-1v-1.5c0-.3.2-.4.3-.7m16-6v.1c.2 0 .7.2.7 0m-3.9 11.2v-.3h-.3l-.8.6-.9 1.1v1c0 .1.3.5.4.3.5-.6.6-1.4 1-2.1m78.7 2h-.4c-.1.2-.2.5 0 .6 1.6.6 3.3 1 5 1.4l2.4.5c1.3.2 2.7.3 4 .6 1.7.3 3.4 1 5.2 1.2.5.1 2.1.2 1.6 0-2-.9-4.1-1.4-6.3-1.9-2-.5-4-.7-6.1-1.1m211.3-1-2.3 2a67 67 0 0 1-3.8 2.5c-1 .6-2 1-3 1.7-.9.7-1.6 1.6-2.4 2.4l-.9.5c-.3.4-.6.8-1 1-.2.3-.5.3-.8.5-.3.3-.7.5-.8 1 0 0 .3.1.4 0l2.5-1.4 5-3.5c.5-.3.8-.8 1.2-1.1.2-.3.6-.4.8-.6 1-.7 1.8-1.6 2.7-2.3l.8-.5c.6-.6 1.2-1.1 1.7-1.8m-217.1 2.4-.2.8c0 3.9-.2 7.8 0 11.7.2 3.3.7 6.5 1.1 9.7a91.9 91.9 0 0 0 2 8.5h.3l2.4-1.1c1.6-.9 3-1.9 4.6-2.7 1.7-1 3.5-1.7 5.1-2.6 2-1.1 4-2.4 6-3.4 3-1.7 6.3-3 9.4-4.6l2-1.5c.6-.3 1.2-.4 1.8-.8l3.1-2.2.5-.5c.8-.5 2-.5 2.4-1.3.2-.5-.9-.5-1.4-.6-1-.5-2.1-1-3.3-1.2l-6-1.5c-1.8-.5-3.6-1.3-5.4-1.7-4.4-1.1-9-2-13.4-2.8-1.8-.4-3.6-.5-5.3-.8l-4.8-1.4m58.7 1-.4.1.4.1m-1 .2c-.6.4-1.2.5-1.6 1-.1.2.5.2.7 0 .3 0 .6-.2.9-.4.2-.2.5-.3.5-.6 0-.1-.3 0-.4 0m-40.3 0s-.1.1 0 .1c.2 0 .7.2.7 0m-105.7.1-.2.5.7.7.5.7a11.4 11.4 0 0 0 3.4 2.8h.3v-.4l-1-.5m154.3-3.4h-.4c0 .2.2.2.4.2m5.3.2h.4s.1 0 0 0a.8.8 0 0 0-.4-.1m-6 0c-1.2.8-2.5 1.5-3.7 2.4-.4.2-.9.5-1.1 1l.4.3h1c.3-.1.4-.5.7-.7l.7-.5c.7-.6 1.4-1.2 2-2l.1-.4m-22.3 5.5c-.1 0-.3 0-.4.2.3.1.5.2.7.1.2 0 .6 0 .4-.1m1 .2c-.3 0-.8-.1-.8.1 0 .3.5.1.7.1m151.7.4-.5.1c-.1.1-.3.2-.3.4h.5c.2 0 .3-.2.4-.4m-148.6.3c-.3 0-.7-.2-.8 0 0 .3.5.2.8.2m.6 0c-.1 0-.5 0-.4.2h.7c.1 0 0 0 0-.1m146 .3v.2l.4-.1m-145.4-.1h-.4c0 .2.2.2.4.2m-10.5.7c-.2-.1-.4-.4-.6-.3-1.5.7-3 1.5-4.4 2.4l-3.1 2.2-.6.5-2.6 1.4-1.2.9-5.3 2.8c-1.8 1-3.7 1.7-5.5 2.6l-11.2 6.1-2.5 1.5c-1.5.8-3.4 1.1-4.6 2.3-.5.4.2 1.2.4 1.8l.3.2h.3l3.7-2 6-3c.4-.2.6-.5.9-.8l2.2-1.6a51 51 0 0 1 9.4-4.3h1l.7.8v.4l-.5.7c-.4.5-.8 1-1.3 1.3-.8.5-1.7.6-2.6 1-3.3 1.7-6.7 3.4-9.9 5.2-1 .6-1.8 1.4-2.7 2l-3.5 2.3-2 1.1c-.4.2-.8.5-.9.9a4 4 0 0 0 0 1.9l.5.1 2-.7c1.9-1 3.7-2 5.5-3.3 2.7-1.8 5.1-4 7.8-5.9l5-3.5 2.4-1.4.8-.8 1.7-1 2.1-1.8 2-1.5c.4-.2.6-.5.9-.8 1.3-1 2.7-1.7 4-2.6.6-.6 1-1.3 1.7-1.8.3-.2.6-.3.8-.6l1.4-1.3.8-.5c.6-.5 1.1-1.2 1.8-1.7.2-.3 1-.3.9-.7-.2-.4-.9-.3-1.3-.5m13.2.5.2.2c.3.2.7.5 1.1.5.2 0 .6-.2.5-.3-.2-.4-.7-.5-1-.6m-136.5 0c-.2 0-.5 0-.4.1.8.6 1.8 1.1 2.7 1.6l2.4 1.1c.2 0 .9.1.8-.1-.3-.6-1-1-1.5-1.2m123.2-.5h-1c-.3.1-.4.5-.7.7l-.7.4-1.5 1.5-.8.4-1.7 1.8-.9.5-3.3 3c-.4.3-1 .4-1.4.8l-9.7 7.4c-.4.4-1 .5-1.4.8l-5 3.5-1.8 1.5-4.3 3-.5.5c0 .2.3.2.5.1 1.2-.6 2.3-1.6 3.5-2.2 2.1-1.2 4.4-2.2 6.5-3.3l2-1.5c2.4-1.4 4.9-2.6 7.2-4 1.3-.7 2.6-1.6 3.8-2.5 2-1.5 3.9-3.3 6-5l3.2-2.3 1.5-1.4c.6-.6 1.4-1 2-1.4l1-1c.1-.2.3-.3.2-.4m10.6-.3-.4.1c0 .2.3.2.4.2m12.1.4h-.4c0 .2.3.2.4.2m.2.2.4.1s.2 0 .1-.1a.8.8 0 0 0-.4-.1m-20 0-.5.1c-.3.3-.7.6-.8 1-.1 0 .2.1.4 0 .5-.1 1-.4 1.3-.8m20.9 0c-.3 0-.7-.1-.8.1 0 .3.5.2.8.1m-148.2-.2-.4.1c0 .2.3.2.4.1m149.2.1c-.3 0-.6-.1-.8 0 0 .2.3.3.5.4l2.2 1 3.3 1c1.2.4 2.2 1 3.4 1.5a61 61 0 0 0 5.6 1.7c.3.1 1.3.2 1 0-1.4-.8-3-1.3-4.6-2l-5.4-1.8-2.7-.8m-11-.2.8.5c1.9.6 3.7 1 5.6 1.7l6.8 2.6h.7a17 17 0 0 0-3.6-1.9c-3.2-1.2-6.5-2.1-9.8-3m-10.8 0h-.5l-4.5 2.7-3.7 2.4c-1.8 1.1-3.7 2.1-5.5 3.3-2.2 1.4-4.3 3-6.5 4.3l-2.7 1.4-8.1 5-1.7.7-1.2.8-3.9 2c-1.3.8-2.4 1.8-3.7 2.5l-6.4 2.9-1.6 1c-1 .4-1.9.7-2.8 1.2-.3.2-.7.3-1 .6 0 .1.3.2.3.4l-.5.9v.4c.8 2.8 1.6 5.6 2.6 8.3l3.5 9.6 1 2.6 2.5 5.3c1.1 2.3 2.1 4.6 3.5 6.7.7 1 1.7 1.8 2.6 2.6l.9.5c1.2 1.2 2.3 2.5 3.6 3.6l.8.5 2 2 1.3 1c1.6 1 3.3 1.7 4.9 2.7 1.4.8 2.8 1.9 4.3 2.7 1.7 1 3.4 1.7 5.1 2.6l5.4 3.1 10.9 5.9c1.3.7 2.6 1.7 4 2.4 1.5.8 2.9 1.6 4.4 2.2 2.6 1 5.2 2 7.8 2.7.4.1.9-.3 1.3-.3 1.2 0 2.3.3 3.5.4a415.8 415.8 0 0 0 9.2.5l.3-.2h7.3c.4 0 .6.2 1 .3h3.5a49 49 0 0 0 11.4-2.2c1-.3 1.7-.8 2.6-1.1 1.2-.5 2.5-1 3.7-1.2 1.8-.5 3.7-.7 5.5-1.2.4-.1.8-.3 1-.6 1.5-1 3-1.9 4.2-3 .7-.9 1.1-2 1.8-2.8.2-.4.5-.6.8-.9l.4-.7 4-4 .5-.8 1.4-1.5 2.3-2.8c.6-.9 1-1.8 1.7-2.7l.5-.5c1-1.4 2-2.8 2.8-4.4.6-1.2.7-2.7 1.1-4l1.2-2.7c1-2 2.2-4 3.1-6 .5-1 .7-2.1 1-3.2a35.7 35.7 0 0 0 .5-6.6c-.4-3.4-.3-7-1.6-10.3-.4-1.2-2-1.4-3.1-2a110 110 0 0 0-7.7-3.8l-2.2-1c-1.2-.6-2.4-1.6-3.7-2.1-1-.4-2 0-3-.5-.4-.2-.3-.8-.5-1.1l-1-.7c-.8-.4-1.6-.9-2.5-1.2l-2.2-.7-9.5-3.8-13.5-4.9c-2.6-1-5-2.1-7.6-3-1.5-.6-3-1-4.5-1.4l-2.9-1.1c-1.7-.6-3.5-.8-5.2-1.4-3.8-1.2-7.5-2.7-11.3-4l-4.4-1.4-3.5-1.4c-1-.4-2-.5-3.1-.8m33.2 4.3h-.7c.2.5.7.5 1.1.7 1 .4 1.8.9 2.8 1.1.2.1.8.2.7 0-.2-.4-.7-.5-1.1-.6m-12.3-.8h-.4c0 .2.3.2.4.2m-.6-.4-.4-.2s-.1.1 0 .1l.4.1m1.1.6h.5a.8.8 0 0 0-.4-.1m13.4 1.2-.5.1c0 .2.3.2.5.2m.6 0c-.1.1-.4 0-.4.2 0 .1.3.1.4 0m-147.2 5.3s-.1.1 0 .2l.4-.1m8.5.2h-.5c0 .2.3.2.4.2m-7.9-.2h-.4c0 .2.1.3.2.3l1.5.8h.4c0-.2-.1-.3-.2-.3M272 397l-.4.1c0 .2.3.1.4.1m-155.5-.2v.2h.4m156 .1h-.7c.3.4.8.5 1.2.7l.9.3c1.3.4 2.7.9 4 1.1.4.1 1.3.2 1 0-.5-.5-1.2-.5-1.9-.7m-167.9-1c-.1 0-.4-.1-.4 0 0 .2.3.2.4.2m170.4 1.6-.4.1c0 .2.3.2.4.2m1 0c-.2.1-.4 0-.4.2 0 .1.2.1.4 0M153 403.8l-4 2-.2.3v.5l.8 1 .5.5.5-.1c1.2-.7 2.5-1.2 3.5-2.2.3-.3 0-.9 0-1.3-.1-.4-.2-.8-.5-1m144.4 2.2h-.4c0 .2.3.2.4.2m1 .1-.5.1.5.1m.6.1-.4.1c0 .2.3.2.4.1m1.6.1c-.4 0-1.7-.2-1.4 0 2 1.2 4 2 6.1 2.8l.8-.1v-.6l-.5-.3m-137.1-1.7.4.1h.1a.8.8 0 0 0-.4-.2m-22.9.7c-1 .6-2.3 1-3.4 1.7a18 18 0 0 0-2.8 2l-3 2.3c-1.1.8-2.3 1.3-3.4 2l-.5.6-5 3.5-9 5.2c-.5.2-.8.5-1.2.8l-2.7 1.4-1.4 1.1-6.2 4c-1 .7-1.8 1.6-2.7 2.4l-.8.4c-.4.4-1 .7-1.1 1.2 0 .3.5.2.7.1 1-.3 1.8-.9 2.6-1.3l3.9-1.6 1.5-1 1.1-.4.5-.5 1.7-1c1.2-.6 2.4-1 3.5-1.7a83.2 83.2 0 0 0 6-3.4l.6-.5 3.3-2 .8-.9 1.7-1c.7-.6 1.3-1.3 2.1-1.8 2.5-1.7 5.2-3 7.7-4.6a40 40 0 0 0 6.6-4.8c.2-.3 0-.6 0-.9 0-.3-.3-.6-.5-.8m144.5 0c-.4.4-1 .7-1.2 1.2l.3.2 2.6 1 5.2 1.7c.2 0 .9.2.7 0-.3-.5-1-.8-1.5-1l-2.2-1m14.1-.2-.2-.2a1 1 0 0 0-.5.6c0 .1 0 .3.2.4l3.5 1.6a42 42 0 0 0 2.9 1v-.9c-.1-.2-.4-.2-.6-.3M155.2 410c-1 .6-2.2 1.2-3.1 2-.1.1.2.4.4.3.2 0 .3-.4.6-.5h1l.4.1.3.3v1c-.2.5-.7.7-1 1.1-.1 0-.2.2 0 .3l.4-.1a30 30 0 0 0 2.5-1.6l-.8-1.2m143.8.1-.4.1c0 .2.3.2.4.1m19.6 1.5c0 .4-.2.8 0 1.2 0 .2.3.2.5.3l13.1 5.5 10.4 5c1 .6 1.9 1.4 3 2 1 .5 2 1 3.2 1.4.1 0 .3 0 .4-.2l-.2-.2-1.6-1-3.5-2-8.6-4c-2.8-1.5-5.4-3.1-8.2-4.5l-8-3.6m-10 0-.4.1c0 .2.3.1.5.1m-160.3-.2c-.6.4-1.4.6-2 1.1-.1.2.5.2.8 0 .5-.1 1-.4 1.3-.8m161.4 0c-.3 0-.7-.2-1 0-.1.1.3.3.5.4a96 96 0 0 0 4.8 2c0-.2 0-.5-.3-.6m-158-.1-2.6 1.4c-.1 0-.3.1-.2.2.9 1.6 2 3.1 3 4.7l.5.5 1 1.7c.6.7 1 1.5 1.7 2v-.7m143.3-9.6-.4.1c0 .2.3.2.4.1m1.3.1c-.3 0-1.3-.2-1 0 .6.8 1.5 1 2.3 1.5.1-.3.3-.7.1-.9m12.5.8c0 .2-.2.4 0 .5 0 .2.3.3.5.4 1.6.6 3.2 1.3 5 1.8h.7c-.3-.5-.8-.6-1.2-.7l-3-1c-.6-.4-1.3-.8-2-1m-9.4 0c-.3 0-.5-.2-.7 0l-.2.3v.7l.7.6a69.5 69.5 0 0 0 4.4 2.5c.4-.7 1.2-1.5 1-2.4-.3-.6-1.3-.5-2-.7m-165.7-.8h-.7l-2.7 1.1-3.5 2-1.1.8c-.7.3-1.4.4-2 .8-.9.3-1.6.8-2.3 1.2l-4.8 3.2-.5.5a34 34 0 0 1-2.5 1.6l-4 2s-.2.2-.1.3l.4.1h1l1.4-.5 1.5-.6 2.6-1.3 3.7-2.4 8-4.6c1.1-.6 2-1.5 3.1-2l2.4-1.2.2-.2m3 .9-.4.3v2.3c0 1 .3 2 .5 3a110.3 110.3 0 0 0 3.5 10.8l1.3 2.6a60 60 0 0 0 2.2 3.5l.5.5c.6.8 1 1.8 1.7 2.6 1.4 2 3 3.7 4.3 5.6l1.1 1.7 1 1.3c.1.2.3.5.5.5s.2-.3.1-.4c-.2-.7-.7-1.3-1-2l-1-3c-1-2.1-1.8-4.3-2.9-6.3-.5-1-1.2-1.7-1.9-2.6l-.8-.8-.5-.8-.8-.8c-.6-.9-1-1.8-1.5-2.8l-.6-1.5v-1.3l.1-.5c.2-.2.8-.2.8-.5-.1-.6-.7-1-1-1.6l-2-4.2m172.3-4.7h-.4c0 .2.3.2.4.2m-6.6 0c-.2.1-.5 0-.6.3-.3 1-.5 2-.5 3 0 .3.3.6.6.7 2.3 1.1 4.7 2 7 3.2 4 2 7.9 4.4 11.8 6.7l4.4 2.9.8.8c1.2.6 2.5 1 3.6 1.7l6.7 4.1c1.4 1 2.8 1.8 4.1 2.9.7.5 1.4 1.2 2 2l1 1.2 2.2 4.5c.6 1.3 1.2 2.6 1.4 4a16.2 16.2 0 0 1-.8 7.9c-.3 1-.8 1.8-1.2 2.7-.7 1.2-1.5 2.3-2 3.6 0 .2.3.2.4.1.5-.1 1-.4 1.5-.8l1.1-1.1c.4-.3 1-.4 1.4-.8l1.6-1.6.6-.8 1-1.1c.7-1 1.6-2.1 1.8-3.4.4-2.4.2-4.9 0-7.3 0-1-.5-1.9-.8-2.7l-1.3-2.9-1.1-1.5c-.8-1-1.3-2.2-2-3.3-1-1.3-1.8-2.7-3-3.8a17 17 0 0 0-3.8-2.6c-2.3-1.2-4.8-2.1-7-3.2l-2.8-1.5c-1.7-.8-3.5-1.4-5.1-2.3-1.4-.6-2.5-1.6-3.9-2.2-3.2-1.6-6.6-3-9.9-4.5l-4.6-2.5-2.3-1m-11.2.3c-.2-.1-.5-.4-.7-.3a70 70 0 0 0 1.1 8.7c.1.4.4-.5.5-.9.7-1.9 2.3-3.7 2-5.8m-155.9 1.5v.4s0 .1 0 0l.1-.4m.2.6v.7c.5 1.8 1.3 3.6 2 5.3l1 2c1.8 3 3.6 6 5.7 8.8.3.4.7.7 1.2.8.1 0 .2-.3 0-.4-.3-.8-.9-1.6-1.3-2.4l-2.3-4.5-5.4-9.2m177.8-.8-.4.1.4.1m-175.5-.2v.5l.1-.4m176.4.2-.5.1c0 .2.3.2.4.1m.3.2.4.1s.1 0 0 0a.8.8 0 0 0-.4-.2m.6.4 3.2 1.7 1.1.8c1.2.7 2.4 1.3 3.7 1.8.1 0 .5 0 .4-.1-.2-.4-.7-.6-1.1-.9a51.3 51.3 0 0 0-6.6-3.4m11.8 2h-.4c0 .2.2.2.4.2m4 4 1.5 1.2 3 2 1 1.2.8.4.7.7.5.8.8.4h.1v-.5a85 85 0 0 0-5.2-5.2c-.7-.6-1.6-.9-2.5-1.1m-237 3.3-.3-.1h-.1l.4.2m-1.3 0-.7.4-4.9 1.7a28 28 0 0 0-3.4 1.6 201.3 201.3 0 0 0-11.8 7.3l-1.2 1.2-.7.4-2.1 2.1-.9.5-1.5 1.6c-.4.5-.6 1.2-1.1 1.7-.3.3-.8.2-1.1.5-.4.4-.5 1-.8 1.4-.6 1-1.4 1.8-2 2.7l-1.3 2.2c-.5 1-1 2-1.2 3.1-.2 1.4-.1 2.8 0 4.1.1 1.6.5 3.1.8 4.7l.6 1.8a47 47 0 0 0 1.7 3.7l1 .9a8.9 8.9 0 0 0 3 1.4c1 .2 2.1.2 3.2 0 .3 0 1.2-.1 1-.3-1.2-.7-2.6-.8-3.8-1.4-.5-.4-.8-1-1.1-1.6v-.3c0-1.1-.2-2.3 0-3.5.2-1.6.7-3.1 1.1-4.7a49.2 49.2 0 0 1 2.9-6.6c.5-.6 1.2-1.1 1.7-1.8.8-1 1.3-2.2 2-3.3l.9-.8c.2-.3.2-.8.5-1 .2-.4.5-.6.8-.9l.4-.8 5.3-5.3.9-.5 1-1 .7-1 1.9-2 .8-.5 3-3c.3-.2.7-.3 1-.6l2.9-3 1-.6.3-.3-.1-.1m246.2.3v.2l.7 1c.3.5.8.8 1.1 1.2l3 4.3 1.5 1.7c.5.8.8 1.7 1.4 2.4.5.6 1.2 1.1 1.7 1.8l1 1.2a35.5 35.5 0 0 1 2.2 4.1l.6 1.5a9 9 0 0 1 0 2.6l-.9 2.4a49.1 49.1 0 0 1-2.5 5.4l-1.6 1.6-.1.3a28 28 0 0 1-2.2 2c-.6.5-1.4.8-2 1.4-.9.7-1.5 1.7-2.4 2.4l-2.6 1.6-3.1 1.6c-1.4.5-2.8.8-4.2 1.1-1.4.4-3 .5-4.4.8-.7.1-2.5.1-2 .6 1 .9 2.6.9 4 1.1a36.4 36.4 0 0 0 6.6-.6c2.2-.4 4.5-.9 6.7-1.5l3.1-1.2a4 4 0 0 0 1-.7l1.7-1.7.9-.6.7-.7c1.4-1 3-1.7 4.3-2.7.4-.3.7-.8 1-1.3l.5-1.1v-2c-.2-1-.6-1.9-.6-2.8 0-1.5.5-3 .6-4.5 0-1.2.2-2.5 0-3.8-.2-1.3-.7-2.5-1.2-3.7a25.3 25.3 0 0 0-2.8-5.7l-.5-.5-1.1-1.7c-1.4-1.6-2.8-3-4.4-4.4-1-.8-2.2-1.4-3.3-2l-2-1.1m-271.4 7.3-1.8.8-1.5 1.2c0 .1.3.2.5.1a34 34 0 0 0 3.8-2.2v-.2m-8.6 2.2h-.5a28.4 28.4 0 0 0-3.5 2.4c-.4.3-.5.7-.8 1-.4.6-1 1-1.3 1.5-.1 0 .3.1.4 0 .3 0 .5-.4.7-.6l1.7-1.1c.5-.3.8-.8 1.2-1.1l.8-.6c.5-.4 1-.8 1.3-1.3m284 2.3s-.1.1 0 .2c0 .5.2 1 .3 1.4l1.8 3.9c.4 1-.1 3.3.8 3 1-.4.3-2.3 0-3.3-.4-1.6-1.3-3-2-4.3l-.7-.9m-201.7 2-.1.4h.1l.1-.4m-79.4 0H88c-.3 0-.5.2-.7.4-1.1.6-2.3 1.2-3.3 2-.6.4-1.2 1-1.6 1.5-.5.8-1 1.7-1.2 2.6-.3 1.2-.5 2.5-.6 3.7 0 .4-.2 1.7.1 1.3 1-1.2 1.5-2.7 2.3-4l.7-1 .8-.9.6-.9.5-1 1.3-2 1.5-1.5m79.6.4v.4s0 .1 0 0l.1-.3m.2.5c0 .2-.1.3 0 .4.2.8.6 1.5 1 2.1.2.3.3.8.7.8.2 0 .1-.4 0-.7l-.8-1.4m3.3 0-.2.5c.1.2.3.4.5.4.1 0 .1-.3 0-.4m1 1.2-.2.4s.1.1.1 0l.1-.3m-95-.1h-.4l-.8.8c-.2.2-.4.5-.4.8v.5a10 10 0 0 0 1.7-1.9m295.8 1.4-3.3 8.2c-.3.7-.8 1.3-1 2-.1.1 0 .5 0 .4a14 14 0 0 0 2.2-2.7c.6-1 .9-2.1 1.3-3.2.3-.8.7-1.6.8-2.4m-196.5-2.3-.1.4v.1l1 1 1.7 2.3 1.1 1.1.5.8 1.7 1.7.6.9c.4.5 1 .9 1.3 1.4l.5.7a41 41 0 0 0 3.8 3.2 98.2 98.2 0 0 0 6.7 3.6l2.3 1 13.3 6.6c1 .4 1.8.9 2.8 1.2a148.8 148.8 0 0 0 9.2 2.9c2.6.4 5.2 1 7.8 1.1 2.1.2 4.3.1 6.4 0 2.8-.1 11 0 8.4-.6-4.6-1.2-9.5-.5-14.2-.8a39 39 0 0 1-4-.5c-.6 0-1.3-.3-2-.5-1.6-.6-3.3-1.2-5-2-1.7-.6-3.3-1.5-5-2.4l-1.8-1.2-8.7-4.6c-2.5-1.4-5-3-7.6-4.3-1.6-1-3.4-1.7-5-2.6l-6.6-4c-.6-.4-1.2-.5-1.7-.8-.5-.2-.8-.6-1.2-.8l-2-1.1-1.3-1-.9-1m-7.1-.3-.7.7c-.3.2-.6.5-.9.5l-1-.3c-.1 0-.4 0-.4.2 0 .3.3.6.5.8.8 1 1.7 1.8 2.4 2.8l1.7 2.3 3.2 3.2.9.6 1.4 1.3c.2.2.6.3.8.6 1 .7 1.7 1.6 2.7 2.3l3.8 2.5 4.8 3 3.1 2.1 3 1.7 2.2 1 2.2 1.2c.5.3.9.8 1.4 1h.6c.1 0 0-.2 0-.2l-.7-.8-.9-.5-1-1-2.6-2-1.7-1-2-2.1c-.9-.7-1.9-1.1-2.7-1.7l-.9-.9-2-1.4-.8-.8-3.8-2.5c-.4-.3-1-.2-1.4-.5a2 2 0 0 1-.8-.9c-.2-.2-.1-.6 0-1 0-.2.3-.3.5-.5l-.1-.2-3-2.6-.7-.5c-.6-.4-1-1-1.5-1.4-.2-.3-.6-.4-.8-.6l-1.1-1-.8-.5m124.3-2v.6l.1-.4m-221.9-.1-.5.5a29 29 0 0 0-2 2.8 13.9 13.9 0 0 0-1.4 4v1.7c.3 1 .8 2.1 1.5 3 .8 1.2 2 2 3 3 .1.3.2.6.5.9.3.4.7.8 1.2 1.1 0 0 .1-.3 0-.4-.4-1-1.1-2-1.6-3-.4-1-.9-2.2-1.1-3.3-.2-.9 0-1.7 0-2.6l.6-6.3v-1m221.3.2-1.8 2.4-.5.9v.1l.6-.1.5-.9.8-.8c.2-.2.5-.5.5-.8m-163 8.2-.5-.1-.1.1.4.1m-1 .4-.3.1c0 .2.2.2.4.1m-1 .5h-.4c0 .2.3.2.4.2m-4.7.4h-.5c-.7.4-1.7.5-2.1 1.1-.3.4.9.2 1.3 0 .3 0 .6-.2.8-.4l.5-.4m-2.9 1h-.4c0 .2.3.2.4.2m162.8 1.7h-.5l-.6.6-.7.5-1 1-1.1 1.7-1.6 2v.3h.2l2-2c.3-.2.4-.6.6-.8l2-2 .8-1.2m-164.6 1h.5a.8.8 0 0 0-.4-.2m-6.3 4.2-2 .6c-3 .5-6.2.7-9.2 1.5-2 .4-3.8 1.4-5.7 2l-6.9 1.8s-.2 0 0 .1c.6.3 1.4.7 2.2.8 1.1.2 2.3.2 3.5 0 .5 0 1-.4 1.5-.6l3.5-.8c1-.3 1.8-.8 2.7-1.2l4.4-1.6 4-1c.8-.3 1.3-.9 1.9-1.3l.2-.2m153.1 3.3-.4.1c0 .2.3.2.4.2m-.6 0h-.7l-1.1.6-.2.2c.2.1.5.2.7.1m-1 .1-.3.1c0 .2.2.2.4.1m-1 .1-.4.1c0 .2.3.2.4.1m-6.3 1.7h-.7c-.1 0-.5 0-.4.1.2.2.5.2.8.2.1 0 .3 0 .4-.2" style="fill:#000;fill-opacity:1;fill-rule:nonzero;stroke:none" transform="matrix(.04413 0 0 -.04413 -2.2 22.3)"/>
  <path d="m347.4 436-5-1.7h1.4l.4.2h.4l1.4.8 5 2.5 3.6 1.6 5.8 3 1.7 1.3 2.6 2.1.8.5 1.9 1.6 1.8 1.8 1.2 1.6 1.5 2.5.5 1.2.5.8.3 1.3.6 2.9-.2 2.3-.7 2.4-.6 1.6-1 1.5-1.7 2.2-2.7 3.2-1.6 1.6-.7.6-.9.4-1 .8-2.2 3.1-1 1-1.4 1-1.6.8-2.2.8-3.2.7h-1.7l-3-.2h-1l-3.8-.8-4.6-1.3-1.3-.1-1.6-.5-1-.4-.2-.3h.6l.5-.7.4-.3h.1l.6-.2h1.4l9.1 1.1 6.9.4 2.7.3 6.5-.1 3.4-.5h1l.9-.2 3-1 2.7-1.4 2-1.9 1-1.2 1-1.8 1.6-4.4.4-1.6.3-2v-3l-.9-5.5-.3-1.5-1.8-4.7-.7-1.3-.8-1.3-1.1-1.2-3-2.6-5.3-3.3-1.7-1-4-2.4-1.8-.8-3.4-2-2-.8-1.1-.6-3.8-1.2-3.2-1.7-3-1.2-1-.2-1.2-.6-8.7-3-1-.5-3.6-1.2-1.8-.8-1-.6-1-.2-1.4-.6-.8-.1-13.8-6.7-1.1-.8-.4-.4-1.1-.7-.4-.6h.3" style="fill:none;stroke:#000;stroke-width:2.18683;stroke-linecap:round;stroke-linejoin:round;stroke-miterlimit:10;stroke-dasharray:none;stroke-opacity:1" transform="matrix(.04413 0 0 -.04413 -2.2 22.3)"/>
  <path d="m334 425.2-1.4-.3-3.6-2.3-3.4-1.7-2.6-1.2-3.8-1.3-10.6-4.1-10.4-3.7-7.4-3.1-6.5-2.5-9.2-3.3-4.8-1.9-2.4-1-6-2.2-2.4-.6-3.7-1.5-7-2.4-4.8-1.5-5-1.8-2.5-1-8.7-3-4.9-1.8-2.4-1.3-2.5-.7-10.9-4-2.4-.6-1.2-.6-3.6-1.2-2.4-.7-7-2.4-5.7-1.5-2.3-.7-7-1.6-8-2.5-6.9-1.5-7.5-2-10-2.3-12.1-2-4.3-.4-1.7.2-.8-.2-4.3-.5-6.4-.4-11.9-1.4-4.2-.2-4 .1-6.6.5-3.4.8-2.4 1-.9.7h-.4l-2.3 1-1.4 1.1-.7.8-.6.4-1 1-1.2.6-1 .9-.4.1-.4.6-.6.5-2 2.1-1 1.6-.6 2.9v.8l.1 1.4.8 2.3 1.3 2 1.3 1.7.7.8.5.4 1.7 1.7 1.6 1.3.8.4 2.5 2 6 3 1 .7 7 3.7 4.4 1.7 4.9 2.4.9.6 2 1 .9.2 3.1 1.6 1.5.7.7.1 2.6 1.3 1.6.6 1 .2h1l.4-.1h-.4v-.3l-.6.1-.8-.2-.6-.4-.1.1-.8-.1h-.5l-3-.9-2-.7-8.5-3.7-1.6-.8-1-.6-2.5-1-1-.8-2.5-1.2-6.4-3.9-5.7-4-1.3-.7-4.9-3.3-1-.4-1.5-1.2-1-1-1.2-1-.6-.3-1.3-1.3-1.6-2.3-.5-1.3-.2-.6v-.6l.3-.6-.2-.3.1-.1.1-1.1-.5-1.1-.5-2-1.4-2.8-.6-1.9v-1l.2-1 .3-1 .4-.5M152.1 494l-.6.7h-.2l.2-.1.1-.5.7-1.1 1.3-2.7.5-.8 1.2-2.9.9-1.4.6-.7.6-1.7 1.3-1.2h.1l.1-.2v1.6l-.3 1.8-.4 3.6-.2.4.8 3.6.6 1.9.2 1.3.3.6.2 1.4v.1l-.5-.5-2.8-2.7-2.3-3.2-3.5-3.6-1.7-1.3-2.5-1.6-1-.2h-.7l-.2.2v-.1h.1v.4l.1-.5h2.7l1 .4.8.1 1.2.4.8.1 2.8 1.2 2.5.7 1 .1 3.2.7 1.7.1.8.3 2.3-.3v.2-.3l-.1-.2h-2l-.9.3-.4.4-1.8.6-1.4.7-2.4 1.4-.9.9h-.3l-1.3.7-1.6 1.3-3.1 2.2-2.2 1.3h-.2v-.2h.2v.2-.4.1h.2v.2l.3-.7 1-1.1 1.1-1.7.6-1.4.1-.8.8-1.4.4-.4.8-2.3 1.5-2.7 1.7-4.6.7-1 .2-.2.2.2.1-.3v-.4h.1v-.2h0v.4l-.3.7-.2.3-.2 1.2-.3 3.8-.2.6.4 2 .2.6h.2l.6 1.2 1.9 5 .7 1.6.1.5v.5h-.2v-.2l-.2.3-.8-.3-.7-.7-1.2-1.8-1.6-3.1-1-1.2-2-2-1.6-1-1.6-1.3-.6-.7-1-.9-1.6-1.7-1.7-1.6h-.4v-.3l.4.5v.4h.1-.1.2l.3.6.8.5h.4l1.5.8 2.9.7 1.1.1 2 .6 1 .5.4-.1 2.4.2 2.3.4 3.4.4.5-.2 1.7-.1.2-.1v-.1l-.2.4v-.5l.1.2v.3l-1.9 1.2-3 1.7-1.9.9-1.3 1-.4.4-1.1.7-1.4.6h-.5l-1 .6-.5.3-1.5.3-1 .7-.4.5h-.3l-1.3 1-.7.6.4-.1h0l.2.7.4-.2v.2l2.3-2.9 1.6-2.9 1.6-4 .3-.3.5-1.7 1.2-3.2.4-.5.9-3.1.3-1.5h-.2l.2.5-.1.1v-.2l.1.8-.1 2.5v3.1l1.1 5 .2 2 .4 2.2v.2l.3 2.5-.1 1.2-.1-.2v-.2h.1l-.3-.4-.1-.4-.7-1-1.3-2.8-.8-1-1.3-1.3-.8-.7-.7-.3-1.4-.8-1.6-.7-1.2-.3-1.8-1-1.7-1.6-.2-.3-.6-.7-1.3-2.2-.4-.7v-.3l1.3.8 1.2 1 1.2 1.9.8 1.6.6 1.7m-19.4 8.5-.2.3h.1l.9-1.2.6-1.2 1.4-3 .6-1.6.5-1 .3-.3.2-.9.2-.2h.2-.1l-.1.4v1.3l-.1.8-.4.9-.4 3.1.1 1.7.1.4.3.3v.8l.3.4-.2-.3v-.4.1l-.8-.2-3.2-2.4-1.8-1-.2-.3-.4-.1v-.3h-.2v-.1.3-.2h0l.2.2 4.7 1h2.6l.4-.2.5.1 1.2-.5.6-.5.1-.4.2-.2.1.1.4-.2h.3l.4-.7.3-.2-.3.3h-.5l-2.2.6-1 .8-.7.1-.3.2-2 2.5-.3.2-.8 1.4-2 2.3-.4.3-1.4 1.8v-.1l-.1.4.2-.6v-.3l.6-.8.4-1.2v-.6l2.7-4.7 1-3.7.4-2.3-.1-.7v-.3l.1-.9h.1l-.1.1.1 1 .4.7.6 3.3.3 2.2v1.8l.2 4.3.3 1 .2.2.1.4v.2l.3.6.4.3v-.4l-.2-.1v-.1h0l-.1-.4-.7-.9-.5-.4v-.2h-.4l-.7-1-.3-.3-1-1.5-.5-.2-.6-.8-1.1-1-1-.7-.2-.3-.3-.2h-.2l-.3-.4v-.3l-.7-1-.4-.9-.6-.6h.2v.2h-.1l.1.1v.2h.1l1.2 1.5.7 1.1.6.5 1.3.4 3.5.2 1.8-.3h3.7l.3-.2.2.2v-.4l.1.1-.2.2h-2.4l-1.5.3h-.6l-2.8 1.2-.2-.2h-.2l-2.8 2.6-1.4 1.8-.2.6v.4l-.5 1.2v.7l-.3 1 .1.7-.1-.1v-.2l1-.5 1.3-1.3 1.7-3.3.6-1.9 1-1.7.4-1.2.2-.7.7-1 .3-.1.4-1.4.7-.9 1.1-1.6-.1-.2.1.2h-.2v-.1.1h0-.4l-.2.2.1.1-.4.1v.4h-.2v.2l-.2-.2h.1v.5l-.1.1v.8l-.6 1.8m236.8-184.4.4 1.9.5.9.1.1.2-.1 2-5.6 1.3-5 .3-1.6-.2-1.5-.1 4 .4 2.7.2.8.5 2.3.8 1.4h.1l.4.8v-.2l-.4-.5-2.1-1.3-.9-.7-3.6-1.3-.7-.5-1-.1-.7-.2h-.3l-1.4-.4h-.8l-.6-.3v-.2h0l.4.1 1-.9.8-.2.5.2 2-.5h1.6l.4.3h.4l.4-.2 2-.3 4.6-1.5 2.4-.4 1.7-.6 1-.2.6-.4h-.5l-.1.4h0l-.6-.2-1.8 1-1.4.8-3.6 2.7-1.5 1.8-.4.7h-.2l-.5 1.6-1 2.2h-.1l-.4.7-.2.5h0-.6l-.4.3v.2h-.3 0l.1-.2v-.5l.4-2.7 1-3.1.3-.3 1-2.8 1-2.3.3-.8.3-2.9v-.9l-.4-1.8v.3h0l-.6 1.5v1.4l.2.3.9 2.4.8 1 .4.9.3.9.9 1.4 1 4 .3.4.1.8.4 1 .4 1.8.5.7v.5-.5l-.1.4-.1-.6v.1l-.5-.2-2.7-4.2-2.6-2-3.1-2-2.8-2.3-1.7-1-1-.3.3.2.1-.2.2.3.1-.2.5.6h.4l1.8.6 2.7.4 1.5-.2.5-.1h1.7l1-.2h2.9l1.2.2.6.3h.2l2-.2.3.1.4-.1v-.2l-.2-.2-.4-.5-.3-.2h-.3l-.2-.1-.4-.2h-1.4l-.8.2-.4.4-1.3.3-1.3.6-.4.4-1.5.7-1 .8-1.7 1.7-2.3 1.7-1 .7-.2-.2h-.2l-.7 1h-.2 0l.1.2v1l.2.4v-.2l.3-.4.7-.4 1-1 .4-.6.2-.1 1-1.3 1.2-2 1.2-1.5 1.6-3 1.6-2 .8-1.6-.2-.5-.2.7-.2-.1h-.2l-.8.3-.7.4-.7.6-.6.9-.2.5" style="fill:none;stroke:#000;stroke-width:2.18683;stroke-linecap:round;stroke-linejoin:round;stroke-miterlimit:10;stroke-dasharray:none;stroke-opacity:1" transform="matrix(.04413 0 0 -.04413 -2.2 22.3)"/>
</svg>
